<?xml version="1.0" encoding="UTF-8" standalone="no" ?>
<!DOCTYPE svg PUBLIC "-//W3C//DTD SVG 1.1//EN" "http://www.w3.org/Graphics/SVG/1.1/DTD/svg11.dtd">
<svg xmlns="http://www.w3.org/2000/svg" xmlns:xlink="http://www.w3.org/1999/xlink" version="1.1" width="1080" height="1080" viewBox="0 0 1080 1080" xml:space="preserve">
<desc>Created with Fabric.js 5.2.4</desc>
<defs>
</defs>
<rect x="0" y="0" width="100%" height="100%" fill="transparent"></rect>
<g transform="matrix(1 0 0 1 540 540)" id="c1598fd4-82ef-4813-88a4-d60a3005fa16"  >
<rect style="stroke: none; stroke-width: 1; stroke-dasharray: none; stroke-linecap: butt; stroke-dashoffset: 0; stroke-linejoin: miter; stroke-miterlimit: 4; fill: rgb(255,255,255); fill-rule: nonzero; opacity: 1; visibility: hidden;" vector-effect="non-scaling-stroke"  x="-540" y="-540" rx="0" ry="0" width="1080" height="1080" />
</g>
<g transform="matrix(1 0 0 1 540 540)" id="0cf3c906-6552-4269-97a1-b7aba124f584"  >
</g>
<g transform="matrix(-3.85 0.39 -0.39 -3.86 540 540)" id="d6670aa6-e0a8-434a-8fdb-c7583094bba2"  >
<path style="stroke: rgb(0,0,0); stroke-width: 0; stroke-dasharray: none; stroke-linecap: butt; stroke-dashoffset: 0; stroke-linejoin: miter; stroke-miterlimit: 4; fill: rgb(238,247,255); fill-rule: nonzero; opacity: 1;" vector-effect="non-scaling-stroke"  transform=" translate(4.91, -2.26)" d="M 52.1 -51.6 C 63.8 -40.3 67.1 -20.2 67.7 0.6 C 68.2 21.3 66 42.5 54.3 55.9 C 42.5 69.2 21.3 74.6 4.7 69.9 C -11.9 65.2 -23.9 50.5 -38.5 37.2 C -53.2 23.9 -70.5 11.9 -75.8 -5.3 C -81.1 -22.5 -74.2 -44.9 -59.6 -56.3 C -44.9 -67.6 -22.5 -67.7 -1.2 -66.6 C 20.2 -65.4 40.3 -62.9 52.1 -51.6 Z" stroke-linecap="round" />
</g>
<g transform="matrix(0.72 0 0 0.72 521.05 583.66)"  >
<g style="" vector-effect="non-scaling-stroke"   >
		<g transform="matrix(1 0 0 1 -194.05 -150.04)"  >
<polygon style="stroke: none; stroke-width: 1; stroke-dasharray: none; stroke-linecap: butt; stroke-dashoffset: 0; stroke-linejoin: miter; stroke-miterlimit: 4; fill: rgb(229,229,229); fill-rule: nonzero; opacity: 1;" vector-effect="non-scaling-stroke"  points="178.05,71.55 -84.09,71.55 -132.82,125.83 -132.82,71.55 -178.05,71.55 -178.05,-125.83 178.05,-125.83 178.05,71.55 " />
</g>
		<g transform="matrix(1 0 0 1 -194.05 -212.55)"  >
<rect style="stroke: none; stroke-width: 1; stroke-dasharray: none; stroke-linecap: butt; stroke-dashoffset: 0; stroke-linejoin: miter; stroke-miterlimit: 4; fill: rgb(255,255,255); fill-rule: nonzero; opacity: 1;" vector-effect="non-scaling-stroke"  x="-119.662315" y="-5.345755" rx="0" ry="0" width="239.32463" height="10.69151" />
</g>
		<g transform="matrix(1 0 0 1 -194.05 -177.18)"  >
<rect style="stroke: none; stroke-width: 1; stroke-dasharray: none; stroke-linecap: butt; stroke-dashoffset: 0; stroke-linejoin: miter; stroke-miterlimit: 4; fill: rgb(255,255,255); fill-rule: nonzero; opacity: 1;" vector-effect="non-scaling-stroke"  x="-119.662315" y="-5.345755" rx="0" ry="0" width="239.32463" height="10.69151" />
</g>
		<g transform="matrix(1 0 0 1 -194.05 -141.82)"  >
<rect style="stroke: none; stroke-width: 1; stroke-dasharray: none; stroke-linecap: butt; stroke-dashoffset: 0; stroke-linejoin: miter; stroke-miterlimit: 4; fill: rgb(255,255,255); fill-rule: nonzero; opacity: 1;" vector-effect="non-scaling-stroke"  x="-119.662315" y="-5.345755" rx="0" ry="0" width="239.32463" height="10.69151" />
</g>
		<g transform="matrix(1 0 0 1 -326.15 0.01)"  >
<circle style="stroke: none; stroke-width: 1; stroke-dasharray: none; stroke-linecap: butt; stroke-dashoffset: 0; stroke-linejoin: miter; stroke-miterlimit: 4; fill: rgb(230,230,230); fill-rule: nonzero; opacity: 1;" vector-effect="non-scaling-stroke"  cx="0" cy="0" r="9" />
</g>
		<g transform="matrix(1 0 0 1 249.06 244.94)"  >
<polygon style="stroke: none; stroke-width: 1; stroke-dasharray: none; stroke-linecap: butt; stroke-dashoffset: 0; stroke-linejoin: miter; stroke-miterlimit: 4; fill: rgb(159,97,106); fill-rule: nonzero; opacity: 1;" vector-effect="non-scaling-stroke"  points="7.44,19.45 -2.64,19.45 -7.44,-19.45 7.44,-19.45 7.44,19.45 " />
</g>
		<g transform="matrix(1 0 0 1 242.81 267.63)"  >
<path style="stroke: none; stroke-width: 1; stroke-dasharray: none; stroke-linecap: butt; stroke-dashoffset: 0; stroke-linejoin: miter; stroke-miterlimit: 4; fill: rgb(47,46,65); fill-rule: nonzero; opacity: 1;" vector-effect="non-scaling-stroke"  transform=" translate(-842.81, -717.63)" d="M 859.06937 724.16364 L 826.55388 724.16244 L 826.55388 723.75117 C 826.5543604360388 716.7617226151232 832.2203626086981 711.0958055045978 839.2098100000001 711.09543 L 839.2106200000001 711.09543 L 859.06997 711.09624 Z" stroke-linecap="round" />
</g>
		<g transform="matrix(1 0 0 1 159.61 242.78)"  >
<polygon style="stroke: none; stroke-width: 1; stroke-dasharray: none; stroke-linecap: butt; stroke-dashoffset: 0; stroke-linejoin: miter; stroke-miterlimit: 4; fill: rgb(159,97,106); fill-rule: nonzero; opacity: 1;" vector-effect="non-scaling-stroke"  points="-1.4,20.8 -10.96,17.6 -3.15,-20.8 10.96,-16.07 -1.4,20.8 " />
</g>
		<g transform="matrix(1 0 0 1 144.21 263.99)"  >
<path style="stroke: none; stroke-width: 1; stroke-dasharray: none; stroke-linecap: butt; stroke-dashoffset: 0; stroke-linejoin: miter; stroke-miterlimit: 4; fill: rgb(47,46,65); fill-rule: nonzero; opacity: 1;" vector-effect="non-scaling-stroke"  transform=" translate(-744.21, -713.99)" d="M 757.54434 723.67536 L 726.71552 713.339 L 726.84624 712.94906 C 729.0683408450259 706.3222486300233 736.2414436291191 702.7511494387915 742.86853 704.97243 L 742.8693 704.9726900000001 L 761.6984699999999 711.28587 Z" stroke-linecap="round" />
</g>
		<g transform="matrix(1 0 0 1 204.03 137.72)"  >
<path style="stroke: none; stroke-width: 1; stroke-dasharray: none; stroke-linecap: butt; stroke-dashoffset: 0; stroke-linejoin: miter; stroke-miterlimit: 4; fill: rgb(47,46,65); fill-rule: nonzero; opacity: 1;" vector-effect="non-scaling-stroke"  transform=" translate(-804.03, -587.72)" d="M 770.64407 513.37 L 748.80679 698.09923 L 770.22479 699.90561 C 770.22479 699.90561 803.9152799999999 518.28254 814.30166 539.79724 C 824.68804 561.3119399999999 837.4136599999999 695.87366 837.4136599999999 695.87366 L 858.6703299999999 695.87366 C 858.6703299999999 695.87366 864.1215 485.92037 841.865 475.534 Z" stroke-linecap="round" />
</g>
		<g transform="matrix(0.17 -0.98 0.98 0.17 206.06 -92.55)"  >
<circle style="stroke: none; stroke-width: 1; stroke-dasharray: none; stroke-linecap: butt; stroke-dashoffset: 0; stroke-linejoin: miter; stroke-miterlimit: 4; fill: rgb(159,97,106); fill-rule: nonzero; opacity: 1;" vector-effect="non-scaling-stroke"  cx="0" cy="0" r="21.51465" />
</g>
		<g transform="matrix(1 0 0 1 209.74 2.75)"  >
<path style="stroke: none; stroke-width: 1; stroke-dasharray: none; stroke-linecap: butt; stroke-dashoffset: 0; stroke-linejoin: miter; stroke-miterlimit: 4; fill: rgb(63,61,86); fill-rule: nonzero; opacity: 1;" vector-effect="non-scaling-stroke"  transform=" translate(-809.74, -452.75)" d="M 793.2715 386.87877 L 820.7212499999999 389.10438 C 820.7212499999999 389.10438 842.60682 389.47533 851.5094399999999 395.41038 C 860.4120599999999 401.34542999999996 842.9777799999999 438.06876 842.9777799999999 438.06876 C 842.9777799999999 438.06876 838.4452799999999 452.62876 841.86497 459.21245 C 852.96086 480.57457999999997 851.31579 497.02531 851.31579 497.02531 C 851.31579 497.02531 828.51105 502.24172 789.1912 512.62812 C 789.1912 512.62812 764.709 522.27262 765.45091 517.07943 C 766.1928200000001 511.88624000000004 773.61166 452.53549 773.61166 452.53549 L 773.61166 390.95909 Z" stroke-linecap="round" />
</g>
		<g transform="matrix(1 0 0 1 209.35 -97.08)"  >
<path style="stroke: none; stroke-width: 1; stroke-dasharray: none; stroke-linecap: butt; stroke-dashoffset: 0; stroke-linejoin: miter; stroke-miterlimit: 4; fill: rgb(47,46,65); fill-rule: nonzero; opacity: 1;" vector-effect="non-scaling-stroke"  transform=" translate(-809.35, -352.92)" d="M 841.29052 355.11546 C 840.19226 348.9887 837.73209 340.29746 832.25125 333.70786999999996 C 832.42395 333.70886999999993 832.59585 333.71644999999995 832.76855 333.71142999999995 C 834.65219 333.65642999999994 836.79549 333.0623499999999 837.57364 331.34623999999997 C 838.0850323596991 329.94635537000823 837.7973936548489 328.3792612750498 836.82219 327.25224 C 835.8506855713221 326.1589864654884 834.6888228877085 325.25113703178835 833.39309 324.57282999999995 C 834.7148500000001 325.37532999999996 836.5832300000001 326.12069999999994 837.63851 324.99031999999994 C 838.1920171207453 324.2945547623709 838.2928501252259 323.341321290243 837.89716 322.5451499999999 C 837.496750492476 321.7714071342629 836.9343649471475 321.0929966783523 836.2482699999999 320.5560799999999 C 834.0260976366659 318.5907392715074 831.5949398376785 316.8752190702649 828.9984599999999 315.4403299999999 C 826.98831 314.3296799999999 824.3439799999999 313.4378099999999 822.53946 314.85856999999993 C 820.7012 316.3059399999999 820.9964 319.12436999999994 821.46872 321.4159199999999 C 820.4393315664249 320.81403163390917 819.2819174449811 320.4647546006894 818.09142 320.3967399999999 C 816.8651580375074 320.3617178592214 815.7830396252433 321.1930806821622 815.50091 322.38695999999993 C 815.4661064684244 323.31651334131 815.920099607579 324.196543489481 816.69776 324.7069599999999 C 809.60419 323.5404299999999 800.54022 324.8640499999999 788.9524200000001 330.2256999999999 C 788.9524200000001 330.2256999999999 777.71684 333.9708899999999 777.1461300000001 348.76132999999993 C 777.0882553390334 351.1268712643917 777.3506341858704 353.489370767288 777.9261300000001 355.7845699999999 C 778.5591300000001 358.4657499999999 780.8110300000001 371.6191999999999 778.11008 376.9350099999999 L 791.6409600000001 381.75616999999994 L 791.79596 373.6511699999999 C 781.27971 358.4708999999999 786.47478 352.9002999999999 790.56939 343.77021999999994 C 790.5831963067819 343.7363079558408 790.6150041053045 343.71312924747184 790.6515150929271 343.7103745008723 C 790.6880260805498 343.70761975427286 790.7229516456082 343.7257634439154 790.74169 343.75721999999996 C 791.4983599999999 345.05564 794.39812 349.50633999999997 804.377 349.50633999999997 L 800.521 345.6502 C 800.521 345.6502 817.4878299999999 352.59126 823.65765 352.59126 C 823.65765 352.59126 828.28482 355.67611999999997 823.65765 360.30348999999995 C 819.03048 364.93085999999994 808.90301 371.74173999999994 814.30165 380.2252 C 819.70029 388.70866 819.23527 391.71842 819.23527 391.71842 L 831.57492 384.77742 C 831.57492 384.77742 839.11192 369.86542000000003 840.44851 365.47417 C 841.5467401310746 362.1369108623404 841.8353542609404 358.5862759848655 841.29052 355.11546 Z" stroke-linecap="round" />
</g>
		<g transform="matrix(1 0 0 1 215.76 159.05)"  >
<polygon style="stroke: none; stroke-width: 1; stroke-dasharray: none; stroke-linecap: butt; stroke-dashoffset: 0; stroke-linejoin: miter; stroke-miterlimit: 4; fill: rgb(77,134,156); fill-rule: nonzero; opacity: 1;" vector-effect="non-scaling-stroke"  points="-122.74,-86.74 122.74,-86.74 122.74,49.32 91.56,49.32 91.56,86.74 57.97,49.32 -122.74,49.32 -122.74,-86.74 " />
</g>
		<g transform="matrix(1 0 0 1 215.76 115.96)"  >
<rect style="stroke: none; stroke-width: 1; stroke-dasharray: none; stroke-linecap: butt; stroke-dashoffset: 0; stroke-linejoin: miter; stroke-miterlimit: 4; fill: rgb(255,255,255); fill-rule: nonzero; opacity: 1;" vector-effect="non-scaling-stroke"  x="-82.48767" y="-3.68503" rx="0" ry="0" width="164.97534" height="7.37006" />
</g>
		<g transform="matrix(1 0 0 1 215.76 140.34)"  >
<rect style="stroke: none; stroke-width: 1; stroke-dasharray: none; stroke-linecap: butt; stroke-dashoffset: 0; stroke-linejoin: miter; stroke-miterlimit: 4; fill: rgb(255,255,255); fill-rule: nonzero; opacity: 1;" vector-effect="non-scaling-stroke"  x="-82.48767" y="-3.68503" rx="0" ry="0" width="164.97534" height="7.37006" />
</g>
		<g transform="matrix(1 0 0 1 215.76 164.72)"  >
<rect style="stroke: none; stroke-width: 1; stroke-dasharray: none; stroke-linecap: butt; stroke-dashoffset: 0; stroke-linejoin: miter; stroke-miterlimit: 4; fill: rgb(255,255,255); fill-rule: nonzero; opacity: 1;" vector-effect="non-scaling-stroke"  x="-82.48767" y="-3.68503" rx="0" ry="0" width="164.97534" height="7.37006" />
</g>
		<g transform="matrix(1 0 0 1 238.57 37.46)"  >
<path style="stroke: none; stroke-width: 1; stroke-dasharray: none; stroke-linecap: butt; stroke-dashoffset: 0; stroke-linejoin: miter; stroke-miterlimit: 4; fill: rgb(159,97,106); fill-rule: nonzero; opacity: 1;" vector-effect="non-scaling-stroke"  transform=" translate(-838.57, -487.46)" d="M 854.19849 435.12524 L 839.80027 438.62524 L 839.6912699999999 467.76514000000003 L 823.4969799999999 523.6590600000001 C 819.9023082079154 526.5015625517874 819.0008878399058 531.5829950516832 821.3984976636974 535.4884979876164 C 823.796107487489 539.3940009235496 828.7353411644845 540.8898236452961 832.8969006218323 538.9707329927514 C 837.0584600791801 537.0516423402069 839.127706262532 532.3238801673028 837.7140499999999 527.96463 L 857.0735799999999 470.10182000000003 Z" stroke-linecap="round" />
</g>
		<g transform="matrix(1 0 0 1 176.88 37.57)"  >
<path style="stroke: none; stroke-width: 1; stroke-dasharray: none; stroke-linecap: butt; stroke-dashoffset: 0; stroke-linejoin: miter; stroke-miterlimit: 4; fill: rgb(159,97,106); fill-rule: nonzero; opacity: 1;" vector-effect="non-scaling-stroke"  transform=" translate(-776.88, -487.57)" d="M 758.36916 434.51257 L 775.64243 439.44779 L 775.75143 468.58769 L 791.94572 524.48161 C 795.5403917920845 527.3241125517874 796.4418121600942 532.4055450516831 794.0442023363025 536.3110479876163 C 791.6465925125109 540.2165509235496 786.7073588355155 541.7123736452961 782.5457993781677 539.7932829927515 C 778.3842399208198 537.8741923402068 776.314993737468 533.1464301673028 777.72865 528.78718 L 758.3691200000001 470.92436000000004 Z" stroke-linecap="round" />
</g>
		<g transform="matrix(1 0 0 1 245.89 -18.5)"  >
<path style="stroke: none; stroke-width: 1; stroke-dasharray: none; stroke-linecap: butt; stroke-dashoffset: 0; stroke-linejoin: miter; stroke-miterlimit: 4; fill: rgb(63,61,86); fill-rule: nonzero; opacity: 1;" vector-effect="non-scaling-stroke"  transform=" translate(-845.89, -431.5)" d="M 832.5914 392.44289 L 836.15957 391.27939999999995 C 838.1629934213156 390.6261366657245 840.3419139877 390.7773219496521 842.2359200000001 391.70100999999994 L 842.2359200000001 391.70100999999994 C 842.2359200000001 391.70100999999994 852.6223000000001 392.4428899999999 854.10607 399.86173999999994 C 855.58984 407.28058999999996 859.19849 472.12523999999996 859.19849 472.12523999999996 L 837.19849 465.12523999999996 Z" stroke-linecap="round" />
</g>
		<g transform="matrix(1 0 0 1 168.86 -17.37)"  >
<path style="stroke: none; stroke-width: 1; stroke-dasharray: none; stroke-linecap: butt; stroke-dashoffset: 0; stroke-linejoin: miter; stroke-miterlimit: 4; fill: rgb(63,61,86); fill-rule: nonzero; opacity: 1;" vector-effect="non-scaling-stroke"  transform=" translate(-768.86, -432.63)" d="M 782.51422 392.44289 L 776.19849 392.12523999999996 L 774.19849 391.12523999999996 C 774.19849 391.12523999999996 762.48332 392.44289 760.99955 399.86173999999994 C 759.51578 407.2805899999999 755.19849 474.12523999999996 755.19849 474.12523999999996 L 777.19849 468.12523999999996 Z" stroke-linecap="round" />
</g>
		<g transform="matrix(1 0 0 1 -194.32 218.24)"  >
<path style="stroke: none; stroke-width: 1; stroke-dasharray: none; stroke-linecap: butt; stroke-dashoffset: 0; stroke-linejoin: miter; stroke-miterlimit: 4; fill: rgb(241,241,241); fill-rule: nonzero; opacity: 1;" vector-effect="non-scaling-stroke"  transform=" translate(-405.68, -668.24)" d="M 419.67568 655.2772 L 430.10368 646.18067 C 429.65766544523126 639.6464659151669 428.8434725126133 633.1426178504437 427.66498 626.70011 L 421.91018 629.13474 L 427.24932 624.47731 C 425.71295000000003 616.52547 424.19208000000003 611.35686 424.19208000000003 611.35686 C 424.19208000000003 611.35686 403.15208 630.04072 391.37834000000004 652.83343 L 396.54319000000004 669.82312 L 388.65426 658.58857 C 387.4811536760508 661.3005406267072 386.4797737268553 664.083607433322 385.65605000000005 666.92129 C 377.44653000000005 695.55935 380.14438000000007 721.45629 391.68205000000006 724.7638 C 403.21972000000005 728.0713099999999 419.22798000000006 707.53671 427.43753000000004 678.89869 C 429.8330181370436 669.7253117026729 430.80822253824823 660.2389427992633 430.32917000000003 650.77006 Z" stroke-linecap="round" />
</g>
		<g transform="matrix(1 0 0 1 -170.71 234.08)"  >
<path style="stroke: none; stroke-width: 1; stroke-dasharray: none; stroke-linecap: butt; stroke-dashoffset: 0; stroke-linejoin: miter; stroke-miterlimit: 4; fill: rgb(241,241,241); fill-rule: nonzero; opacity: 1;" vector-effect="non-scaling-stroke"  transform=" translate(-429.29, -684.08)" d="M 447.28951 677.545 L 460.9184 675.1481699999999 C 463.91413884455653 669.3240570406293 466.57900084982026 663.3356135997884 468.90029000000004 657.21137 L 462.71540000000005 656.32091 L 469.69340000000005 655.09379 C 472.4885100000001 647.4925000000001 473.85821000000004 642.28179 473.85821000000004 642.28179 C 473.85821000000004 642.28179 446.18943 647.40043 424.32895 660.82611 L 419.96842000000004 678.0397399999999 L 419.02232000000004 664.3446399999999 C 416.6162479073212 666.0598183343069 414.3204451059397 667.9246435528273 412.14851000000004 669.9280699999999 C 390.31773 690.2 379.241 713.76358 387.40819 722.55871 C 395.57538 731.35384 419.89339 722.0501 441.72425 701.77817 C 448.51665050380603 695.1636147170983 454.25498615037003 687.5469494642659 458.73933999999997 679.19353 Z" stroke-linecap="round" />
</g>
		<g transform="matrix(1 0 0 1 62.1 274.13)"  >
<path style="stroke: none; stroke-width: 1; stroke-dasharray: none; stroke-linecap: butt; stroke-dashoffset: 0; stroke-linejoin: miter; stroke-miterlimit: 4; fill: rgb(203,203,203); fill-rule: nonzero; opacity: 1;" vector-effect="non-scaling-stroke"  transform=" translate(-662.1, -724.13)" d="M 971.10006 725.12524 L 353.10006 725.12524 C 352.5477752501692 725.12524 352.10006 724.6775247498308 352.10006 724.12524 C 352.10006 723.5729552501691 352.5477752501692 723.12524 353.10006 723.12524 L 971.10006 723.12524 C 971.6523447498308 723.12524 972.10006 723.5729552501691 972.10006 724.12524 C 972.10006 724.6775247498308 971.6523447498308 725.12524 971.10006 725.12524 Z" stroke-linecap="round" />
</g>
</g>
</g>
</svg>