<svg xml:space="preserve" viewBox="250.56 248.4 581.0400000000001 598.32" version="1.1" xmlns:xlink="http://www.w3.org/1999/xlink" xmlns="http://www.w3.org/2000/svg" style="max-height: 500px" width="581.0400000000001" height="598.32">
<desc>Created with Fabric.js 5.2.4</desc>
<defs>
</defs>
<rect fill="transparent" height="100%" width="100%" y="0" x="0"/>
<g id="c1598fd4-82ef-4813-88a4-d60a3005fa16" transform="matrix(1 0 0 1 540 540)">
<rect height="1080" width="1080" ry="0" rx="0" y="-540" x="-540" style="stroke: none; stroke-width: 1; stroke-dasharray: none; stroke-linecap: butt; stroke-dashoffset: 0; stroke-linejoin: miter; stroke-miterlimit: 4; fill: rgb(255,255,255); fill-rule: nonzero; opacity: 1; visibility: hidden;"/>
</g>
<g id="0cf3c906-6552-4269-97a1-b7aba124f584" transform="matrix(1 0 0 1 540 540)">
</g>
<g transform="matrix(1 0 0 1 558.41 586.87)">
<g style="">
		<g transform="matrix(1 0 0 1 0 0)">
<rect height="1080" width="1080" ry="0" rx="0" y="-540" x="-540" style="stroke: none; stroke-width: 1; stroke-dasharray: none; stroke-linecap: butt; stroke-dashoffset: 0; stroke-linejoin: miter; stroke-miterlimit: 4; fill: rgb(255,255,255); fill-rule: nonzero; opacity: 1; visibility: hidden;"/>
</g>
		<g transform="matrix(-3.06 -3.06 3.06 -3.06 -0.03 23.43)">
<path stroke-linecap="round" d="M 39.1 -53 C 48.9 -38.4 53.9 -24.4 55.8 -10.3 C 57.8 3.8 56.7 18 51.8 33.2 C 47 48.4 38.2 64.6 26.3 66.4 C 14.4 68.2 -0.6 55.5 -15.9 48.1 C -31.3 40.6 -46.9 38.4 -58.6 28.7 C -70.4 19 -78.2 1.9 -73.9 -11.4 C -69.6 -24.7 -53.1 -34.2 -38.8 -48 C -24.4 -61.8 -12.2 -80 1.2 -81.4 C 14.7 -82.9 29.3 -67.6 39.1 -53 Z" transform="translate(9.18, 7.46)" style="stroke: rgb(0,0,0); stroke-width: 0; stroke-dasharray: none; stroke-linecap: butt; stroke-dashoffset: 0; stroke-linejoin: miter; stroke-miterlimit: 4; fill: rgb(238,247,255); fill-rule: nonzero; opacity: 1;"/>
</g>
		<g transform="matrix(1 0 0 1 61.21 114.98)">
<path stroke-linecap="round" d="M 553.88171 596.17145 C 553.9504196322164 604.7285152287135 560.935199007273 611.6138831579024 569.49237 611.55993 L 835.48553 609.65356 C 844.0426400947099 609.5879196465906 850.927563138137 602.6000780937594 850.8662372107112 594.0429359914214 C 850.8049112832855 585.4857938890832 843.8205419346676 578.5973485141475 835.26337 578.65436 L 569.2702 580.56073 C 560.7131188950856 580.6294615687335 553.827751222655 587.6142629905341 553.88171 596.17145 Z" transform="translate(-702.37, -595.11)" style="stroke: none; stroke-width: 1; stroke-dasharray: none; stroke-linecap: butt; stroke-dashoffset: 0; stroke-linejoin: miter; stroke-miterlimit: 4; fill: rgb(242,242,242); fill-rule: nonzero; opacity: 1;"/>
</g>
		<g transform="matrix(1 0 0 1 -20.03 112.21)">
<path stroke-linecap="round" d="M 585.78864 592.46466 C 585.7872224432181 591.9216896633612 586.2256734765645 591.4800799929786 586.76864 591.4775999999999 L 655.4717 591.2319299999999 C 656.0149521327473 591.2299970033755 656.4569120033757 591.6688228672526 656.4588450000001 592.2120749999999 C 656.4607779966244 592.7553271327473 656.0219521327473 593.1972870033755 655.4787 593.19922 L 655.4787 593.19922 L 586.77563 593.44488 C 586.2326625596709 593.4461098220227 585.7911473231617 593.0076230439084 585.78864 592.46466 Z" transform="translate(-621.12, -592.34)" style="stroke: none; stroke-width: 1; stroke-dasharray: none; stroke-linecap: butt; stroke-dashoffset: 0; stroke-linejoin: miter; stroke-miterlimit: 4; fill: rgb(204,204,204); fill-rule: nonzero; opacity: 1;"/>
</g>
		<g transform="matrix(1 0 0 1 34.14 120.83)">
<path stroke-linecap="round" d="M 585.868 601.48187 C 585.8665879534631 600.9389019258093 586.3050357785077 600.4972954868415 586.8480000000001 600.4948099999999 L 763.7377700000001 599.4453699999999 C 764.2810221327474 599.4422689211297 764.7239289211298 599.8801478672526 764.72703 600.4233999999999 C 764.7301310788704 600.9666521327473 764.2922521327473 601.4095589211297 763.749 601.41266 L 763.7447900000001 601.41266 L 586.855 602.4621 C 586.3120179875748 602.4633518470615 585.8704853609464 602.0248477674264 585.868 601.48187 Z" transform="translate(-675.3, -600.95)" style="stroke: none; stroke-width: 1; stroke-dasharray: none; stroke-linecap: butt; stroke-dashoffset: 0; stroke-linejoin: miter; stroke-miterlimit: 4; fill: rgb(204,204,204); fill-rule: nonzero; opacity: 1;"/>
</g>
		<g transform="matrix(1 0 0 1 61.21 55.98)">
<path stroke-linecap="round" d="M 553.88171 537.17145 C 553.9504196322164 545.7285152287135 560.935199007273 552.6138831579024 569.49237 552.55993 L 835.48553 550.65356 C 844.0426400947099 550.5879196465906 850.927563138137 543.6000780937594 850.8662372107112 535.0429359914214 C 850.8049112832855 526.4857938890832 843.8205419346676 519.5973485141475 835.26337 519.65436 L 569.2702 521.56073 C 560.7131188950856 521.6294615687335 553.827751222655 528.6142629905341 553.88171 537.17145 Z" transform="translate(-702.37, -536.11)" style="stroke: none; stroke-width: 1; stroke-dasharray: none; stroke-linecap: butt; stroke-dashoffset: 0; stroke-linejoin: miter; stroke-miterlimit: 4; fill: rgb(242,242,242); fill-rule: nonzero; opacity: 1;"/>
</g>
		<g transform="matrix(1 0 0 1 31.14 61.83)">
<path stroke-linecap="round" d="M 582.868 542.48187 C 582.8665879534631 541.9389019258093 583.3050357785077 541.4972954868415 583.8480000000001 541.4948099999999 L 760.7377700000001 540.4453699999999 C 761.2810221327474 540.4434370033755 761.7229820033757 540.8822628672526 761.724915 541.4255149999999 C 761.7268479966244 541.9687671327473 761.2880221327473 542.4107270033755 760.74477 542.41266 L 760.74477 542.41266 L 583.855 543.4621 C 583.3120179875748 543.4633518470615 582.8704853609464 543.0248477674264 582.868 542.48187 Z" transform="translate(-672.3, -541.95)" style="stroke: none; stroke-width: 1; stroke-dasharray: none; stroke-linecap: butt; stroke-dashoffset: 0; stroke-linejoin: miter; stroke-miterlimit: 4; fill: rgb(204,204,204); fill-rule: nonzero; opacity: 1;"/>
</g>
		<g transform="matrix(1 0 0 1 31.14 51.83)">
<path stroke-linecap="round" d="M 582.868 532.48187 C 582.8665879534631 531.9389019258093 583.3050357785077 531.4972954868415 583.8480000000001 531.4948099999999 L 760.7377700000001 530.4453699999999 C 761.2810221327474 530.4434370033755 761.7229820033757 530.8822628672526 761.724915 531.4255149999999 C 761.7268479966244 531.9687671327473 761.2880221327473 532.4107270033755 760.74477 532.41266 L 760.74477 532.41266 L 583.855 533.4621 C 583.3120179875748 533.4633518470615 582.8704853609464 533.0248477674264 582.868 532.48187 Z" transform="translate(-672.3, -531.95)" style="stroke: none; stroke-width: 1; stroke-dasharray: none; stroke-linecap: butt; stroke-dashoffset: 0; stroke-linejoin: miter; stroke-miterlimit: 4; fill: rgb(204,204,204); fill-rule: nonzero; opacity: 1;"/>
</g>
		<g transform="matrix(1 0 0 1 -142.54 198.98)">
<path stroke-linecap="round" d="M 631.7298 664.56073 L 365.73662999999993 662.65436 C 357.17945806533254 662.5973485141477 350.19508871671485 669.4857938890834 350.1337627892891 678.0429359914214 C 350.0724368618634 686.6000780937593 356.9573599052902 693.5879196465904 365.51446999999996 693.65356 L 631.50763 695.55993 C 640.0648295321411 695.6169838483377 647.0492446820921 688.7285294785198 647.1105735696196 680.1713595174847 C 647.1719024571471 671.6141895564497 640.2869382541884 664.6263339114106 631.7298 664.56073 Z" transform="translate(-498.62, -679.11)" style="stroke: none; stroke-width: 1; stroke-dasharray: none; stroke-linecap: butt; stroke-dashoffset: 0; stroke-linejoin: miter; stroke-miterlimit: 4; fill: rgb(242,242,242); fill-rule: nonzero; opacity: 1;"/>
</g>
		<g transform="matrix(1 0 0 1 -226.28 196.21)">
<path stroke-linecap="round" d="M 449.2243 677.44488 L 380.52121 677.19922 C 379.97795786725266 677.1972870033755 379.5391320033756 676.7553271327473 379.54106499999995 676.2120749999999 C 379.54299799662436 675.6688228672526 379.98495786725266 675.2299970033755 380.52821 675.2319299999999 L 449.23130000000003 675.4775999999999 C 449.58337318263415 675.4778775773128 449.9084507061503 675.6663038086724 450.0836833389465 675.9716710095677 C 450.2589159717428 676.2770382104628 450.25757902084223 676.6527748915602 450.0801777300065 676.9568873460719 C 449.9027764391708 677.2609998005835 449.57636624297083 677.4471079002902 449.2243 677.4448799999999 Z" transform="translate(-414.88, -676.34)" style="stroke: none; stroke-width: 1; stroke-dasharray: none; stroke-linecap: butt; stroke-dashoffset: 0; stroke-linejoin: miter; stroke-miterlimit: 4; fill: rgb(204,204,204); fill-rule: nonzero; opacity: 1;"/>
</g>
		<g transform="matrix(1 0 0 1 -171.46 204.83)">
<path stroke-linecap="round" d="M 558.1449 686.4621 L 381.25513 685.41266 C 380.71187786725267 685.4107270033755 380.2730520033756 684.9687671327473 380.27498499999996 684.4255149999999 C 380.2769179966244 683.8822628672526 380.7188778672527 683.4434370033755 381.26213 683.4453699999999 L 381.26213 683.4453699999999 L 558.15187 684.4948099999999 C 558.6951221327473 684.4967429966243 559.1339479966244 684.9387028672526 559.1320150000001 685.4819549999999 C 559.1300820033757 686.0252071327473 558.6881221327474 686.4640329966244 558.1448700000001 686.4621 Z" transform="translate(-469.7, -684.95)" style="stroke: none; stroke-width: 1; stroke-dasharray: none; stroke-linecap: butt; stroke-dashoffset: 0; stroke-linejoin: miter; stroke-miterlimit: 4; fill: rgb(204,204,204); fill-rule: nonzero; opacity: 1;"/>
</g>
		<g transform="matrix(1 0 0 1 232.84 55.79)">
<circle r="7" cy="0" cx="0" style="stroke: none; stroke-width: 1; stroke-dasharray: none; stroke-linecap: butt; stroke-dashoffset: 0; stroke-linejoin: miter; stroke-miterlimit: 4; fill: rgb(242,242,242); fill-rule: nonzero; opacity: 1;"/>
</g>
		<g transform="matrix(1 0 0 1 232.84 114.79)">
<circle r="7" cy="0" cx="0" style="stroke: none; stroke-width: 1; stroke-dasharray: none; stroke-linecap: butt; stroke-dashoffset: 0; stroke-linejoin: miter; stroke-miterlimit: 4; fill: rgb(242,242,242); fill-rule: nonzero; opacity: 1;"/>
</g>
		<g transform="matrix(1 0 0 1 -179.45 161.59)">
<path stroke-linecap="round" d="M 559.72754 639.23578 L 367.28165 668.06433 C 363.0152430877555 668.7065500698977 358.7304614713701 667.0227736112463 356.0426818550322 663.6477898641705 C 353.3549022386943 660.2728061170947 352.6728670821872 655.7198636939895 354.25370587352177 651.7054368015378 C 355.83454466485625 647.691009909086 359.437852300815 644.8255900893276 363.70517 644.1894500000001 L 556.151 615.361 C 560.4174069122456 614.7187799301 564.7021885286331 616.4025563887507 567.3899681449724 619.7775401358272 C 570.0777477613117 623.1525238829037 570.759782917819 627.7054663060105 569.1789441264833 631.7198931984633 C 567.5981053351477 635.734320090916 563.9947976991866 638.5997399106742 559.7274799999999 639.23588 Z" transform="translate(-461.72, -641.71)" style="stroke: none; stroke-width: 1; stroke-dasharray: none; stroke-linecap: butt; stroke-dashoffset: 0; stroke-linejoin: miter; stroke-miterlimit: 4; fill: rgb(77,134,156); fill-rule: nonzero; opacity: 1;"/>
</g>
		<g transform="matrix(1 0 0 1 -240.28 169.09)">
<path stroke-linecap="round" d="M 425.82855 646.121 L 376.14993 653.7453899999999 C 375.7571036645641 653.8056774032915 375.3897824032915 653.5361013354358 375.32949499999995 653.1432749999999 C 375.26920759670844 652.750448664564 375.5387836645641 652.3831274032915 375.93161 652.3228399999999 L 375.93161 652.3228399999999 L 425.61023 644.69845 C 426.0030563354359 644.6381625967084 426.37037759670847 644.9077386645641 426.430665 645.300565 C 426.49095240329154 645.6933913354359 426.2213763354359 646.0607125967084 425.82855 646.121 Z" transform="translate(-400.88, -649.22)" style="stroke: none; stroke-width: 1; stroke-dasharray: none; stroke-linecap: butt; stroke-dashoffset: 0; stroke-linejoin: miter; stroke-miterlimit: 4; fill: rgb(255,255,255); fill-rule: nonzero; opacity: 1;"/>
</g>
		<g transform="matrix(1 0 0 1 -199.68 169.09)">
<path stroke-linecap="round" d="M 505.56784 640.26849 L 377.613 659.59772 C 377.22017366456413 659.6580101647153 376.8528501647153 659.3884363354358 376.79256 658.9956099999999 C 376.73226983528474 658.6027836645641 377.00184366456415 658.2354601647153 377.39467 658.17517 L 377.39467 658.17517 L 505.34952 638.846 C 505.60395846032714 638.8062989875914 505.8602169315389 638.9055881638634 506.02148359276595 639.10635709686 C 506.18275025399294 639.3071260298567 506.2244395071052 639.5787668787133 506.13080158006443 639.8186565181298 C 506.03716365302364 640.0585461575464 505.82247393558754 640.2301126747337 505.56784 640.26854 Z" transform="translate(-441.48, -649.22)" style="stroke: none; stroke-width: 1; stroke-dasharray: none; stroke-linecap: butt; stroke-dashoffset: 0; stroke-linejoin: miter; stroke-miterlimit: 4; fill: rgb(255,255,255); fill-rule: nonzero; opacity: 1;"/>
</g>
		<g transform="matrix(1 0 0 1 -136.25 130.57)">
<path stroke-linecap="round" d="M 515.0224 624.72589 C 513.5118711860425 624.6383156072312 512.1158291358322 623.8923952868461 511.20343258405677 622.6853745312778 C 510.29103603228134 621.4783537757095 509.9541726404203 619.9317919161181 510.28191999999996 618.45465 L 489.36492 603.47442 L 492.08592 596.67004 L 516.7993 614.64392 C 519.300201889304 615.3971821560688 520.8424286704773 617.901961098195 520.3890806526094 620.4741954791148 C 519.9357326347415 623.0464298600344 517.6301128005665 624.8730382399959 515.02238 624.72592 Z" transform="translate(-504.92, -610.7)" style="stroke: none; stroke-width: 1; stroke-dasharray: none; stroke-linecap: butt; stroke-dashoffset: 0; stroke-linejoin: miter; stroke-miterlimit: 4; fill: rgb(160,97,106); fill-rule: nonzero; opacity: 1;"/>
</g>
		<g transform="matrix(1 0 0 1 -165.24 98.97)">
<path stroke-linecap="round" d="M 458.8288 540.96918 L 446.2598 545.5687800000001 C 445.14434271304594 545.9769749523095 444.2367272743023 546.8115662698631 443.736619891713 547.888952312092 C 443.23651250912377 548.9663383543208 443.18487964258105 550.1982646910285 443.59308 551.3137200000001 Q 443.66708 551.5160600000002 443.76034999999996 551.7105700000001 L 460.89734999999996 587.45996 L 502.188 617.21948 L 508.51673 607.13568 L 477.23866 578.65405 Z" transform="translate(-475.92, -579.09)" style="stroke: none; stroke-width: 1; stroke-dasharray: none; stroke-linecap: butt; stroke-dashoffset: 0; stroke-linejoin: miter; stroke-miterlimit: 4; fill: rgb(63,61,86); fill-rule: nonzero; opacity: 1;"/>
</g>
		<g transform="matrix(1 0 0 1 -208.85 124.57)">
<path stroke-linecap="round" d="M 453.66049 614.90118 C 439.33666999999997 613.56976 425.30548999999996 610.2631799999999 410.95972 609.15118 L 416.71704 594.4981799999999 L 446.14014 598.8802599999999 Z" transform="translate(-432.31, -604.7)" style="stroke: none; stroke-width: 1; stroke-dasharray: none; stroke-linecap: butt; stroke-dashoffset: 0; stroke-linejoin: miter; stroke-miterlimit: 4; fill: rgb(160,97,106); fill-rule: nonzero; opacity: 1;"/>
</g>
		<g transform="matrix(1 0 0 1 -238.82 151.88)">
<path stroke-linecap="round" d="M 405.06342 618.3468 L 404.93906 619.44415 L 403.91486 628.2593400000001 L 402.71509 628.3324600000001 L 402.64928999999995 639.3716400000001 C 403.42589439601124 641.6204399187446 402.55727157174005 644.1082827578233 400.54973999999993 645.3850100000001 C 400.3880230262654 645.489078760037 400.21937596518177 645.5819622749376 400.04497999999995 645.6630100000001 C 399.31543932258506 639.9332520523112 399.5354218148032 634.1224200951049 400.69607999999994 628.4642200000001 C 401.1619563836931 626.3592653468012 401.8485337107478 624.3093141278168 402.74441999999993 622.34838 C 403.19575180129135 621.3776728007889 403.70888877488755 620.4369177856386 404.28066999999993 619.53191 C 404.52206 619.12958 404.78543 618.73449 405.06342 618.3468 Z" transform="translate(-402.34, -632)" style="stroke: none; stroke-width: 1; stroke-dasharray: none; stroke-linecap: butt; stroke-dashoffset: 0; stroke-linejoin: miter; stroke-miterlimit: 4; fill: rgb(47,46,65); fill-rule: nonzero; opacity: 1;"/>
</g>
		<g transform="matrix(1 0 0 1 -236.41 137.87)">
<path stroke-linecap="round" d="M 405.29019 616.44476 L 405.06342 618.33948 L 405.06342 618.3468 L 404.93906 619.44415 C 404.61719 619.4880400000001 404.39041 619.51727 404.28064 619.53192 C 404.25399610820153 619.5360674656592 404.22711494522895 619.5385124223312 404.20016 619.5392400000001 Z" transform="translate(-404.75, -617.99)" style="stroke: none; stroke-width: 1; stroke-dasharray: none; stroke-linecap: butt; stroke-dashoffset: 0; stroke-linejoin: miter; stroke-miterlimit: 4; fill: rgb(77,134,156); fill-rule: nonzero; opacity: 1;"/>
</g>
		<g transform="matrix(1 0 0 1 -207.35 91.75)">
<path stroke-linecap="round" d="M 457.3768 580.11584 L 454.90414 594.4981700000001 C 454.90414 594.4981700000001 460.91022 608.0319200000001 456.77691999999996 611.4044200000001 C 455.750918276325 612.3243572291157 455.23767212575285 613.6866235853303 455.40157999999997 615.05487 C 454.81634999999994 615.0036600000001 454.23843 614.95245 453.66049 614.90124 C 439.33666999999997 613.56982 425.30548999999996 610.26324 410.95972 609.15124 C 409.94284 609.0708000000001 408.93329 608.99762 407.91647 608.94641 L 412.33505 596.3783500000001 L 409.35031000000004 585.2075800000001 L 406.25586000000004 573.6197500000001 L 405.59018000000003 554.54083 C 405.57428842988986 554.1800394594392 405.57671154439396 553.8186749864954 405.59744 553.45813 C 405.59744 553.26794 405.60477000000003 553.08502 405.61944 552.89483 C 405.9452430092285 548.0149264358062 408.46269296752774 543.5448398582857 412.46676 540.73645 C 412.4723070538005 540.7356630525367 412.4774465447784 540.7330897964665 412.4814 540.72912 C 413.1555510379245 540.2564048755488 413.86475938394744 539.8357727121803 414.60286 539.47088 C 415.3957749522645 539.0777033239207 416.2204872533813 538.7522126942362 417.06820000000005 538.49788 L 417.91683000000006 538.24188 L 422.51095000000004 530.80926 L 427.83669000000003 530.25326 L 429.81188000000003 530.0484299999999 L 442.67988 528.7096799999999 L 445.45249 532.3089299999999 L 445.95726 532.9673099999999 L 447.91047000000003 535.4984999999999 L 453.99699000000004 538.7392899999999 C 455.32740683493813 539.4446591296143 456.5433654319061 540.3473850064369 457.60353000000003 541.4167799999999 C 460.0922170512116 543.9049646771574 461.6364784037124 547.1823260237022 461.97090000000003 550.68558 C 462.0515223990529 551.4926312890755 462.06619769936066 552.3049131744108 462.01478000000003 553.11435 Z" transform="translate(-433.81, -571.88)" style="stroke: none; stroke-width: 1; stroke-dasharray: none; stroke-linecap: butt; stroke-dashoffset: 0; stroke-linejoin: miter; stroke-miterlimit: 4; fill: rgb(63,61,86); fill-rule: nonzero; opacity: 1;"/>
</g>
		<g transform="matrix(1 0 0 1 -234.73 35.24)">
<path stroke-linecap="round" d="M 394.73956 515.34356 C 394.60742 521.02923 396.73224 526.53456 399.78476 531.37012 C 400.8044780941361 528.5623286836288 402.23243695430847 525.9201507473191 404.02261 523.5287500000001 C 403.16545483741317 528.827063322082 404.0784697829381 534.2601832089629 406.62036 538.9873 C 406.7099963681464 539.0513866789169 406.8028075671725 539.1109122735166 406.89844 539.16565 C 409.3713281737164 540.7703066263165 412.4452513802189 541.1472233367539 415.23257 540.1875600000001 C 409.6464190738366 533.865096771417 408.98819131930145 524.5842030265534 413.6261 517.5366200000001 C 414.9461 515.6286200000001 416.65335 513.9412500000001 417.47095 511.7699600000001 C 418.76187000000004 508.30554000000006 417.52095 504.49115000000006 416.73813 500.8791500000001 C 416.00613 497.5174500000001 415.87802 493.5170300000001 418.13333 491.0533400000001 C 417.64284610273495 490.352354050877 416.81264802015255 489.97011238289724 415.96115 490.0532200000001 C 414.58251330488986 490.4030914332041 413.45169733523824 491.3864177346519 412.91378999999995 492.7031200000001 C 412.3937098016644 494.00400728720297 411.7337673158492 495.2445093792902 410.9455899999999 496.40277000000015 C 409.28185999999994 498.4152500000001 406.4485899999999 498.8910500000001 404.0609099999999 499.9516600000002 C 398.2785 502.52725 394.87817 509.017 394.73956 515.34356 Z" transform="translate(-406.43, -515.38)" style="stroke: none; stroke-width: 1; stroke-dasharray: none; stroke-linecap: butt; stroke-dashoffset: 0; stroke-linejoin: miter; stroke-miterlimit: 4; fill: rgb(47,46,65); fill-rule: nonzero; opacity: 1;"/>
</g>
		<g transform="matrix(1 0 0 1 -209.11 32.61)">
<path stroke-linecap="round" d="M 443.41318 512.09274 C 443.08273 510.93622000000005 445.36029 518.0058 444.26126 518.13342 C 439.25568 518.70764 432.38426 521.69714 428.89795 523.09179 C 428.74095 523.07355 428.58394999999996 523.0553 428.43154999999996 523.03253 C 428.05754999999994 522.9915299999999 427.69268999999997 522.93225 427.33254999999997 522.86389 C 419.21462999999994 521.32794 416.0929 508.85789 416.0929 508.74388999999996 C 416.0929 508.18332 417.43835 492.78619 419.55789999999996 492.55832 C 420.1145987737071 492.49791024198333 420.67414324979154 492.46747964292956 421.23411 492.46716 L 426.49366 492.46716 C 427.58202296026644 492.2326329387702 428.6851385885657 492.07274391879145 429.7953 491.98861 L 429.80454 491.98861 C 440.39292 491.18188 448.74170999999996 497.63561 447.96130999999997 505.48855 C 447.95671 505.49764999999996 447.94746 505.50676999999996 447.94284999999996 505.5159 C 447.71655999999996 505.85314999999997 447.51802 506.17221 447.34250999999995 506.47757 C 447.17166999999995 506.76471000000004 447.0285099999999 507.03814 446.9038499999999 507.29794000000004 C 445.9387299999999 509.30334000000005 448.4194999999999 511.82675000000006 446.7745499999999 512.29776 C 444.5867399999999 512.9241900000001 452.5285999999999 533.51391 443.86896999999993 533.51391 C 448.08121 534.71161 444.32474 515.28314 443.41318 512.09274 Z" transform="translate(-432.05, -512.74)" style="stroke: none; stroke-width: 1; stroke-dasharray: none; stroke-linecap: butt; stroke-dashoffset: 0; stroke-linejoin: miter; stroke-miterlimit: 4; fill: rgb(47,46,65); fill-rule: nonzero; opacity: 1;"/>
</g>
		<g transform="matrix(1 0 0 1 -207.2 31.59)">
<circle r="12.45264" cy="0" cx="0" style="stroke: none; stroke-width: 1; stroke-dasharray: none; stroke-linecap: butt; stroke-dashoffset: 0; stroke-linejoin: miter; stroke-miterlimit: 4; fill: rgb(160,97,106); fill-rule: nonzero; opacity: 1;"/>
</g>
		<g transform="matrix(1 0 0 1 -210.77 34.98)">
<path stroke-linecap="round" d="M 447.9613 506.16772 C 447.75351 506.27709999999996 447.5503 506.37735 447.3425 506.47765999999996 C 447.1255 506.58245999999997 446.90849999999995 506.68730999999997 446.69140999999996 506.78301999999996 C 442.52160999999995 508.67449999999997 439.12762 508.88411999999994 437.06811999999996 506.16774999999996 C 437.0129759483973 504.73844024196933 436.69195254624395 503.3319234604401 436.12148999999994 502.02022999999997 C 436.22223486574654 503.4860718540426 435.8358810946481 504.9441337218373 435.02248999999995 506.16774999999996 L 430.87582 506.16774999999996 C 426.60445999999996 509.00264999999996 424.41103999999996 509.29891999999995 427.37561 518.60575 C 428.20218 521.1990699999999 431.48877 536.2896499999999 430.19583 538.5274999999999 C 429.82183 538.4864999999999 425.84253 521.9576199999999 425.48236 521.8892599999999 C 417.36444 520.35331 412.20648000000006 506.9790099999999 412.86682 506.2224499999999 C 412.86359121112577 504.0709666614565 413.35827522060106 501.9479195508974 414.31216 500.01944999999995 C 415.5189222938013 497.57618386786254 417.40014313202647 495.5296112557774 419.73334 494.12176999999997 C 421.1240551699701 493.4474218028198 422.57399009150106 492.9027492817993 424.06473 492.49467 C 424.10168 492.48553999999996 424.134 492.47641999999996 424.17093 492.46732 C 424.62808 492.34425 425.09448 492.23031999999995 425.56085 492.13458999999995 C 426.5243158618079 491.9311575739679 427.4987289864387 491.78355170009416 428.47922 491.69250999999997 C 428.54849 491.68796999999995 428.61774 491.68339 428.6824 491.68339 C 429.07392430023486 491.68430963634074 429.4581047792373 491.78973608394654 429.79526 491.98877999999996 C 429.79987 491.98877999999996 429.79987 491.99332999999996 429.80449999999996 491.99332999999996 C 430.0454347006122 492.1341049830668 430.25581281824816 492.3216018709977 430.42328 492.54481 C 430.71821275540896 492.9203558132176 430.87767483867293 493.38449921728204 430.87582 493.86201 L 435.4935 493.86201 Q 435.74976 493.86201 436.00606999999997 493.87565 C 442.3927432317037 494.09388386260093 447.5641094078503 499.13683201930564 447.94284 505.516 C 447.95667 505.73474 447.9613 505.949 447.9613 506.16772 Z" transform="translate(-430.39, -515.11)" style="stroke: none; stroke-width: 1; stroke-dasharray: none; stroke-linecap: butt; stroke-dashoffset: 0; stroke-linejoin: miter; stroke-miterlimit: 4; fill: rgb(47,46,65); fill-rule: nonzero; opacity: 1;"/>
</g>
		<g transform="matrix(1 0 0 1 -220.43 13.85)">
<circle r="8.20388" cy="0" cx="0" style="stroke: none; stroke-width: 1; stroke-dasharray: none; stroke-linecap: butt; stroke-dashoffset: 0; stroke-linejoin: miter; stroke-miterlimit: 4; fill: rgb(47,46,65); fill-rule: nonzero; opacity: 1;"/>
</g>
		<g transform="matrix(1 0 0 1 -243.38 147.38)">
<path stroke-linecap="round" d="M 400.54974 645.385 C 400.38802302626544 645.489068760037 400.2193759651818 645.5819522749375 400.04498 645.663 C 397.4929384452019 646.9204640098047 394.40472400980474 645.8710015547981 393.14726 643.3189600000001 C 391.8897959901953 640.7669184452019 392.9392584452019 637.6787040098047 395.4913 636.42124 Q 395.62291000000005 636.35642 395.75809000000004 636.29911 L 395.74344 628.77146 L 395.72879 619.91233 L 395.7142 610.57033 L 402.82486 608.8145900000001 L 402.74438 622.3483500000001 L 402.71509 628.3324200000001 L 402.64928999999995 639.3716000000001 C 403.4259101849845 641.620408727961 402.5572854481001 644.108269456584 400.54974 645.385 Z" transform="translate(-397.77, -627.5)" style="stroke: none; stroke-width: 1; stroke-dasharray: none; stroke-linecap: butt; stroke-dashoffset: 0; stroke-linejoin: miter; stroke-miterlimit: 4; fill: rgb(160,97,106); fill-rule: nonzero; opacity: 1;"/>
</g>
		<g transform="matrix(1 0 0 1 -230.82 104.87)">
<path stroke-linecap="round" d="M 428.656 549.30279 L 427.9171 550.6854199999999 L 409.35027 585.20742 L 408.79427000000004 586.2389099999999 L 406.16802 608.8659099999999 L 405.29015000000004 616.4447699999998 L 405.06338000000005 618.3394799999999 L 405.06338000000005 618.3468099999999 L 404.93902 619.4441599999999 L 403.91482 628.2593499999999 L 402.71505 628.33247 L 400.69605 628.4641799999999 L 395.74342 628.7714299999999 L 392.03442 629.0054999999999 L 392.04175000000004 623.0725799999999 L 392.10754000000003 578.11133 L 405.59738000000004 553.45795 L 405.92660000000006 552.85078 L 411.13525000000004 543.33326 C 412.32641097783846 541.159948864339 415.0538449699119 540.3637443733372 417.22717000000006 541.55488 Q 417.4124300000001 541.65651 417.5875500000001 541.77509 Z" transform="translate(-410.35, -585)" style="stroke: none; stroke-width: 1; stroke-dasharray: none; stroke-linecap: butt; stroke-dashoffset: 0; stroke-linejoin: miter; stroke-miterlimit: 4; fill: rgb(63,61,86); fill-rule: nonzero; opacity: 1;"/>
</g>
		<g transform="matrix(1 0 0 1 -315.16 194.79)">
<circle r="7" cy="0" cx="0" style="stroke: none; stroke-width: 1; stroke-dasharray: none; stroke-linecap: butt; stroke-dashoffset: 0; stroke-linejoin: miter; stroke-miterlimit: 4; fill: rgb(242,242,242); fill-rule: nonzero; opacity: 1;"/>
</g>
		<g transform="matrix(1 0 0 1 135.79 -40.37)">
<path stroke-linecap="round" d="M 805.9281 421.20633 C 805.9281 421.20633 803.38965 448.07626 801.9851 467.96718999999996 L 801.9851 467.98184 Q 801.8204 470.38496 801.67785 472.62719999999996 L 800.93169 472.69304999999997 C 800.41961 472.74426 799.91485 472.80276 799.40269 472.85396999999995 C 791.22392 473.7245199999999 783.12569 475.16570999999993 774.99809 476.41661999999997 Q 773.82392 476.59227 772.64976 476.76779 C 764.5429618123349 478.0917270882288 756.3422841835387 478.75717076937104 748.12809 478.7575999999999 L 747.97447 478.75759999999997 C 748.04032 477.73346 748.14268 476.39468 748.25981 474.85839999999996 C 748.94749 466.16027999999994 750.33738 451.08290999999997 750.33738 451.08290999999997 L 751.63224 442.35549999999995 L 755.8679000000001 413.76649999999995 L 755.8972000000001 413.54697999999996 L 755.9337600000001 413.2983 L 756.1385900000001 413.24708999999996 L 765.0342800000001 410.93540999999993 L 769.8186400000001 409.6990799999999 L 772.59855 405.8657099999999 L 776.30021 400.75947999999994 L 791.69212 402.65421999999995 L 792.81871 406.85331999999994 L 794.90371 414.59315999999995 L 794.9695 414.84187999999995 L 803.0458600000001 419.53114999999997 Z" transform="translate(-776.95, -439.76)" style="stroke: none; stroke-width: 1; stroke-dasharray: none; stroke-linecap: butt; stroke-dashoffset: 0; stroke-linejoin: miter; stroke-miterlimit: 4; fill: rgb(230,230,230); fill-rule: nonzero; opacity: 1;"/>
</g>
		<g transform="matrix(1 0 0 1 142.8 -97.34)">
<circle r="16.31188" cy="0" cx="0" style="stroke: none; stroke-width: 1; stroke-dasharray: none; stroke-linecap: butt; stroke-dashoffset: 0; stroke-linejoin: miter; stroke-miterlimit: 4; fill: rgb(255,182,182); fill-rule: nonzero; opacity: 1;"/>
</g>
		<g transform="matrix(1 0 0 1 143.98 -100.79)">
<path stroke-linecap="round" d="M 766.86505 372.92209 C 768.29724 374.07953000000003 767.96948 379.70856000000003 769.56543 378.79109000000005 C 771.16138 377.8736200000001 771.49343 376.23055000000005 773.33118 376.21331000000004 C 774.829420510207 376.29605187106586 776.2426868361164 376.935595024843 777.29376 378.00649000000004 C 777.48938 378.18328 777.67542 378.36864 777.85614 378.55187000000006 C 778.02142 378.4938700000001 778.18463 378.4413600000001 778.35638 378.39833000000004 C 779.6452730918736 378.08362897774316 781.0057748693232 378.27519878898516 782.15765 378.93358000000006 C 781.0940128455221 379.00954858779784 780.0811670559527 379.41794794159387 779.26233 380.10103000000004 C 779.6131 380.49416 779.96918 380.88948000000005 780.34333 381.25484000000006 C 783.4673300000001 384.31630000000007 789.8728100000001 381.0560500000001 794.17976 380.32039000000003 C 790.59254 384.23714 791.29976 386.42363000000006 792.19197 391.65880000000004 L 792.19569 391.94480000000004 C 792.3791600000001 390.73750000000007 796.2458 390.79768000000007 795.60835 392.39964000000003 C 794.8077379250577 393.98221425406814 793.806038526777 395.45473317504667 792.62812 396.78064000000006 C 797.89668 393.13077000000004 802.14991 388.09970000000004 803.0897299999999 382.02240000000006 C 803.4342740857024 380.7764850240182 803.5043464357449 379.4706411646888 803.2951099999999 378.1950100000001 C 802.9770952784198 376.8995491758504 801.8255213994244 375.9814416257299 800.4917699999999 375.96001000000007 C 801.687473394223 372.16181067336976 800.6993029851928 368.0138008112042 797.9195447521389 365.1626661427711 C 795.1397865190851 362.31153147433804 791.0181572305962 361.2185362400496 787.1908699999999 362.3175800000001 C 785.4773934208248 362.9265822589544 783.8059749717214 363.6479998087132 782.1875099999999 364.4771300000001 C 780.5538946916494 365.3094695512394 778.7049111569619 365.6226410305709 776.8883199999999 365.3746800000001 C 775.7566599999999 365.1409200000001 774.6104799999999 364.55495000000013 773.5011699999999 364.88674000000015 C 772.21589 365.27221000000014 771.6633999999999 366.62963000000013 771.1481699999999 367.94005000000016 C 772.1151906139086 368.29321264458576 772.9549588695191 368.9266701724902 773.56017 369.75948000000017 C 772.5605228881689 369.39054797111584 771.4699918057863 369.34624031253804 770.44371 369.63286000000016 C 770.4248203134218 369.63617038410626 770.406270653755 369.6411910426231 770.38829 369.64786000000015 C 769.22461 371.73318 769.15729 372.24454 766.86505 372.92209 Z" transform="translate(-785.14, -379.34)" style="stroke: none; stroke-width: 1; stroke-dasharray: none; stroke-linecap: butt; stroke-dashoffset: 0; stroke-linejoin: miter; stroke-miterlimit: 4; fill: rgb(47,46,65); fill-rule: nonzero; opacity: 1;"/>
</g>
		<g transform="matrix(1 0 0 1 120.42 -38.1)">
<path stroke-linecap="round" d="M 774.99805 476.41662 Q 773.82397 476.59227000000004 772.64972 476.76779000000005 C 764.5429217645825 478.0917266968975 756.3422441675726 478.7571703754604 748.12805 478.7576 C 748.1865200000001 477.46274000000005 748.2231400000001 476.16060000000004 748.2597000000001 474.8584 C 748.31091 473.03683 748.34747 471.20794 748.38403 469.37906000000004 Q 748.6363600000001 456.94637000000006 748.8887900000001 444.52090000000004 C 748.8961200000001 444.12590000000006 748.90344 443.72348000000005 748.9107100000001 443.32846000000006 C 749.0789800000001 434.95218000000006 749.3057900000001 426.29794000000004 752.7806400000001 418.66778000000005 C 753.5742760219474 416.9297367424653 754.5633618137637 415.28778025028447 755.7287600000001 413.77368000000007 C 755.7872900000001 413.69320000000005 755.8385000000001 413.6200800000001 755.8970300000001 413.54690000000005 C 755.9774800000001 413.44452000000007 756.05803 413.3421000000001 756.1384300000001 413.24701000000005 C 757.0716081854441 412.0835755604457 758.1099239956311 411.0085313955312 759.2402300000001 410.03549000000004 C 762.7687691109403 406.78523231017095 767.4559394348988 405.09015015324275 772.2472300000001 405.33160000000004 L 772.59837 405.86560000000003 L 773.0665700000001 406.58987 C 772.7593200000001 408.87961 772.44474 411.17669 772.15214 413.47378000000003 C 770.88658 423.4302 769.97947 433.44519 770.99626 443.40893000000005 C 771.85954 451.7852500000001 774.07609 459.98593000000005 774.77842 468.36954000000003 C 774.8076599999999 468.64754000000005 774.82963 468.93286 774.85154 469.21084 C 775.0245837975234 471.6086340095802 775.0734857949924 474.01377383158353 774.99805 476.41662 Z" transform="translate(-761.58, -442.03)" style="stroke: none; stroke-width: 1; stroke-dasharray: none; stroke-linecap: butt; stroke-dashoffset: 0; stroke-linejoin: miter; stroke-miterlimit: 4; fill: rgb(63,61,86); fill-rule: nonzero; opacity: 1;"/>
</g>
		<g transform="matrix(1 0 0 1 149.59 -38.35)">
<path stroke-linecap="round" d="M 800.93 472.68817 C 801.29 471.12817 801.63 469.55817 801.9899999999999 467.97817000000003 L 801.9899999999999 467.96817000000004 Q 804.0751199999999 458.60817000000003 806.1699999999998 449.2481700000001 C 807.9999999999999 441.06817000000007 809.8299999999998 432.6081700000001 808.2599999999999 424.37817000000007 C 808.1004445445676 423.5314667453033 807.8968346222729 422.6936619830742 807.6499999999999 421.8681700000001 C 807.5699999999998 421.5981700000001 807.4799999999999 421.32817000000006 807.3899999999999 421.0581700000001 C 806.7594087356625 419.1625102232848 805.9032695037928 417.3495094969724 804.8399999999999 415.6581700000001 C 802.06 411.2181700000001 797.8999999999999 407.7681700000001 792.8199999999999 406.8581700000001 C 792.725306469119 406.8295995264057 792.6282563479704 406.8095201909956 792.53 406.7981700000001 L 791.42 407.82817000000006 C 791.1899999999999 409.95817000000005 790.9699999999999 412.10817000000003 790.7299999999999 414.2481700000001 C 789.5899999999999 424.37817000000007 788.0999999999999 434.4981700000001 784.6899999999999 444.07817000000006 C 781.77 452.27817000000005 777.4899999999999 459.94817000000006 774.8199999999999 468.22817000000003 C 774.81 468.27817000000005 774.79 468.32817000000006 774.78 468.36817 C 773.8990976778877 471.12203686490324 773.1877648050804 473.9272932647066 772.65 476.76817000000005 C 773.43 476.64817 774.22 476.53817 775 476.41817 C 783.13 475.16817 791.22 473.72817 799.4 472.85817 Z" transform="translate(-790.75, -441.78)" style="stroke: none; stroke-width: 1; stroke-dasharray: none; stroke-linecap: butt; stroke-dashoffset: 0; stroke-linejoin: miter; stroke-miterlimit: 4; fill: rgb(63,61,86); fill-rule: nonzero; opacity: 1;"/>
</g>
		<g transform="matrix(1 0 0 1 169 -124.71)">
<path stroke-linecap="round" d="M 816.81964 379.36184 L 816.3515000000001 374.87008 L 816.2417600000001 373.83124 L 816.0734900000001 372.16333 L 812.4595900000002 337.49499 C 813.0741476821619 335.43828108317376 812.2234586987424 333.22591282362976 810.3892800000002 332.11078 C 808.2436982517454 330.8314735808109 805.4673616226039 331.53210636682115 804.1857300000003 333.67629999999997 C 804.1637300000002 333.71286 804.1491100000003 333.74944999999997 804.1272000000002 333.78601 C 802.849869846343 336.0137106456278 803.5759741188684 338.85331907327765 805.7658700000003 340.19442999999995 C 805.9838956845373 340.3193426964009 806.2113793965474 340.4269691471901 806.4462300000002 340.51631999999995 L 806.4169900000003 341.48931999999996 L 806.3292200000003 344.53988 L 806.2633700000004 346.8443 L 806.1243700000003 351.43111999999996 L 806.0731600000004 353.20883 L 805.9048900000004 358.97342 L 805.7439400000004 364.53326 L 805.5464300000004 371.27083999999996 L 805.3928000000004 376.45025 L 807.2582800000005 376.92578 Z" transform="translate(-810.16, -355.42)" style="stroke: none; stroke-width: 1; stroke-dasharray: none; stroke-linecap: butt; stroke-dashoffset: 0; stroke-linejoin: miter; stroke-miterlimit: 4; fill: rgb(255,182,182); fill-rule: nonzero; opacity: 1;"/>
</g>
		<g transform="matrix(1 0 0 1 170.31 -74.81)">
<path stroke-linecap="round" d="M 820.43353 386.74319 C 820.3557339681851 386.1412922917463 820.2109772371728 385.5499624878293 820.00195 384.98019000000005 C 819.05823 383.34149 818.48029 385.63119000000006 818.9997599999999 381.2419100000001 C 819.41676 377.67926000000006 816.9147599999999 378.12552000000005 817.8146399999999 377.3646800000001 C 819.29964 376.1064400000001 817.2513399999999 375.5504400000001 816.35156 374.8701200000001 C 815.94916 374.5701200000001 815.78094 374.2482600000001 816.24182 373.8312700000001 C 816.458018193082 373.6428437080583 816.6992864804439 373.48528836841894 816.9587399999999 373.3631000000001 C 817.9390299999999 372.8510100000001 817.37574 372.4632500000001 816.0736099999999 372.16336000000007 C 813.1442686818674 371.67527471826986 810.1835515461632 371.3990053298083 807.2144799999998 371.33670000000006 C 806.4975599999999 371.30014000000006 805.9123499999998 371.28549000000004 805.5465699999999 371.2708400000001 C 805.2758799999999 371.26355000000007 805.1222499999999 371.26355000000007 805.1222499999999 371.26355000000007 C 804.6117635301281 371.747840489784 804.2924133330973 372.3995274180086 804.2224699999999 373.09970000000004 C 804.0058412912148 374.58657765348715 804.1207487634848 376.10296425863 804.55896 377.54022000000003 C 804.8597827205663 378.5381919149402 805.2592333847883 379.50372866186285 805.7514 380.42254 C 805.9392841656548 380.7669712120749 806.025494764151 381.1576758411806 806 381.54919 L 806 381.55652000000003 C 805.8944587262384 382.02453456838697 805.5861325701127 382.4213151599081 805.15869 382.63919000000004 C 804.17108 383.29757000000006 804.71979 384.68019000000004 805.48792 385.98239000000007 C 806.140854859755 386.8549874101805 806.6953288238852 387.79708875268943 807.14124 388.7915300000001 C 807.14124 389.69137000000006 801.05469 408.8141500000001 801.05469 408.8141500000001 L 803.29321 437.6885700000001 C 804.9535204238617 438.96878853075555 807.0486293864808 439.5490036916588 809.13098 439.30527000000006 C 810.8678512164166 439.0130455785201 812.4736344741177 438.1961079263897 813.73248 436.96427000000006 C 815.5035860860683 435.2325258065296 816.9439321721464 433.19222274925323 817.98279 430.9435500000001 C 823.8938 419.07052 821.69183 393.75149 820.43353 386.74319 Z" transform="translate(-811.48, -405.31)" style="stroke: none; stroke-width: 1; stroke-dasharray: none; stroke-linecap: butt; stroke-dashoffset: 0; stroke-linejoin: miter; stroke-miterlimit: 4; fill: rgb(63,61,86); fill-rule: nonzero; opacity: 1;"/>
</g>
		<g transform="matrix(1 0 0 1 76.46 -118.82)">
<path stroke-linecap="round" d="M 709.439 339.12481 C 711.7470437652031 340.25011581208383 712.7395794714215 343.00846684097564 711.6777 345.34637000000004 C 711.5702934228202 345.57326848116656 711.4442969222797 345.79089089452384 711.3009999999999 345.99701000000005 L 732.3496399999999 375.13614000000007 L 724.5242599999999 383.96267000000006 L 704.6261 346.87631 C 702.9631243465734 345.518241135801 702.4241965103729 343.21004589580804 703.3138399999999 341.25597999999997 C 704.3709173622212 338.99199810008565 707.0631662597435 338.0136065793166 709.32715 339.07068 Q 709.38346 339.09695 709.439 339.12481 Z" transform="translate(-717.62, -361.3)" style="stroke: none; stroke-width: 1; stroke-dasharray: none; stroke-linecap: butt; stroke-dashoffset: 0; stroke-linejoin: miter; stroke-miterlimit: 4; fill: rgb(255,182,182); fill-rule: nonzero; opacity: 1;"/>
</g>
		<g transform="matrix(1 0 0 1 103.21 -79.84)">
<path stroke-linecap="round" d="M 768.44232 424.56378 C 768.44232 424.56378 765.6286 434.62802 752.49658 427.2337 C 739.36456 419.83938 725.16168 392.22705 725.02008 390.33508 C 724.87848 388.44311 726.64246 390.01553 723.75189 386.6777 C 721.401 383.96304000000003 723.72272 382.92670000000004 722.55243 382.80108 C 719.46643 382.47 724.82434 378.55808 721.0138499999999 379.00693 C 717.2033599999999 379.45578 729.6283599999999 370.62417 729.6283599999999 370.62417 C 729.6283599999999 370.62417 731.8928199999999 370.67852999999997 733.6210299999999 375.50522 C 734.5916699999999 378.21622 733.6747399999999 380.07107 735.9880999999999 380.06054 C 738.3014599999999 380.05001 737.3110999999999 385.54254000000003 737.8002899999999 386.26831 C 738.2894799999999 386.99407999999994 754.0772099999999 399.41449 754.0772099999999 399.41449 Z" transform="translate(-744.36, -400.29)" style="stroke: none; stroke-width: 1; stroke-dasharray: none; stroke-linecap: butt; stroke-dashoffset: 0; stroke-linejoin: miter; stroke-miterlimit: 4; fill: rgb(63,61,86); fill-rule: nonzero; opacity: 1;"/>
</g>
		<g transform="matrix(1 0 0 1 109.81 -195.29)">
<circle r="76.08154" cy="0" cx="0" style="stroke: none; stroke-width: 1; stroke-dasharray: none; stroke-linecap: butt; stroke-dashoffset: 0; stroke-linejoin: miter; stroke-miterlimit: 4; fill: rgb(77,134,156); fill-rule: nonzero; opacity: 1;"/>
</g>
		<g transform="matrix(1 0 0 1 64.03 -208.49)">
<path stroke-linecap="round" d="M 712.31219 267.90576 C 713.1034132487935 269.4125284545046 713.7077973632224 271.010224871148 714.11194 272.66342 C 715.1438 277.01018999999997 714.41943 280.95500999999996 712.04663 282.80523 C 711.8090420012493 282.9973782451254 711.5528923914537 283.16536535664596 711.2819800000001 283.3067 C 708.3133500000001 284.85916 704.2177100000001 283.22064 700.9349800000001 279.55444 C 699.8077261560626 278.27940693687583 698.840288314896 276.87157039253003 698.0541200000001 275.36215 C 697.2672579287946 273.87211328839174 696.6675786635979 272.2905339596247 696.2687200000001 270.65337999999997 C 695.1122800000002 265.85263 696.0980600000001 261.52283 699.0754800000002 259.96576 C 703.01886 257.90356 708.94312 261.4635 712.31219 267.90576 Z" transform="translate(-705.18, -271.64)" style="stroke: none; stroke-width: 1; stroke-dasharray: none; stroke-linecap: butt; stroke-dashoffset: 0; stroke-linejoin: miter; stroke-miterlimit: 4; fill: rgb(255,255,255); fill-rule: nonzero; opacity: 1;"/>
</g>
		<g transform="matrix(1 0 0 1 63.13 -203.47)">
<path stroke-linecap="round" d="M 711.05188 275.33578 C 712.2571363438176 277.629365001368 712.6096249547061 280.2761567124521 712.0466299999999 282.80523 C 711.8090420012492 282.9973782451254 711.5528923914536 283.16536535664596 711.28198 283.3067 C 708.31335 284.85916 704.21771 283.22064 700.93498 279.55444 C 699.8077261560625 278.27940693687583 698.8402883148959 276.87157039253003 698.05412 275.36215 C 697.2672579287945 273.87211328839174 696.6675786635977 272.2905339596247 696.26872 270.65337999999997 C 701.6453407945847 267.8799672186153 708.2524078154419 269.9726815380478 711.05188 275.33578 Z" transform="translate(-704.29, -276.66)" style="stroke: none; stroke-width: 1; stroke-dasharray: none; stroke-linecap: butt; stroke-dashoffset: 0; stroke-linejoin: miter; stroke-miterlimit: 4; fill: rgb(63,61,86); fill-rule: nonzero; opacity: 1;"/>
</g>
		<g transform="matrix(1 0 0 1 93.55 -223.94)">
<path stroke-linecap="round" d="M 741.84723 252.46 C 745.08191 258.64524 744.7860099999999 265.24366000000003 741.2727699999999 267.58881 C 741.1262284716178 267.6882422962435 740.9740576117694 267.779114092659 740.81702 267.86097 C 736.88257 269.91856 730.9582499999999 266.35862000000003 727.5892299999999 259.91642 C 726.8038870052688 258.42931572592045 726.2057476172791 256.8506699071585 725.8084699999999 255.21653 C 724.64734 250.40695 725.63312 246.07713 728.6106 244.52003000000002 C 732.55383 242.45785 738.47815 246.01777 741.84723 252.46 Z" transform="translate(-734.72, -256.19)" style="stroke: none; stroke-width: 1; stroke-dasharray: none; stroke-linecap: butt; stroke-dashoffset: 0; stroke-linejoin: miter; stroke-miterlimit: 4; fill: rgb(255,255,255); fill-rule: nonzero; opacity: 1;"/>
</g>
		<g transform="matrix(1 0 0 1 92.52 -218.84)">
<path stroke-linecap="round" d="M 740.29449 260.043 C 741.5123183723405 262.36040125868675 741.8593899582844 265.0374908295284 741.27277 267.58883000000003 C 741.1262284716179 267.6882622962435 740.9740576117695 267.779134092659 740.8170200000001 267.86099 C 736.8825700000001 269.91858 730.95825 266.35864000000004 727.58923 259.91644 C 726.803887005269 258.42933572592045 726.2057476172793 256.8506899071585 725.80847 255.21655 C 731.1489700984483 252.661528789519 737.5536527519068 254.79544000825157 740.29449 260.043 Z" transform="translate(-733.68, -261.29)" style="stroke: none; stroke-width: 1; stroke-dasharray: none; stroke-linecap: butt; stroke-dashoffset: 0; stroke-linejoin: miter; stroke-miterlimit: 4; fill: rgb(63,61,86); fill-rule: nonzero; opacity: 1;"/>
</g>
		<g transform="matrix(1 0 0 1 92.63 -169.64)">
<path stroke-linecap="round" d="M 708.58124 311.61105 C 717.53912 328.74010999999996 734.91772 337.33522999999997 747.39746 330.80877 C 759.8772 324.28231 762.73224 305.10577 753.77435 287.97677 C 743.934 302.324 729.031 310.402 708.58124 311.61105 Z" transform="translate(-733.79, -310.48)" style="stroke: none; stroke-width: 1; stroke-dasharray: none; stroke-linecap: butt; stroke-dashoffset: 0; stroke-linejoin: miter; stroke-miterlimit: 4; fill: rgb(255,255,255); fill-rule: nonzero; opacity: 1;"/>
</g>
		<g transform="matrix(1 0 0 1 142.89 -195.2)">
<path stroke-linecap="round" d="M 818.48193 249.69211 C 803.6509775999256 221.33405157053716 772.6646592571165 205.28281905741875 740.94525 209.52731 C 778.7593391083781 214.50331403224283 807.0470379199934 246.7065697831656 807.106559694914 284.84660659992244 C 807.1660814698348 322.98664341667927 778.9790337367418 355.27803429889957 741.18066 360.37203999999997 C 769.3280414686473 364.07014972949185 797.1923044324387 351.7852366707776 813.4478239209966 328.510589836292 C 829.7033434095545 305.2359430018065 831.6443584980436 274.84566989013877 818.48193 249.69210999999993 Z" transform="translate(-784.05, -284.94)" style="stroke: none; stroke-width: 1; stroke-dasharray: none; stroke-linecap: butt; stroke-dashoffset: 0; stroke-linejoin: miter; stroke-miterlimit: 4; fill: rgb(0,0,0); fill-rule: nonzero; opacity: 0.2;"/>
</g>
</g>
</g>
</svg>