<svg xml:space="preserve" viewBox="244.08 278.64 548.64 552.96" version="1.1" xmlns:xlink="http://www.w3.org/1999/xlink" xmlns="http://www.w3.org/2000/svg" style="max-height: 500px" width="548.64" height="552.96">
<desc>Created with Fabric.js 5.2.4</desc>
<defs>
</defs>
<rect fill="transparent" height="100%" width="100%" y="0" x="0"/>
<g id="c1598fd4-82ef-4813-88a4-d60a3005fa16" transform="matrix(1 0 0 1 540 540)">
<rect height="1080" width="1080" ry="0" rx="0" y="-540" x="-540" style="stroke: none; stroke-width: 1; stroke-dasharray: none; stroke-linecap: butt; stroke-dashoffset: 0; stroke-linejoin: miter; stroke-miterlimit: 4; fill: rgb(255,255,255); fill-rule: nonzero; opacity: 1; visibility: hidden;"/>
</g>
<g id="0cf3c906-6552-4269-97a1-b7aba124f584" transform="matrix(1 0 0 1 540 540)">
</g>
<g id="4ef52fee-c0db-4371-8565-e36d9dfbc765" transform="matrix(-2.47 -2.47 2.57 -2.57 558.41 582.66)">
<path stroke-linecap="round" d="M 47.9 -62.4 C 58.2 -48.5 60.1 -29.7 59.8 -13.2 C 59.5 3.3 57.2 17.5 52.2 34.1 C 47.3 50.7 39.8 69.8 26.3 76.8 C 12.7 83.7 -7 78.5 -22.3 69.4 C -37.6 60.3 -48.5 47.3 -59.4 32.4 C -70.2 17.5 -81 0.7 -79 -14.4 C -76.9 -29.6 -62.1 -42.9 -46.8 -56 C -31.5 -69.1 -15.8 -81.9 1.5 -83.7 C 18.8 -85.5 37.6 -76.4 47.9 -62.4 Z" transform="translate(9.71, 1.98)" style="stroke: rgb(0,0,0); stroke-width: 0; stroke-dasharray: none; stroke-linecap: butt; stroke-dashoffset: 0; stroke-linejoin: miter; stroke-miterlimit: 4; fill: rgb(238,247,255); fill-rule: nonzero; opacity: 1;"/>
</g>
<g transform="matrix(0.73 0 0 0.73 533.78 609.33)">
<g style="">
		<g transform="matrix(1 0 0 1 230.76 187.1)">
<polygon points="6.63,17.32 -2.36,17.32 -6.63,-17.32 6.63,-17.32 6.63,17.32" style="stroke: none; stroke-width: 1; stroke-dasharray: none; stroke-linecap: butt; stroke-dashoffset: 0; stroke-linejoin: miter; stroke-miterlimit: 4; fill: rgb(158,97,106); fill-rule: nonzero; opacity: 1;"/>
</g>
		<g transform="matrix(1 0 0 1 225.2 207.31)">
<path stroke-linecap="round" d="M 839.67527 663.12563 L 810.71889 663.12456 L 810.71889 662.7583 C 810.7193317796041 656.5339166665818 815.7651366600187 651.4881968482202 821.98952 651.48786 L 821.99024 651.48786 L 839.6758 651.48857 Z" transform="translate(-825.2, -657.31)" style="stroke: none; stroke-width: 1; stroke-dasharray: none; stroke-linecap: butt; stroke-dashoffset: 0; stroke-linejoin: miter; stroke-miterlimit: 4; fill: rgb(47,46,65); fill-rule: nonzero; opacity: 1;"/>
</g>
		<g transform="matrix(1 0 0 1 163.93 185.74)">
<polygon points="0.35,18.38 -8.39,16.3 -4.51,-18.38 8.39,-15.31 0.35,18.38" style="stroke: none; stroke-width: 1; stroke-dasharray: none; stroke-linecap: butt; stroke-dashoffset: 0; stroke-linejoin: miter; stroke-miterlimit: 4; fill: rgb(158,97,106); fill-rule: nonzero; opacity: 1;"/>
</g>
		<g transform="matrix(1 0 0 1 151.76 205.26)">
<path stroke-linecap="round" d="M 764.48915 663.12563 L 736.3231499999999 656.40654 L 736.40815 656.0502899999999 C 737.8526672198552 649.9958409866218 743.9314312511058 646.2584463188119 749.98606 647.7022099999999 L 749.98676 647.70237 L 767.1896 651.8062199999999 Z" transform="translate(-751.76, -655.26)" style="stroke: none; stroke-width: 1; stroke-dasharray: none; stroke-linecap: butt; stroke-dashoffset: 0; stroke-linejoin: miter; stroke-miterlimit: 4; fill: rgb(47,46,65); fill-rule: nonzero; opacity: 1;"/>
</g>
		<g transform="matrix(1 0 0 1 198.17 -107.65)">
<circle r="18.99444" cy="0" cx="0" style="stroke: none; stroke-width: 1; stroke-dasharray: none; stroke-linecap: butt; stroke-dashoffset: 0; stroke-linejoin: miter; stroke-miterlimit: 4; fill: rgb(158,97,106); fill-rule: nonzero; opacity: 1;"/>
</g>
		<g transform="matrix(1 0 0 1 198.74 107.79)">
<path stroke-linecap="round" d="M 843.02656 477.81507 C 843.02656 477.81507 851.86879 488.29476 840.73414 504.34177999999997 C 829.5994900000001 520.3888 819.31314 536.1083199999999 819.31314 536.1083199999999 L 794.4238799999999 583.26694 L 767.85067 645.899 C 767.85067 645.899 751.80367 641.31412 751.14867 639.34918 C 750.4936700000001 637.3842400000001 770.1896700000001 574.42465 770.1896700000001 574.42465 C 770.1896700000001 574.42465 774.0171200000001 549.3185000000001 778.27448 541.1312700000001 C 782.53184 532.9440400000001 793.2126900000001 470.3751700000001 803.36486 469.7201800000001 C 813.51703 469.0651900000001 843.02656 477.81507 843.02656 477.81507 Z" transform="translate(-798.74, -557.79)" style="stroke: none; stroke-width: 1; stroke-dasharray: none; stroke-linecap: butt; stroke-dashoffset: 0; stroke-linejoin: miter; stroke-miterlimit: 4; fill: rgb(47,46,65); fill-rule: nonzero; opacity: 1;"/>
</g>
		<g transform="matrix(1 0 0 1 229.6 120.82)">
<path stroke-linecap="round" d="M 841.32206 496.482 L 842.49794 547.243 C 842.49794 547.243 848.0974199999999 590.4010000000001 844.82255 605.4656200000001 C 841.54768 620.53024 840.20555 645.1626200000001 840.20555 645.1626200000001 L 823.50355 643.5251700000001 L 822.19366 584.9044500000001 C 822.19366 584.9044500000001 817.60878 575.0797600000001 818.91875 570.8223700000001 C 820.2287200000001 566.5649800000001 813.3514200000001 531.5235400000001 813.3514200000001 531.5235400000001 Z" transform="translate(-829.6, -570.82)" style="stroke: none; stroke-width: 1; stroke-dasharray: none; stroke-linecap: butt; stroke-dashoffset: 0; stroke-linejoin: miter; stroke-miterlimit: 4; fill: rgb(47,46,65); fill-rule: nonzero; opacity: 1;"/>
</g>
		<g transform="matrix(1 0 0 1 213.12 -28.25)">
<path stroke-linecap="round" d="M 785.91109 479.45294 C 795.7355399999999 489.92994 844.6632999999999 481.08721 844.6632999999999 481.08721 L 844.0110099999999 473.55565 L 844.6946399999999 466.68288 L 842.73092 434.58664 C 841.9754566437294 421.7226170595158 841.9073764076882 408.8274325653212 842.5269699999999 395.9561500000002 C 842.5864667708126 394.54705694329846 842.5014833311469 393.1355752302011 842.27335 391.74379999999996 C 838.89741 371.20779999999996 821.54187 358.62501 820.62327 358.93537999999995 C 820.1608600000001 359.08737999999994 815.23904 361.65286 810.10199 364.35124999999994 C 804.20467 367.44875999999994 798.02867 370.72362999999996 798.02867 370.72362999999996 C 790.16767 373.67544999999996 791.47905 420.83476999999993 788.8565100000001 425.09146 C 786.2339700000001 429.34815000000003 788.8565100000001 444.08189999999996 788.8565100000001 444.08189999999996 L 785.9110900000001 458.16315999999995 C 785.9110900000001 458.16315999999995 776.08636 468.97591 785.91109 479.45294 Z" transform="translate(-813.12, -421.75)" style="stroke: none; stroke-width: 1; stroke-dasharray: none; stroke-linecap: butt; stroke-dashoffset: 0; stroke-linejoin: miter; stroke-miterlimit: 4; fill: rgb(202,202,202); fill-rule: nonzero; opacity: 1;"/>
</g>
		<g transform="matrix(1 0 0 1 207.23 -9.36)">
<path stroke-linecap="round" d="M 817.65087 375.48733 C 817.65087 375.48733 826.82059 402.99649 824.8556500000001 421.66345 C 822.8907100000001 440.33041000000003 801.6038500000001 493.71129 801.6038500000001 493.71129 L 794.3990600000001 497.64116 L 794.3990600000001 506.81088 L 789.3316000000001 493.08451 L 803.26718 463.94646 C 803.26718 463.94646 785.88435 363.37018 817.65087 375.48733 Z" transform="translate(-807.23, -440.64)" style="stroke: none; stroke-width: 1; stroke-dasharray: none; stroke-linecap: butt; stroke-dashoffset: 0; stroke-linejoin: miter; stroke-miterlimit: 4; fill: rgb(0,0,0); fill-rule: nonzero; opacity: 0.1;"/>
</g>
		<g transform="matrix(1 0 0 1 195.74 -112.86)">
<path stroke-linecap="round" d="M 804.41955 350.43161 C 804.325054074206 349.25059087403366 804.0667423671985 348.08845575618864 803.6520399999999 346.97861 C 802.81842 345.40968 800.90279 344.75237 799.13281 344.59826 C 796.8731499999999 344.40152 794.59606 344.79285 792.33318 344.63788999999997 C 790.0703 344.48292999999995 787.65264 343.62073 786.52631 341.65189 C 786.183907032089 340.81514314298937 785.7595038618527 340.0143509701741 785.2593099999999 339.26122999999995 C 784.0187999999999 337.84416999999996 781.75812 338.06391999999994 779.9753699999999 338.67115999999993 C 778.1926199999998 339.2783999999999 776.3336999999999 340.1656499999999 774.5113199999998 339.6904199999999 C 772.9790999999998 335.4033199999999 774.8657299999999 330.4580399999999 778.1290699999998 327.2835499999999 C 781.3924099999998 324.10905999999983 785.7939599999999 322.4008399999999 790.1649899999999 321.12754999999987 C 795.9304299999999 319.4480999999999 802.4188399999998 318.45554999999985 807.7197499999999 321.2770599999999 C 815.4064299999999 325.3684899999999 818.1189299999999 336.1970599999999 817.4099499999999 344.2684399999999 C 817.1419499999998 347.3192799999999 816.7033799999998 350.7740799999999 814.2370299999999 352.83409999999986 C 810.62248 355.85315 805.5108 355.59389 804.41955 350.43161 Z" transform="translate(-795.74, -337.14)" style="stroke: none; stroke-width: 1; stroke-dasharray: none; stroke-linecap: butt; stroke-dashoffset: 0; stroke-linejoin: miter; stroke-miterlimit: 4; fill: rgb(47,46,65); fill-rule: nonzero; opacity: 1;"/>
</g>
		<g transform="matrix(1 0 0 1 185.77 52.08)">
<path stroke-linecap="round" d="M 786.837 519.88789 C 788.6235867867987 518.4545859457506 789.683542076766 516.3035473335901 789.7316496714988 514.0135825919357 C 789.7797572662316 511.72361785028136 788.8110753549321 509.52996161411846 787.08626 508.02288999999996 L 797.3935 482.52370999999994 L 783.38284 485.3470699999999 L 775.7429 509.1286799999999 C 773.3506415465321 512.2628573593588 773.6806477949723 516.6909741979666 776.511049897142 519.435931787464 C 779.3414519993117 522.1808893769614 783.7776018545719 522.3750473591477 786.837 519.8878699999999 Z" transform="translate(-785.77, -502.08)" style="stroke: none; stroke-width: 1; stroke-dasharray: none; stroke-linecap: butt; stroke-dashoffset: 0; stroke-linejoin: miter; stroke-miterlimit: 4; fill: rgb(158,97,106); fill-rule: nonzero; opacity: 1;"/>
</g>
		<g transform="matrix(1 0 0 1 201.28 -13.76)">
<path stroke-linecap="round" d="M 816.69327 371.05327 C 816.69327 371.05327 825.8629999999999 398.56245 823.89806 417.2294 C 821.93312 435.89635 800.64625 489.27723000000003 800.64625 489.27723000000003 L 793.44147 493.2071 L 793.44147 502.37682 L 778.37694 498.11945000000003 L 781.65185 487.31227 C 781.65185 487.31227 776.4119999999999 480.76247 780.0143899999999 478.79754 C 783.61678 476.83261000000005 782.96182 466.02542000000005 782.96182 466.02542000000005 C 782.96182 466.02542000000005 784.92672 358.93614 816.69327 371.05327 Z" transform="translate(-801.28, -436.24)" style="stroke: none; stroke-width: 1; stroke-dasharray: none; stroke-linecap: butt; stroke-dashoffset: 0; stroke-linejoin: miter; stroke-miterlimit: 4; fill: rgb(202,202,202); fill-rule: nonzero; opacity: 1;"/>
</g>
		<g transform="matrix(1 0 0 1 -141.39 -1.08)">
<path stroke-linecap="round" d="M 621.68441 663.34961 L 295.53748 663.34961 L 295.53748 234.5 L 621.68441 234.5 Z" transform="translate(-458.61, -448.92)" style="stroke: none; stroke-width: 1; stroke-dasharray: none; stroke-linecap: butt; stroke-dashoffset: 0; stroke-linejoin: miter; stroke-miterlimit: 4; fill: rgb(255,255,255); fill-rule: nonzero; opacity: 1;"/>
</g>
		<g transform="matrix(1 0 0 1 -141.39 -1.08)">
<path stroke-linecap="round" d="M 621.68441 663.34961 L 295.53748 663.34961 L 295.53748 234.5 L 621.68441 234.5 Z M 298.4406 660.44649 L 618.78129 660.44649 L 618.78129 237.40312 L 298.4406 237.40312 Z" transform="translate(-458.61, -448.92)" style="stroke: none; stroke-width: 1; stroke-dasharray: none; stroke-linecap: butt; stroke-dashoffset: 0; stroke-linejoin: miter; stroke-miterlimit: 4; fill: rgb(228,228,228); fill-rule: nonzero; opacity: 1;"/>
</g>
		<g transform="matrix(1 0 0 1 -141.93 -99.45)">
<rect height="15.13516" width="227.02744" ry="0" rx="0" y="-7.56758" x="-113.51372" style="stroke: none; stroke-width: 1; stroke-dasharray: none; stroke-linecap: butt; stroke-dashoffset: 0; stroke-linejoin: miter; stroke-miterlimit: 4; fill: rgb(228,228,228); fill-rule: nonzero; opacity: 1;"/>
</g>
		<g transform="matrix(1 0 0 1 -130.58 -157.29)">
<rect height="7.56758" width="145.94621" ry="0" rx="0" y="-3.78379" x="-72.973105" style="stroke: none; stroke-width: 1; stroke-dasharray: none; stroke-linecap: butt; stroke-dashoffset: 0; stroke-linejoin: miter; stroke-miterlimit: 4; fill: rgb(228,228,228); fill-rule: nonzero; opacity: 1;"/>
</g>
		<g transform="matrix(1 0 0 1 -141.93 -65.94)">
<rect height="15.13516" width="227.02744" ry="0" rx="0" y="-7.56758" x="-113.51372" style="stroke: none; stroke-width: 1; stroke-dasharray: none; stroke-linecap: butt; stroke-dashoffset: 0; stroke-linejoin: miter; stroke-miterlimit: 4; fill: rgb(228,228,228); fill-rule: nonzero; opacity: 1;"/>
</g>
		<g transform="matrix(1 0 0 1 -141.93 -32.43)">
<rect height="15.13517" width="227.02744" ry="0" rx="0" y="-7.567585" x="-113.51372" style="stroke: none; stroke-width: 1; stroke-dasharray: none; stroke-linecap: butt; stroke-dashoffset: 0; stroke-linejoin: miter; stroke-miterlimit: 4; fill: rgb(228,228,228); fill-rule: nonzero; opacity: 1;"/>
</g>
		<g transform="matrix(1 0 0 1 -243.55 -157.83)">
<circle r="14.05408" cy="0" cx="0" style="stroke: none; stroke-width: 1; stroke-dasharray: none; stroke-linecap: butt; stroke-dashoffset: 0; stroke-linejoin: miter; stroke-miterlimit: 4; fill: rgb(77,134,156); fill-rule: nonzero; opacity: 1;"/>
</g>
		<g transform="matrix(1 0 0 1 -143.01 79.95)">
<rect height="139.45972" width="229.18961" ry="0" rx="0" y="-69.72986" x="-114.594805" style="stroke: none; stroke-width: 1; stroke-dasharray: none; stroke-linecap: butt; stroke-dashoffset: 0; stroke-linejoin: miter; stroke-miterlimit: 4; fill: rgb(77,134,156); fill-rule: nonzero; opacity: 1;"/>
</g>
		<g transform="matrix(1 0 0 1 -244.69 178.84)">
<path stroke-linecap="round" d="M 355.31844 619.24973 C 352.36599200157457 616.2915327173288 347.57446728267115 616.2868720015746 344.61627 619.23932 C 341.6580727173288 622.1917679984255 341.65341200157457 626.9832927173288 344.60586 629.94149 L 355.29762 640.6540600000001 L 366.0102 629.9623100000001 C 368.96839728267116 627.0098620015747 368.9730579984255 622.2183372826713 366.02061000000003 619.2601400000001 C 363.0681620015746 616.301942717329 358.2766372826712 616.2972820015747 355.31844 619.2497300000001 Z" transform="translate(-355.31, -628.84)" style="stroke: none; stroke-width: 1; stroke-dasharray: none; stroke-linecap: butt; stroke-dashoffset: 0; stroke-linejoin: miter; stroke-miterlimit: 4; fill: rgb(255,101,130); fill-rule: nonzero; opacity: 1;"/>
</g>
		<g transform="matrix(1 0 0 1 0 214.5)">
<path stroke-linecap="round" d="M 984 665.5 L 216 665.5 C 215.4477152501692 665.5 215 665.0522847498308 215 664.5 C 215 663.9477152501692 215.4477152501692 663.5 216 663.5 L 984 663.5 C 984.5522847498308 663.5 985 663.9477152501692 985 664.5 C 985 665.0522847498308 984.5522847498308 665.5 984 665.5 Z" transform="translate(-600, -664.5)" style="stroke: none; stroke-width: 1; stroke-dasharray: none; stroke-linecap: butt; stroke-dashoffset: 0; stroke-linejoin: miter; stroke-miterlimit: 4; fill: rgb(202,202,202); fill-rule: nonzero; opacity: 1;"/>
</g>
</g>
</g>
</svg>