<svg viewBox="181.13207547169813 183.86784 717.7358490566038 717.35832" xml:space="preserve" version="1.1" xmlns:xlink="http://www.w3.org/1999/xlink" xmlns="http://www.w3.org/2000/svg" style="max-height: 500px" width="717.7358490566038" height="717.35832">
<desc>Created with Fabric.js 5.2.4</desc>
<defs>
</defs>
<g id="206ffade-4e05-47c4-880d-7c95d989e0d7" transform="matrix(1 0 0 1 540 540)">
<rect height="1080" width="1080" ry="0" rx="0" y="-540" x="-540" style="stroke: none; stroke-width: 1; stroke-dasharray: none; stroke-linecap: butt; stroke-dashoffset: 0; stroke-linejoin: miter; stroke-miterlimit: 4; fill: rgb(255,255,255); fill-rule: nonzero; opacity: 1; visibility: hidden;"/>
</g>
<g id="7298ea92-13f7-45cd-8bb6-d8e31a5f8c28" transform="matrix(1 0 0 1 540 540)">
</g>
<g transform="matrix(1 0 0 1 540 488.52)">
<g style="">
		<g transform="matrix(1 0 0 1 0 0)">
<rect height="1080" width="1080" ry="0" rx="0" y="-540" x="-540" style="stroke: none; stroke-width: 1; stroke-dasharray: none; stroke-linecap: butt; stroke-dashoffset: 0; stroke-linejoin: miter; stroke-miterlimit: 4; fill: rgb(255,255,255); fill-rule: nonzero; opacity: 1; visibility: hidden;"/>
</g>
		<g transform="matrix(9.86 0 0 9.86 0 53.23)">
<circle r="35" cy="0" cx="0" style="stroke: rgb(77,134,156); stroke-width: 0; stroke-dasharray: none; stroke-linecap: butt; stroke-dashoffset: 0; stroke-linejoin: miter; stroke-miterlimit: 4; fill: rgb(255,255,255); fill-rule: nonzero; opacity: 1;"/>
</g>
		<g transform="matrix(0.68 0 0 0.74 -25.23 -6.48)">
<path stroke-linecap="round" d="M 605.66974 324.95306 C 598.0004 312.2686 588.91254 298.72538 574.6802 294.58353 C 558.1982 289.78703 541.267 299.31546 526.90547 308.71806 C 483.9562265494559 336.8381985563081 442.5952580801587 367.31244854843334 403.01209000000097 400.00116999999915 L 403.0554000000001 400.49355 Q 449.28096000000005 397.30575000000005 495.5064000000001 394.11801 C 517.7717200000001 392.58255 540.8019700000001 390.83531000000005 560.4783500000001 380.30241 C 567.94487 376.30558 575.2231 370.96662000000003 583.6839000000001 370.59459 C 594.1956500000001 370.13241999999997 603.3612300000001 377.47382 610.5641 385.1439 C 653.17141 430.51489999999995 665.5011000000001 499.89799 713.30227 539.75981 C 683.1603379438857 465.4245362060579 647.1699767909083 393.5970644315179 605.6697399999999 324.9530599999997 Z" transform="translate(-558.16, -416.53)" style="stroke: none; stroke-width: 1; stroke-dasharray: none; stroke-linecap: butt; stroke-dashoffset: 0; stroke-linejoin: miter; stroke-miterlimit: 4; fill: rgb(242,242,242); fill-rule: nonzero; opacity: 1;"/>
</g>
		<g transform="matrix(0.68 0 0 0.74 -6.8 45.65)">
<path stroke-linecap="round" d="M 867.57068 709.78146 C 862.85901 703.8318800000001 860.9337800000001 702.4384600000001 856.28611 696.43385 Q 799.52171 623.01747 749.5782 544.64148 Q 715.65466 491.41148 685.09545 436.13709 Q 670.54681 409.85899 656.79584 383.16837 Q 646.1254 362.47317 635.93124 341.53044 C 633.98766 337.54262 632.09914 333.53651 630.22002 329.52121999999997 C 625.79214 320.0789 621.44661 310.59074999999996 616.78059 301.27673 C 611.4637299999999 290.66101 604.99159 279.53188 595.228 272.39973 C 590.7848227194062 269.0207015040837 585.4716246278633 266.9761821986372 579.90945 266.50514999999996 C 571.96145 265.99179 564.62761 269.27369999999996 557.73377 272.8581 C 507.2951800000001 299.15909999999997 460.07455000000004 332.13399 417.36417000000006 369.65581 C 374.5442272864959 407.26185894162796 336.2702264754712 449.74768677161546 303.32241 496.24719000000016 C 302.31441 497.68646 299.93077 496.31136 300.94822 494.86296999999996 Q 306.95754999999997 486.36478999999997 313.20502999999997 478.05008999999995 C 364.993763724917 409.17241378643337 428.49451700105783 349.9413467534867 500.8046500000001 303.0643600000002 Q 519.0528899999999 291.23855000000003 537.98734 280.52191000000005 C 544.3494000000001 276.91916000000003 550.73922 273.36224000000004 557.2387 270.02538000000004 C 563.61016 266.75264000000004 570.37553 263.80991000000006 577.65433 263.69991000000005 C 602.4244299999999 263.31491000000005 615.2497199999999 291.36686000000003 624.05939 310.24239000000006 Q 628.21222 319.15299000000005 632.46575 328.00865000000005 Q 648.5405499999999 361.62971000000005 665.85304 394.63665000000003 Q 676.53757 415.01565000000005 687.6898699999999 435.1562 Q 722.3969699999999 497.87436 761.46841 558.0532000000001 C 795.97431 611.1961000000001 830.2049199999999 658.1419400000001 869.5142599999999 707.83792 C 870.59617 709.21309 868.662 711.17491 867.57068 709.78146 Z" transform="translate(-585.27, -486.98)" style="stroke: none; stroke-width: 1; stroke-dasharray: none; stroke-linecap: butt; stroke-dashoffset: 0; stroke-linejoin: miter; stroke-miterlimit: 4; fill: rgb(228,228,228); fill-rule: nonzero; opacity: 1;"/>
</g>
		<g transform="matrix(0.68 0 0 0.74 -197.49 -49.66)">
<path stroke-linecap="round" d="M 414.91613 355.804 C 413.47702 354.19971999999996 412.04686000000004 352.59544 410.59836 350.99116 C 399.17592 338.35857 386.91956 325.87269 371.23396 318.63049 C 363.7550000519442 315.0683155257249 355.5906202641658 313.1758156765361 347.30717000000004 313.08427 C 338.74504 313.1118 330.37539000000004 315.35775 322.46411000000006 318.50219 C 318.72377000000006 319.99645999999996 315.0658000000001 321.69239 311.46333000000004 323.49833 C 307.34699000000006 325.57015 303.30406000000005 327.77951 299.27993000000004 330.00716 Q 287.94881000000004 336.2776 276.91177000000005 343.09805 Q 254.95117000000005 356.67026 234.36611000000005 372.31428 Q 223.69500000000005 380.42739 213.46437000000006 389.07216 Q 203.94880000000006 397.10269999999997 194.81819000000007 405.56416 C 193.51650000000006 406.76507000000004 191.57292000000007 404.82161 192.87461000000008 403.62069 C 194.47889000000006 402.12641 196.10152000000008 400.64131000000003 197.72416000000007 399.17456000000004 Q 204.59963000000008 392.95910000000003 211.69536000000008 386.98199000000005 Q 224.63457000000008 376.06372000000005 238.24387000000007 365.9888700000001 Q 259.4068000000001 350.3127300000001 282.02675000000005 336.76346000000007 Q 293.33036000000004 329.9980100000001 304.94504000000006 323.8008700000001 C 307.28298000000007 322.55412000000007 309.64822000000004 321.3348700000001 312.0407600000001 320.1797700000001 C 317.46966442682816 317.44135972753963 323.1105318198023 315.1451462625869 328.90853000000004 313.31345000000016 C 337.12166944930027 310.6565196295721 345.8113719479241 309.80288154046144 354.3845300000001 310.8108000000001 C 362.66221736530224 312.01485038270386 370.63744934237985 314.77381529325993 377.88965 318.94220000000007 C 393.2905600000001 327.55032000000006 405.2353800000001 340.86120000000005 416.8596500000001 353.8513500000001 C 418.03337 355.17141 416.09875 357.12405 414.91613 355.804 Z" transform="translate(-304.83, -358.17)" style="stroke: none; stroke-width: 1; stroke-dasharray: none; stroke-linecap: butt; stroke-dashoffset: 0; stroke-linejoin: miter; stroke-miterlimit: 4; fill: rgb(228,228,228); fill-rule: nonzero; opacity: 1;"/>
</g>
		<g transform="matrix(0.68 0 0 0.74 185.58 107.23)">
<path stroke-linecap="round" d="M 730.47659 486.71092 L 767.38121 473.21292 L 785.70448 466.51109 C 791.67206 464.32842000000005 797.6253 461.84362000000004 803.79436 460.28073 C 809.155415397576 458.7493617892737 814.8476217750652 458.82188774541714 820.16792 460.48935 C 824.9125482784068 462.2454991278608 829.2556226418105 464.9377427336695 832.9389199999999 468.40601 C 836.7018245509903 471.8712047435074 840.2030172331946 475.61023414014824 843.41379 479.5924399999999 C 847.40311 484.38669999999996 851.3335 489.23121 855.2815099999999 494.05949999999996 Q 879.72287 523.95044 903.84458 554.10084 Q 927.96575 584.2507499999999 951.7643899999999 614.65684 Q 975.6211999999999 645.13725 999.14987 675.87257 Q 1002.03216 679.63775 1004.90953 683.40672 C 1005.96933 684.79481 1008.35902 683.42634 1007.28425 682.01864 Q 983.582 650.9742 959.54931 620.184 Q 935.45754 589.32017 911.03284 558.71814 Q 886.60863 528.11673 861.8543099999999 497.78070999999994 Q 855.68725 490.22309999999993 849.4998599999999 482.6821299999999 C 846.02033 478.44139999999993 842.5800299999999 474.15494999999993 838.7635799999999 470.2078599999999 C 831.7581899999999 462.9626999999999 823.00586 456.5599199999999 812.5292099999999 456.3861999999999 C 806.3694899999999 456.2840599999999 800.4082099999999 458.23867999999993 794.6852099999999 460.3090699999999 C 788.5155299999999 462.54106999999993 782.3606599999998 464.8147799999999 776.1988799999999 467.0684799999999 L 739.0361899999999 480.6609099999999 L 729.7455199999999 484.0590099999999 C 728.09677 484.6620099999999 728.80901 487.3209099999999 730.4766299999999 486.7110099999999 Z" transform="translate(-868.18, -570.18)" style="stroke: none; stroke-width: 1; stroke-dasharray: none; stroke-linecap: butt; stroke-dashoffset: 0; stroke-linejoin: miter; stroke-miterlimit: 4; fill: rgb(228,228,228); fill-rule: nonzero; opacity: 1;"/>
</g>
		<g transform="matrix(0.68 0 0 0.74 -163.34 -59.44)">
<path stroke-linecap="round" d="M 366.37741 334.52609 C 347.6233 324.88743 323.60604 326.77522 306.37233 338.81728 C 339.2443307467438 344.48851184801975 371.7566539177397 352.0767282354232 403.7428899999998 361.54309 C 390.4603 353.75916 380.07013 341.5635 366.37741 334.52609 Z" transform="translate(-355.06, -344.96)" style="stroke: none; stroke-width: 1; stroke-dasharray: none; stroke-linecap: butt; stroke-dashoffset: 0; stroke-linejoin: miter; stroke-miterlimit: 4; fill: rgb(242,242,242); fill-rule: nonzero; opacity: 1;"/>
</g>
		<g transform="matrix(0.68 0 0 0.74 -197.73 -62.92)">
<path stroke-linecap="round" d="M 306.18775 338.7841 L 302.57733 341.71872 C 303.79856 340.69159 305.06813 339.72859 306.37233000000003 338.81728000000004 C 306.31073 338.80665 306.24935 338.79473 306.18775 338.7841 Z" transform="translate(-304.47, -340.25)" style="stroke: none; stroke-width: 1; stroke-dasharray: none; stroke-linecap: butt; stroke-dashoffset: 0; stroke-linejoin: miter; stroke-miterlimit: 4; fill: rgb(242,242,242); fill-rule: nonzero; opacity: 1;"/>
</g>
		<g transform="matrix(0.68 0 0 0.74 200.49 102.43)">
<path stroke-linecap="round" d="M 831.54929 486.84576 C 827.9164900000001 482.42368999999997 823.98883 477.79354 818.5550800000001 475.99739999999997 L 813.4820000000001 476.19748 C 852.0998347099654 544.4363752441487 904.2560491481798 604.0631815581081 966.7492899999999 651.4179999999999 Q 899.14929 569.13192 831.54929 486.84576 Z" transform="translate(-890.12, -563.71)" style="stroke: none; stroke-width: 1; stroke-dasharray: none; stroke-linecap: butt; stroke-dashoffset: 0; stroke-linejoin: miter; stroke-miterlimit: 4; fill: rgb(242,242,242); fill-rule: nonzero; opacity: 1;"/>
</g>
		<g transform="matrix(0.68 0 0 0.74 -47.42 33.26)">
<path stroke-linecap="round" d="M 516.08388 450.36652 C 518.4315483145778 458.8958949737903 523.7205122780866 466.31995944205767 531.015 471.32518 C 533.83517 473.24529 537.1718099999999 475.08727 538.13658 478.35981 C 538.6440908178733 480.44599131855404 538.3313718180651 482.6473953350839 537.26296 484.50971 C 536.1964582704384 486.3481741767831 534.8988077272173 488.04242333873503 533.4017 489.55107999999996 L 533.26503 490.06307999999996 C 526.2666 485.91576999999995 519.60862 480.66967999999997 515.74276 473.51192999999995 C 511.8769 466.35417999999993 511.33723 456.97297999999995 516.0839199999999 450.36648999999994" transform="translate(-525.53, -470.21)" style="stroke: none; stroke-width: 1; stroke-dasharray: none; stroke-linecap: butt; stroke-dashoffset: 0; stroke-linejoin: miter; stroke-miterlimit: 4; fill: rgb(242,242,242); fill-rule: nonzero; opacity: 1;"/>
</g>
		<g transform="matrix(0.68 0 0 0.74 111.02 183.48)">
<path stroke-linecap="round" d="M 749.08388 653.36652 C 751.4315483145778 661.8958949737903 756.7205122780866 669.3199594420577 764.015 674.32518 C 766.83517 676.2452900000001 770.1718099999999 678.08727 771.13658 681.35981 C 771.6440908178733 683.4459913185541 771.3313718180651 685.647395335084 770.26296 687.50971 C 769.1964582704384 689.3481741767831 767.8988077272173 691.0424233387351 766.4017 692.5510800000001 L 766.26503 693.06308 C 759.2666 688.9157700000001 752.60862 683.66968 748.74276 676.51193 C 744.8769 669.35418 744.33723 659.97298 749.0839199999999 653.36649" transform="translate(-758.53, -673.21)" style="stroke: none; stroke-width: 1; stroke-dasharray: none; stroke-linecap: butt; stroke-dashoffset: 0; stroke-linejoin: miter; stroke-miterlimit: 4; fill: rgb(242,242,242); fill-rule: nonzero; opacity: 1;"/>
</g>
		<g transform="matrix(0.68 0 0 0.74 -205.18 173.12)">
<path stroke-linecap="round" d="M 284.08388 639.36652 C 286.43154831457775 647.8958949737903 291.7205122780867 655.3199594420577 299.015 660.32518 C 301.83517 662.2452900000001 305.17181 664.08727 306.13658 667.35981 C 306.6440908178733 669.4459913185541 306.33137181806507 671.647395335084 305.26295999999996 673.50971 C 304.19645827043837 675.3481741767831 302.8988077272172 677.0424233387351 301.40169999999995 678.5510800000001 L 301.26502999999997 679.06308 C 294.2666 674.9157700000001 287.60862 669.66968 283.74276 662.51193 C 279.8769 655.35418 279.33723 645.97298 284.08392 639.36649" transform="translate(-293.53, -659.21)" style="stroke: none; stroke-width: 1; stroke-dasharray: none; stroke-linecap: butt; stroke-dashoffset: 0; stroke-linejoin: miter; stroke-miterlimit: 4; fill: rgb(242,242,242); fill-rule: nonzero; opacity: 1;"/>
</g>
		<g transform="matrix(0.68 0 0 0.74 152.26 -155.29)">
<circle r="51" cy="0" cx="0" style="stroke: none; stroke-width: 1; stroke-dasharray: none; stroke-linecap: butt; stroke-dashoffset: 0; stroke-linejoin: miter; stroke-miterlimit: 4; fill: rgb(77,134,156); fill-rule: nonzero; opacity: 1;"/>
</g>
		<g transform="matrix(0.68 0 0 0.74 202.14 -167.17)">
<path stroke-linecap="round" d="M 911.21851 176.29639 C 886.50171 172.95545 858.28339 186.31507 851.8772 210.41992 C 848.5645134056198 201.62576363891546 839.9452833433472 195.98319100492168 830.5602342356016 196.46478400839095 C 821.1751851278558 196.94637701186025 813.1788039126623 203.44157833726794 810.78369 212.52863 L 813.6134099999999 214.5553 C 866.5808842259389 226.00956932097495 921.4104845348419 225.7616705280461 974.2722200000001 213.82891999999993 C 957.07935 195.76 935.93537 179.63727 911.21851 176.29639 Z" transform="translate(-892.53, -199.38)" style="stroke: none; stroke-width: 1; stroke-dasharray: none; stroke-linecap: butt; stroke-dashoffset: 0; stroke-linejoin: miter; stroke-miterlimit: 4; fill: rgb(240,240,240); fill-rule: nonzero; opacity: 1;"/>
</g>
		<g transform="matrix(0.68 0 0 0.74 130.06 -116.85)">
<path stroke-linecap="round" d="M 805.21851 244.29639 C 780.50171 240.95545 752.28339 254.31507 745.8772 278.41992 C 742.5645134056198 269.6257636389155 733.9452833433473 263.98319100492165 724.5602342356016 264.46478400839095 C 715.1751851278558 264.9463770118602 707.1788039126623 271.4415783372679 704.78369 280.52862999999996 L 707.6134099999999 282.5553 C 760.5808842259389 294.00956932097495 815.4104845348419 293.76167052804607 868.2722200000001 281.8289199999999 C 851.07935 263.76 829.93537 247.63727 805.21851 244.29639 Z" transform="translate(-786.53, -267.38)" style="stroke: none; stroke-width: 1; stroke-dasharray: none; stroke-linecap: butt; stroke-dashoffset: 0; stroke-linejoin: miter; stroke-miterlimit: 4; fill: rgb(240,240,240); fill-rule: nonzero; opacity: 1;"/>
</g>
		<g transform="matrix(0.68 0 0 0.74 3.23 -149.61)">
<path stroke-linecap="round" d="M 1020.94552 257.15423 C 1020.8431039859089 257.1544365317396 1020.7412861868161 257.13861860218805 1020.64376 257.10735 C 756.237 173.48919 523.19942 184.42376 374.26388 208.32122 C 353.99532 211.57222000000002 333.67256999999995 215.32708000000002 313.86006999999995 219.48235 C 308.80195999999995 220.54192 303.55439999999993 221.67767 298.26338999999996 222.86028 C 291.94453999999996 224.26751 285.70967999999993 225.71672999999998 279.73115999999993 227.16594999999998 Q 275.85815999999994 228.08294999999998 272.13643999999994 229.01457999999997 C 268.37812999999994 229.94230999999996 264.56465999999995 230.90910999999997 260.47676999999993 231.97157999999996 C 255.90889999999993 233.14931999999996 251.26776999999993 234.38466999999997 246.67939999999993 235.64345999999995 C 246.6626201116573 235.64936977107828 246.64549901998805 235.654261988612 246.62812999999994 235.65810999999994 L 246.62861999999996 235.65910999999994 C 241.44600999999994 237.07410999999993 236.29072999999997 238.53020999999995 231.30537999999996 239.98430999999994 C 228.60713999999996 240.76359999999994 226.00166999999996 241.53215999999995 223.50605999999996 242.29094999999992 C 223.22725999999997 242.3680999999999 222.98018999999996 242.44230999999994 222.72969999999995 242.51848999999993 L 222.19355999999996 242.68156999999994 C 221.88301999999996 242.77629999999994 221.57637999999997 242.86906999999994 221.26973999999996 242.95695999999992 L 221.25020999999995 242.96281999999994 L 221.25068999999996 242.96381999999994 L 220.43916999999996 243.21581999999995 C 219.47139999999996 243.50881999999996 218.52705999999995 243.79491999999996 217.59834999999995 244.08007999999995 C 193.05342999999996 251.64648999999994 179.56025999999997 257.0293 179.42695999999995 257.08203 C 178.914318249512 257.2875185868695 178.3321585868695 257.0385217504879 178.12666999999996 256.52588 C 177.92118141313043 256.013238249512 178.17017824951202 255.43107858686952 178.68281999999996 255.22558999999998 C 178.81709999999995 255.17284999999998 192.37617999999998 249.7627 217.01045999999997 242.16796999999997 C 217.94258999999997 241.88183999999995 218.88936999999996 241.59570999999997 219.86006999999998 241.30175999999997 L 220.61396999999997 241.06737999999999 C 220.63984999999997 241.05762 220.66572999999997 241.04980999999998 220.69209999999995 241.04199 C 220.99727999999996 240.95508 221.30195999999995 240.86231 221.61152999999996 240.76856 L 222.14863999999997 240.60547 C 222.41621999999998 240.52442 222.67988999999997 240.44434 222.94990999999996 240.37012 C 225.42842999999996 239.61621 228.04268999999996 238.84571 230.74775999999997 238.06348 C 235.73506999999998 236.6084 240.89521999999997 235.15235 246.08175999999997 233.73535 C 246.09786999999997 233.72949 246.11446999999998 233.72559 246.13058999999998 233.72071 L 246.13058999999998 233.71971 C 250.73507999999998 232.45701 255.39327999999998 231.21678 259.9758 230.03513999999998 C 264.07004 228.97165999999999 267.8908 228.00290999999999 271.65549 227.07322 Q 275.39304 226.14305 279.26486 225.22069 C 285.25022 223.76951 291.49777 222.31833999999998 297.82786 220.90819 C 303.12718 219.72458999999998 308.38353 218.58592 313.44993 217.52536999999998 C 333.29319 213.36325999999997 353.64769 209.60251999999997 373.947 206.34665999999999 C 523.09591 182.415 756.46749 171.46282 1021.2463 255.2011 C 1021.7167763793863 255.3495764763773 1022.0086040804587 255.81905411668598 1021.9335140250722 256.30665515357975 C 1021.8584239696859 256.79425619047356 1021.4388690501252 257.15418164294323 1020.94552 257.15423 Z" transform="translate(-600, -223.12)" style="stroke: none; stroke-width: 1; stroke-dasharray: none; stroke-linecap: butt; stroke-dashoffset: 0; stroke-linejoin: miter; stroke-miterlimit: 4; fill: rgb(204,204,204); fill-rule: nonzero; opacity: 1;"/>
</g>
		<g transform="matrix(0.68 0 0 0.74 -174.97 95.43)">
<path stroke-linecap="round" d="M 432.92309 584.266 C 432.57676967271755 583.253495229296 431.9939831193177 582.3381775248388 431.22309 581.596 C 430.9384830925402 581.3320486352575 430.6305590909464 581.0944116340274 430.30309 580.886 C 427.69309 579.146 423.79309 578.756 421.31309 580.886 C 421.063308071542 581.1026037899942 420.832470227953 581.3401325855713 420.62309 581.596 Q 419.51309 582.961 418.34309 584.266 C 417.06309000000005 585.726 415.75309000000004 587.136 414.38309000000004 588.506 C 413.99309000000005 588.886 413.60309000000007 589.276 413.20309000000003 589.656 C 412.97309 589.886 412.74309000000005 590.106 412.51309000000003 590.3259999999999 C 411.63309000000004 591.1659999999999 410.73309000000006 591.9759999999999 409.82309000000004 592.776 C 409.34309 593.2059999999999 408.86309000000006 593.626 408.37309000000005 594.036 C 407.64309000000003 594.646 406.91309000000007 595.256 406.17309000000006 595.8459999999999 C 406.10309000000007 595.8959999999998 406.0330900000001 595.9459999999999 405.9630900000001 596.0059999999999 C 405.9430900000001 596.0159999999998 405.9330900000001 596.0359999999998 405.91309000000007 596.0459999999998 C 405.9030900000001 596.0459999999998 405.8930900000001 596.0459999999998 405.8830900000001 596.0659999999998 C 405.8560316365193 596.076714881068 405.8320013837611 596.0938793473238 405.8130900000001 596.1159999999998 C 405.5930900000001 596.2659999999997 405.4430900000001 596.3659999999998 405.3330900000001 596.4559999999998 C 405.3730900000001 596.4360499999998 405.41309000000007 596.4059999999998 405.4530900000001 596.3859999999997 C 405.2730900000001 596.5259999999997 405.0830900000001 596.6659999999997 404.9030900000001 596.8059999999997 C 403.1530900000001 598.0959999999997 401.36309000000006 599.3359999999997 399.5330900000001 600.4959999999998 C 395.0054596726887 603.3937539953853 390.2498043509078 605.9187327351494 385.31309000000005 608.0459999999997 C 384.98309000000006 608.1759999999997 384.64309000000003 608.3159999999997 384.30309000000005 608.4459999999997 C 371.37767575910743 613.7414564280012 357.3566141764803 615.8077181349147 343.45309000000003 614.4659999999997 Q 341.32301 614.3009999999997 339.19309000000004 614.0159999999996 C 337.55309000000005 613.7759999999996 335.92309000000006 613.4859999999996 334.30309000000005 613.1559999999996 C 328.13568471825664 611.9254751031324 322.10115065558824 610.103728971006 316.2830900000001 607.7159999999996 C 309.0052255880442 604.3832401199637 302.0832976105945 600.3225543945673 295.62309000000005 595.5959999999995 C 294.62309000000005 594.8859999999995 293.61309000000006 594.1759999999996 292.60309000000007 593.4859999999995 C 293.75309000000004 590.6659999999995 294.88309000000004 587.8459999999995 295.98309000000006 585.0059999999995 C 296.5330900000001 583.6359999999995 297.06309000000005 582.2659999999995 297.5830900000001 580.8859999999995 C 301.67309000000006 570.2559999999995 305.5130900000001 559.5259999999995 309.1930900000001 548.7559999999995 Q 314.7730900000001 532.3909999999995 319.72309000000007 515.8359999999996 Q 320.23309000000006 514.1559999999996 320.7130900000001 512.4759999999995 Q 323.3080900000001 503.73099999999954 325.6930900000001 494.9459999999996 C 325.8430900000001 494.3760599999996 326.0030900000001 493.8160599999996 326.1430900000001 493.2459999999996 Q 326.83303000000006 490.7259999999996 327.4930900000001 488.20599999999956 C 328.4930900000001 484.41599999999954 326.2330900000001 479.88599999999957 322.2530900000001 478.97599999999954 C 318.2701270572277 477.95477738391634 314.1938537482822 480.2714446440979 313.0330900000001 484.21599999999955 C 312.60309000000007 485.83599999999956 312.17309000000006 487.4459999999996 311.73309000000006 489.0659999999996 Q 308.56809000000004 500.81093999999956 305.07309000000004 512.4759999999995 Q 304.56309000000005 514.1559999999995 304.05309000000005 515.8359999999996 Q 296.3430900000001 541.2459999999995 287.12309000000005 566.1459999999995 Q 286.01309000000003 569.1609999999995 284.87309000000005 572.1559999999995 C 284.50309000000004 573.1359999999995 284.13309000000004 574.1159999999995 283.75309000000004 575.0959999999995 C 283.02309 577.0259999999995 282.27309 578.9559999999996 281.52309 580.8859999999995 C 281.09303 582.0159999999995 280.65303 583.1459999999995 280.21309 584.2659999999995 C 279.92309 584.9759999999995 279.64309000000003 585.6859999999995 279.36309 586.3859999999995 C 276.5119010726659 585.362243959101 273.5578893136321 584.6514034450088 270.55309 584.2659999999995 L 270.07309 584.2059999999996 C 267.7434948496751 583.9257346500845 265.3875464998482 583.9458996858889 263.06309 584.2659999999995 C 256.02024509549045 585.0877611849146 249.70521496519746 588.992530395409 245.82308999999998 594.9259999999995 C 241.05308999999997 602.4359999999995 241.11308999999997 613.1759999999995 247.80308999999997 619.5559999999995 C 254.69308999999996 626.1259999999995 265.12309 626.0759999999995 273.23308999999995 621.9659999999994 C 277.5308653059528 619.6408318128803 281.1547212124526 616.2443280830239 283.75308999999993 612.1059999999994 C 284.7485462687307 610.6058795087059 285.66318194367216 609.0536693304293 286.49308999999994 607.4559999999994 C 286.7030899999999 607.5959999999994 286.91308999999995 607.7359999999994 287.12308999999993 607.8859999999994 C 287.92308999999995 608.4459999999993 288.72308999999996 609.0159999999994 289.5130899999999 609.5759999999995 C 294.1160938675361 612.9107336371584 298.9668407725197 615.8893797380132 304.02308999999985 618.4859999999994 C 314.8950266772422 623.8908942252739 326.59801703274167 627.4301868024569 338.6430899999999 628.9559999999994 C 338.9130899999999 628.9859999999994 339.1730899999999 629.0259999999995 339.4430899999999 629.0559999999995 C 340.7730899999999 629.2259999999994 342.11308999999994 629.3559999999994 343.4530899999999 629.4659999999994 C 362.6752357607227 630.914566628031 381.92096458400283 626.980930798012 399.03308999999985 618.1059999999994 Q 401.2080899999999 616.9809999999994 403.3430899999999 615.7459999999994 Q 406.6580899999999 613.8259999999995 409.8230899999999 611.6659999999994 C 410.9730899999999 610.8859999999994 412.0930899999999 610.0959999999993 413.2030899999999 609.2659999999994 C 418.053654624228 605.6933714662092 422.57499679600426 601.6941087754078 426.7130899999999 597.3159999999993 Q 429.0679999999999 594.8409999999993 431.2230899999999 592.2059499999993 C 432.58169698669815 590.7689415451625 433.3646805033081 588.8826630733295 433.4230899999999 586.9059499999994 C 433.41529640570025 586.0031801556937 433.245958955109 585.1090953503173 432.92309 584.266 Z M 267.33308999999997 608.086 C 267.54308999999995 607.936 267.75309 607.7760000000001 267.95309 607.616 C 267.89312 607.766 267.60308 607.936 267.33312 608.086 Z M 270.54308999999995 604.856 C 270.31308999999993 605.116 270.10308999999995 605.376 269.87308999999993 605.636 C 269.1733789882424 606.4190605844207 268.4216747498995 607.1540602841337 267.62308999999993 607.836 C 267.5130899999999 607.936 267.3930899999999 608.0360000000001 267.2730899999999 608.126 C 267.2704179876471 608.125933445662 267.26783559570345 608.1269656275837 267.26594561164353 608.1288556116435 C 267.2640556275836 608.1307455957035 267.26302344566193 608.1333279876471 267.2630899999999 608.136 C 267.11863475515133 608.2005272270021 266.9783456352138 608.2740032569658 266.8430399999999 608.356 Q 266.19803999999993 608.746 265.52309999999994 609.076 C 264.64202110892825 609.4003866653046 263.7355896165425 609.6512440893966 262.81309999999996 609.826 C 262.1042379572338 609.8777181983822 261.39280820697564 609.884398289934 260.68309999999997 609.846 L 260.6631 609.846 C 260.17330858191644 609.7372922662834 259.6893522876193 609.6037870816497 259.2131 609.446 C 258.9731 609.326 258.74309999999997 609.18606 258.5131 609.046 C 258.42310000000003 608.966 258.34305 608.8860000000001 258.2931 608.836 C 258.19540474175403 608.7468103436204 258.1051239003777 608.6498240720919 258.02315 608.546 C 258.0232050415517 608.5433313419971 258.0221691577378 608.5407556972552 258.02028173024127 608.5388682697588 C 258.01839430274475 608.5369808422623 258.01581865800296 608.5359449584483 258.01315 608.5360000000001 C 257.9031 608.336 257.7831 608.1360000000001 257.67315 607.936 C 257.6674446410511 607.9308095325042 257.66387915862737 607.9236785676567 257.66315000000003 607.916 C 257.58315000000005 607.666 257.51315000000005 607.4060000000001 257.45315000000005 607.1460000000001 C 257.4314573854955 606.6894934757922 257.43479572314044 606.2321412184316 257.46315000000004 605.7760000000001 C 257.59734344485986 605.1370728667063 257.7778193286858 604.5087494193123 258.00315000000006 603.8960000000001 C 258.2056212487687 603.461500804981 258.43610662775956 603.040614460737 258.69315000000006 602.6360000000001 C 258.71315000000004 602.5960000000001 258.81315000000006 602.436 258.9231500000001 602.2560000000001 C 258.93315000000007 602.2460000000001 258.93315000000007 602.2460000000001 258.93315000000007 602.2360000000001 C 259.08315000000005 602.0660000000001 259.2331500000001 601.8860000000001 259.39315000000005 601.7260000000001 C 259.66315000000003 601.4260000000002 259.95315000000005 601.1660000000002 260.24315000000007 600.8960000000001 C 260.80713685130917 600.5268723881063 261.39138816853034 600.1896759135958 261.99315000000007 599.8860000000001 C 262.9477890308731 599.5468803811784 263.9274272548218 599.2827458429807 264.9231500000001 599.0960000000001 C 266.3914561285427 598.9793397134853 267.8672015596837 598.9927251595727 269.3331500000001 599.1360000000001 C 270.72164013575014 599.3769169337974 272.0916323169704 599.7144028125858 273.4331500000001 600.1460000000001 C 272.62008241236833 601.7239133455723 271.69435110683975 603.241176929363 270.66315000000014 604.686 C 270.6231 604.746 270.58312 604.806 270.54308 604.856 Z M 259.42308999999995 601.566 C 259.33499424909917 601.7074001260174 259.23098217578894 601.8382372485572 259.11308999999994 601.95595 C 259.1924370063924 601.8085826329511 259.29741141784257 601.6765349821609 259.42309 601.566 Z" transform="translate(-337.95, -554.25)" style="stroke: none; stroke-width: 1; stroke-dasharray: none; stroke-linecap: butt; stroke-dashoffset: 0; stroke-linejoin: miter; stroke-miterlimit: 4; fill: rgb(63,61,86); fill-rule: nonzero; opacity: 1;"/>
</g>
		<g transform="matrix(0.68 0 0 0.74 -138.28 132.72)">
<path stroke-linecap="round" d="M 402.86309 482.136 Q 402.72815 486.846 402.59309 491.55600000000004 Q 402.30809 502.011 402.00309000000004 512.476 Q 401.68809000000005 524.251 401.34309 536.016 Q 401.17809 542.09107 401.00309000000004 548.1659999999999 Q 400.53809000000007 564.531 400.08309 580.886 C 400.05309000000005 582.016 400.01309000000003 583.136 399.98309 584.266 Q 399.75809 592.3810599999999 399.53309 600.496 Q 399.27809 609.3009999999999 399.03309 618.106 Q 398.85309 624.7059399999999 398.66309 631.316 Q 397.31315 679.211 395.96309 727.106 C 395.88408832087447 731.2149672113347 392.57205721133477 734.5269983208744 388.46309 734.606 C 384.33480492978174 734.5727511541714 380.9963388458285 731.2342850702182 380.96309 727.106 Q 381.71309 700.1659999999999 382.48309 673.226 Q 383.15809 648.866 383.85309 624.506 Q 384.07809000000003 616.481 384.30309 608.446 Q 384.64809 596.356 384.98309 584.2660000000001 C 385.01309 583.1360000000001 385.05309 582.0160000000001 385.08309 580.8860000000001 C 385.10309 579.8960000000001 385.13309000000004 578.916 385.16309 577.926 Q 385.82309000000004 554.451 386.48309 530.966 Q 386.75309 521.726 387.00309 512.476 Q 387.30309 501.931 387.60309 491.396 C 387.69309 488.30600000000004 387.77314 485.226 387.86309 482.136 C 387.94209167912555 478.0270327886653 391.25412278866526 474.7150016791256 395.36309 474.636 C 399.49137058347054 474.6692595555905 402.82983044440954 478.0077194165295 402.86309 482.136 Z" transform="translate(-391.91, -604.62)" style="stroke: none; stroke-width: 1; stroke-dasharray: none; stroke-linecap: butt; stroke-dashoffset: 0; stroke-linejoin: miter; stroke-miterlimit: 4; fill: rgb(63,61,86); fill-rule: nonzero; opacity: 1;"/>
</g>
		<g transform="matrix(0.68 0 0 0.74 165.88 95.43)">
<path stroke-linecap="round" d="M 814.29118 484.2172 C 806.426615737959 513.9968776021093 797.0270192763704 543.3498454641692 786.1300600000002 572.15847 C 783.1230600000001 580.10488 780.0468700000001 588.0354699999999 776.7585600000001 595.87032 L 777.5146200000001 594.07872 C 776.0469180285211 597.8105873502045 774.1724275621515 601.3693468363579 771.9250900000002 604.69056 Q 771.6957400000002 605.01175 771.4582400000002 605.32698 Q 772.6238300000001 603.8365500000001 771.9010400000002 604.73798 C 771.6469900000002 605.03863 771.3961400000002 605.34017 771.1334400000002 605.63344 C 770.4335430608637 606.4169393350538 769.6822475648559 607.1529610393958 768.8845400000001 607.8366199999999 Q 768.5831500000002 608.0942899999999 768.2726600000001 608.3409199999999 L 769.21049 607.6119199999998 C 769.1016500000001 607.8685999999998 768.33774 608.2093899999999 768.09982 608.3547899999999 C 767.329354405154 608.8196865548357 766.5255661488054 609.2269737208703 765.69503 609.5733199999999 L 767.48663 608.8172599999998 C 766.1255312000314 609.3655237893213 764.7057456193525 609.7549932391818 763.25541 609.9779499999999 L 765.24921 609.7100399999998 C 763.8242928230316 609.9069234501363 762.3801647668688 609.9223799901699 760.9513599999999 609.7560399999999 L 762.9451499999999 610.0239399999999 C 761.7760655665576 609.8629793169633 760.6320191750692 609.5548700339546 759.5402199999999 609.1069399999999 L 761.3318099999999 609.8629999999999 C 760.7493841315271 609.6091558315569 760.1880161578796 609.3095023273668 759.6529899999999 608.96686 C 759.38164 608.78998 758.5477299999999 608.15834 759.63812 608.99147 C 760.77148 609.85742 759.78374 609.06581 759.55049 608.83563 C 759.35622 608.6439200000001 759.1808699999999 608.4356300000001 758.9907499999999 608.24063 C 758.10867 607.33609 759.9871199999999 609.79725 759.3876399999999 608.73921 C 759.0671881232886 608.2089569730111 758.7740490228181 607.6626709464794 758.5093699999999 607.10249 L 759.2654299999999 608.89409 C 758.9213432217566 608.0413060052736 758.6770531213666 607.1515833392334 758.53743 606.24266 L 758.80534 608.23646 C 758.6621956334511 607.1060693565026 758.661134044955 605.9622043924411 758.80218 604.83155 L 758.53428 606.82535 C 758.7177123584446 605.5633119953142 759.0517133045623 604.3278012482571 759.52914 603.14524 L 758.7730799999999 604.93684 C 759.1059095253113 604.1414699326347 759.4997295305781 603.373020431212 759.95102 602.6383599999999 C 760.1588315077933 602.2586265264019 760.4027986270149 601.8998306669982 760.67953 601.5669599999999 C 760.72868 601.5828999999999 759.41088 603.0797399999999 760.11016 602.3239599999998 C 760.29306 602.1262899999998 760.46416 601.9180399999998 760.6491599999999 601.7219599999999 C 760.9453299999999 601.4081399999999 761.2626999999999 601.1211399999999 761.57477 600.8240499999998 C 762.6193499999999 599.8296299999998 760.11289 601.7900499999998 761.3182499999999 601.0031199999999 C 762.1919673512098 600.4287707153136 763.1114902134954 599.9273335012281 764.0674999999999 599.5038899999998 L 762.2759099999998 600.2599499999999 C 763.8770923446178 599.6023093887705 765.5557737616211 599.1520469364395 767.2711399999998 598.9201099999999 L 765.2773399999999 599.18801 C 767.4254826541232 598.9408495192474 769.5962692892172 598.9665436560308 771.7379599999998 599.2644799999999 L 769.7441599999999 598.9965799999999 C 772.4563390093725 599.4077786087911 775.1071234577106 600.1534248884474 777.6359399999999 601.2164799999999 L 775.8443399999999 600.4604199999999 C 781.2339899999998 602.7742499999999 786.0074199999999 606.2096799999999 790.7723399999999 609.5784199999999 C 795.3746803493196 612.9110986018026 800.2240783611724 615.8885366810013 805.2784899999999 618.48492 C 816.1511066042181 623.8908163936693 827.8548001693783 627.4313447222751 839.9007499999999 628.95863 C 875.0055416285261 633.2588925392677 909.8878200414546 619.4123427405282 932.4863199999999 592.2067099999999 C 933.8431527699089 590.7675114439719 934.6247778210633 588.8805026882077 934.6830199999998 586.9034099999999 C 934.6687766976048 584.9171461246569 933.8807496728617 583.0146816459754 932.4863199999999 581.6001099999999 C 929.7347799999999 579.0742499999999 924.5370599999999 578.3611099999998 921.8797199999999 581.6001099999999 C 919.361460356018 584.6746981295137 916.6539972118511 587.5893229632418 913.7730799999999 590.3270299999998 Q 911.7557199999999 592.2410299999998 909.6307599999999 594.0368599999998 Q 908.4171199999998 595.0627399999998 907.1698999999999 596.0480699999998 C 906.7764999999998 596.3588799999998 905.5512699999998 597.1861399999998 907.4329899999999 595.8506299999998 C 907.00164 596.1567699999998 906.5879899999999 596.4909899999998 906.1624099999999 596.8054099999998 C 899.864471715187 601.4481444683317 893.0397214512356 605.3300131028609 885.83026 608.3701899999999 L 887.62185 607.6141299999998 C 879.8856661157845 610.859323546459 871.7605728258118 613.0854592502415 863.45066 614.2366199999998 L 865.44445 613.9687199999997 C 856.8958815754991 615.0931499037207 848.2360367195611 615.0803485851618 839.69083 613.9306499999998 L 841.68462 614.1985499999998 C 833.1412471313944 613.0252016874593 824.7859827965444 610.7494887909592 816.82762 607.4282799999999 L 818.61922 608.1843499999999 C 810.9394290497854 604.7863243744418 803.6512589857908 600.5645478219234 796.88282 595.5932299999998 C 793.3602279914595 592.984837769522 789.6452867129002 590.6467714649903 785.76982 588.5990599999998 C 781.2549122939795 586.2931466739412 776.3664195901528 584.8072457971016 771.3319799999999 584.2105499999998 C 761.8931399999999 583.0997899999998 752.2748799999999 586.7761699999998 747.08574 594.9308999999998 C 742.31017 602.4357199999998 742.3718 613.1745199999998 749.05943 619.5560899999998 C 755.94713 626.1285899999998 766.37789 626.0730199999998 774.49499 621.9617599999998 C 782.3124 618.0022999999998 787.00787 609.7763699999998 790.3099900000001 602.0198999999998 C 797.7410800000001 584.5647599999998 804.3202200000001 566.7062599999998 810.4498900000001 548.7568999999997 Q 819.5464000000001 522.1197799999998 826.9484400000001 494.94357999999977 Q 827.8650500000001 491.57776999999976 828.7552700000001 488.20488999999975 C 829.7562700000001 484.4161999999998 827.4943300000001 479.88488999999976 823.5169800000001 478.97899999999976 C 819.5325146365616 477.9533111816044 815.4520575789477 480.270119359496 814.29109 484.21728999999976 Z" transform="translate(-839.21, -554.23)" style="stroke: none; stroke-width: 1; stroke-dasharray: none; stroke-linecap: butt; stroke-dashoffset: 0; stroke-linejoin: miter; stroke-miterlimit: 4; fill: rgb(63,61,86); fill-rule: nonzero; opacity: 1;"/>
</g>
		<g transform="matrix(0.68 0 0 0.74 202.58 132.72)">
<path stroke-linecap="round" d="M 889.12382 482.13557 L 886.4242800000001 577.92868 L 883.7388000000001 673.22286 L 882.2203000000001 727.1064799999999 C 882.2554267714853 731.2339780815447 885.5928019184553 734.5713532285147 889.7203000000001 734.6064799999999 C 893.8290947969183 734.5270731638288 897.140893163829 731.2152747969182 897.2203000000001 727.1064799999999 L 899.9198500000001 631.31337 L 902.6053300000001 536.01919 L 904.1238200000001 482.13557 C 904.0886932285149 478.0080719184552 900.7513180815449 474.67069677148527 896.6238200000001 474.63557 C 892.5150252030819 474.71497683617105 889.2032268361712 478.02677520308174 889.1238200000001 482.13557 Z" transform="translate(-893.17, -604.62)" style="stroke: none; stroke-width: 1; stroke-dasharray: none; stroke-linecap: butt; stroke-dashoffset: 0; stroke-linejoin: miter; stroke-miterlimit: 4; fill: rgb(63,61,86); fill-rule: nonzero; opacity: 1;"/>
</g>
		<g transform="matrix(0.68 0 0 0.74 2.67 132.04)">
<path stroke-linecap="round" d="M 629.52566 700.36106 L 631.85451 700.36106 L 631.85451 594.31942 L 686.18314 594.31942 L 686.18314 591.9965100000001 L 631.85451 591.9965100000001 L 631.85451 547.25214 L 673.8102 547.25214 Q 672.88764 546.07875 671.9112700000001 544.9352 L 631.85451 544.9352 L 631.85451 515.38231 C 631.08421 515.05385 630.30792 514.7373799999999 629.52566 514.43881 L 629.52566 544.9352 L 583.87366 544.9352 L 583.87366 507.07 C 583.0913899999999 507.10582999999997 582.3210799999999 507.15959 581.54476 507.22526999999997 L 581.54476 544.93527 L 545.12466 544.93527 L 545.12466 516.68409 C 544.3423899999999 517.03045 543.5720799999999 517.3947 542.8077199999999 517.77689 L 542.8077199999999 544.9352 L 512.1919199999999 544.9352 L 512.1919199999999 547.25214 L 542.8077199999999 547.25214 L 542.8077199999999 591.9965100000001 L 512.1919199999999 591.9965100000001 L 512.1919199999999 594.31942 L 542.8077199999999 594.31942 L 542.8077199999999 700.36106 L 545.12466 700.36106 L 545.12466 594.31942 C 554.784457058014 594.3174911831455 564.0491681766239 598.1539743268755 570.8796791306146 604.9844796544311 C 577.7101900846052 611.8149849819868 581.5466808598737 621.0796929404004 581.54476 630.73949 L 581.54476 700.3610600000001 L 583.87366 700.3610600000001 L 583.87366 594.31942 L 629.52566 594.31942 Z M 545.1246600000001 591.99651 L 545.1246600000001 547.25214 L 581.5447600000001 547.25214 L 581.5447600000001 591.9965100000001 Z M 583.8736600000001 591.99651 L 583.8736600000001 547.25214 L 584.7872800000001 547.25214 C 596.6534394000143 547.2529170583051 608.0332818000514 551.9674819313885 616.4233656569855 560.3586816301192 C 624.8134495139197 568.7498813288499 629.5265009802972 580.1303506015764 629.5257000000001 591.9965100000001 Z" transform="translate(-599.19, -603.72)" style="stroke: none; stroke-width: 1; stroke-dasharray: none; stroke-linecap: butt; stroke-dashoffset: 0; stroke-linejoin: miter; stroke-miterlimit: 4; fill: rgb(0,0,0); fill-rule: nonzero; opacity: 0.2;"/>
</g>
		<g transform="matrix(0.68 0 0 0.74 0.77 174.51)">
<path stroke-linecap="round" d="M 615.30309 668.566 C 612.371129975608 681.6447082477745 605.3481067503574 693.448991673757 595.25309 702.2660000000001 C 594.51309 702.9060000000001 593.77309 703.5260000000001 593.00309 704.1360000000001 Q 590.1980900000001 704.39106 587.43309 704.6560000000001 C 585.90309 704.796 584.39309 704.946 582.89309 705.086 L 582.62309 705.116 L 582.43309 703.476 L 581.67309 696.836 C 575.7009026177495 687.0858772616949 574.4866095243771 675.1490081862391 578.37309 664.396 C 581.01309 657.276 585.79309 650.986 590.49309 644.746 C 596.9830900000001 636.126 603.29309 627.606 603.52309 617.096 C 606.7164941720764 621.1826260327703 609.371566502585 625.6626404841221 611.42309 630.426 C 609.4872564179904 631.3373264375728 607.7480365964394 632.6179459231696 606.30309 634.19595 C 605.89309 634.6459500000001 605.48309 635.2759500000001 605.76309 635.81601 C 606.00309 636.27601 606.6030900000001 636.38601 607.12309 636.44595 C 608.37309 636.57595 609.63309 636.70595 610.88309 636.83595 C 611.88309 636.94595 612.88309 637.0459500000001 613.88309 637.1559500000001 C 615.092889139143 641.1268721274595 615.9134221570359 645.2060934164126 616.3330900000001 649.3359499999999 C 617.0069315051221 655.7601512431994 616.6592937077227 662.2505320450256 615.30309 668.566 Z" transform="translate(-596.4, -661.11)" style="stroke: none; stroke-width: 1; stroke-dasharray: none; stroke-linecap: butt; stroke-dashoffset: 0; stroke-linejoin: miter; stroke-miterlimit: 4; fill: rgb(63,61,86); fill-rule: nonzero; opacity: 1;"/>
</g>
		<g transform="matrix(0.68 0 0 0.74 13.89 183.81)">
<path stroke-linecap="round" d="M 648.50311 642.356 C 642.60311 646.646 639.15311 652.816 636.47311 659.616 C 633.7263670584584 660.4950389139536 631.2554825000516 662.0733724254604 629.3031100000001 664.196 C 628.8931100000001 664.6460000000001 628.48311 665.2760000000001 628.7631100000001 665.81606 C 629.0031100000001 666.27606 629.6031100000001 666.38606 630.1231100000001 666.446 C 631.3731100000001 666.576 632.6331100000001 666.706 633.8831100000001 666.836 C 631.2031100000002 674.876 628.7431100000001 683.196 624.0031100000001 689.986 C 620.8508269292657 694.4689359614249 616.7418009163623 698.1954092615726 611.9731100000001 700.896 C 610.6729325868616 701.6369135422573 609.3306540373856 702.3013748142615 607.9531100000002 702.886 Q 600.3331100000001 703.471 593.0031100000001 704.136 Q 590.1981100000002 704.3910599999999 587.43311 704.656 C 585.9031100000001 704.7959999999999 584.3931100000001 704.9459999999999 582.8931100000001 705.0859999999999 Q 582.8781100000001 704.2609999999999 582.8931100000001 703.4359999999999 C 583.2094441762515 688.7846880017277 588.5992536816879 674.6969629599774 598.1431100000001 663.5759999999999 C 598.5931100000001 663.0559999999999 599.0531100000001 662.5459999999999 599.5231100000001 662.036 C 604.3581326634065 656.8716087536866 610.0440921402005 652.5758511477803 616.33311 649.3359999999999 C 626.242622054949 644.1835501017546 637.3493168699648 641.7737045994602 648.50311 642.356 Z" transform="translate(-615.69, -673.68)" style="stroke: none; stroke-width: 1; stroke-dasharray: none; stroke-linecap: butt; stroke-dashoffset: 0; stroke-linejoin: miter; stroke-miterlimit: 4; fill: rgb(77,134,156); fill-rule: nonzero; opacity: 1;"/>
</g>
		<g transform="matrix(0.68 0 0 0.74 -9.8 174.66)">
<path stroke-linecap="round" d="M 589.16308 699.526 L 588.0130800000001 702.9259999999999 L 587.43308 704.656 C 585.90308 704.7959999999999 584.39308 704.9459999999999 582.89308 705.0859999999999 L 582.6230800000001 705.1159999999999 C 580.9630800000001 705.2859999999998 579.3130800000001 705.4559999999999 577.66308 705.6259999999999 C 577.2330800000001 705.1259999999999 576.80308 704.6159999999999 576.3830800000001 704.0959999999999 C 554.653753386452 677.782812241347 558.2596619946282 638.8595533989388 584.4530800000001 616.9859999999999 C 583.1330800000001 623.8959999999998 584.6730800000001 630.5159999999998 587.2030800000001 637.0859999999999 C 586.9330800000001 637.1959999999999 586.6730800000001 637.3059999999999 586.4230800000001 637.4259999999999 C 584.4872464179905 638.3373264375726 582.7480265964396 639.6179459231695 581.3030800000001 641.1959499999999 C 580.8930800000002 641.64595 580.4830800000001 642.27595 580.7630800000002 642.8160099999999 C 581.0030800000002 643.2760099999999 581.6030800000002 643.3860099999999 582.1230800000002 643.4459499999999 C 583.3730800000002 643.5759499999999 584.6330800000002 643.7059499999999 585.8830800000002 643.8359499999999 C 586.8830800000002 643.9459499999999 587.8830800000002 644.04595 588.8830800000002 644.15595 Q 589.5880800000002 644.23095 590.2930800000001 644.3059499999999 C 590.3630800000002 644.4559499999999 590.4230800000001 644.5959499999999 590.4930800000002 644.74595 C 593.3430800000002 650.92595 596.4130800000001 657.13595 598.1430800000002 663.57595 C 598.5768586643553 665.1917254304042 598.9174201425393 666.8310948989172 599.1630800000001 668.48595 C 600.7230024578403 679.8149369041093 597.0428506721067 691.238146447785 589.16308 699.526 Z" transform="translate(-580.85, -661.31)" style="stroke: none; stroke-width: 1; stroke-dasharray: none; stroke-linecap: butt; stroke-dashoffset: 0; stroke-linejoin: miter; stroke-miterlimit: 4; fill: rgb(77,134,156); fill-rule: nonzero; opacity: 1;"/>
</g>
		<g transform="matrix(0.68 0 0 0.74 -2.01 140.34)">
<path stroke-linecap="round" d="M 689.82123 554.48655 C 681.21247 537.69436 667.87518 523.56567 652.18904 513.1829799999999 C 636.4524091236021 502.81460461635515 618.3951324177121 496.5003944883911 599.62644 494.80305999999996 Q 595.93601 494.46770999999995 592.22744 494.41024999999996 C 589.30603 494.36654 545.36144 507.04200999999995 530.64032 517.39239 C 515.9273588047319 527.6165695308646 503.8241013548087 541.156474357036 495.30732 556.91939 C 486.80542766572694 572.7686102198589 482.6235686100409 590.5759051648274 483.18175 608.5527900000001 C 483.91052629112863 626.6378618047286 488.9514726645428 644.2867935709236 497.88443 660.0285600000001 C 506.6955146341808 675.7193297758075 519.2062216199007 689.0201619238733 534.32868 698.77448 C 549.66655 708.561 565.07375 734.51 583.1831 735.426 C 601.42886 736.349 622.2372799999999 711.8710500000001 638.8782 704.43893 C 655.5193073896905 696.9449208919996 669.905766598818 685.2204100670617 680.60374 670.43393 C 690.9994687813311 655.94331457309 697.7247801719946 639.147100729089 700.2027400000001 621.48616 C 702.77642 603.4030300000001 701.57689 584.75345 695.40151 567.4698900000001 C 693.8169349494028 563.0288356820398 691.95313658945 558.6924176701306 689.82127 554.4865900000001 C 688.04166 550.9814000000001 682.82527 549.6906900000001 679.55985 551.79596 C 676.0651391882715 553.9479867259454 674.8800955710466 558.4674431655524 676.86921 562.0573800000001 Q 678.43687 565.14511 679.7845699999999 568.3349600000001 L 679.0285099999999 566.5433600000001 C 682.4284670470287 574.7184403919421 684.7403608270223 583.3045359354716 685.9049199999998 592.0815200000001 L 685.6370099999998 590.0877300000001 C 686.8758213576278 599.6099136789871 686.8535863697014 609.2538798955283 685.5708799999998 618.7702499999999 L 685.8387899999998 616.7764500000001 C 684.5424000349785 626.2920130402154 682.0024953947354 635.5962273615139 678.2841699999998 644.45064 L 679.0402299999998 642.65905 C 677.1274785460488 647.1767598230019 674.898097336745 651.5537622351824 672.3687199999998 655.7574 Q 670.4456399999998 658.9430299999999 668.2880999999999 661.97899 C 667.6563799999999 662.86709 667.0052299999999 663.7399899999999 666.3490999999999 664.6101299999999 C 665.4928499999999 665.7456799999999 667.5160099999999 663.1269199999999 666.6313799999999 664.2407199999999 C 666.4807 664.4304399999999 666.33089 664.6208199999999 666.1795599999999 664.8100199999999 Q 665.49835 665.6616699999998 664.7977599999999 666.4976699999999 C 661.679914601665 670.2174456686453 658.2774993990428 673.6891096615423 654.6212899999999 676.8812599999999 Q 653.25514 678.0735799999999 651.8434299999999 679.2124099999999 C 651.3747199999999 679.5907299999999 650.9114299999999 679.9850999999999 650.4226399999999 680.3371299999999 C 650.4412499999999 680.3237299999998 652.0021999999999 679.1376799999999 651.0781999999999 679.8261299999999 C 650.7877 680.04257 650.4996899999999 680.2623199999999 650.20859 680.4779699999999 Q 647.29865 682.6337699999999 644.23426 684.5699699999999 C 639.5308590633508 687.5331509144004 634.5963419443676 690.1125306089872 629.47861 692.28307 L 631.27021 691.5270099999999 C 622.44227336894 695.2434335500202 613.1637986867281 697.7823947457064 603.67358 699.07855 L 605.66738 698.8106399999999 C 596.1819143016729 700.0925113575546 586.5682538431175 700.1095266441381 577.07831 698.86124 L 579.0721 699.12914 C 570.4470538077724 697.9710698687182 562.0104447586757 695.6902450707215 553.9767899999999 692.34466 L 555.76838 693.10073 C 551.1151404625797 691.1360531692599 546.6284865757522 688.7981125590521 542.3523299999999 686.10979 Q 539.17796 684.10979 536.1687499999999 681.86236 C 535.8825499999999 681.64877 535.5988299999999 681.43198 535.3137499999999 681.21687 C 534.39825 680.52599 535.9713999999999 681.7265199999999 535.9839599999999 681.73474 C 535.4517054945301 681.3530036628121 534.9393667307306 680.9442374343837 534.4489599999999 680.51005 Q 532.9954299999999 679.32647 531.5876 678.08825 C 527.8318549216797 674.7807147160868 524.3246503921051 671.201228253986 521.0944099999999 667.3788000000001 Q 519.8813299999999 665.94501 518.72034 664.4682600000001 C 518.3851 664.0419600000001 517.77384 663.1780000000001 519.1245799999999 664.9971600000001 C 518.94683 664.7577700000002 518.7625199999999 664.5230200000001 518.5829899999999 664.2849300000001 Q 517.9364199999999 663.4274200000001 517.3073099999999 662.5570000000001 Q 515.1043099999999 659.5090000000001 513.1194399999999 656.3111400000001 C 510.12918850435824 651.4854060710966 507.51949056720713 646.4340153107461 505.3140399999999 641.2028300000002 L 506.0700999999999 642.9944300000002 C 502.4612452979791 634.4079052030247 499.99342932857536 625.3853904359772 498.7297099999999 616.1574300000002 L 498.99761999999987 618.1512300000002 C 497.8574880209994 609.6450285407365 497.84120502272 601.0258084890777 498.9491899999999 592.5153600000002 L 498.6812899999999 594.5091600000002 C 499.8172331519241 586.2677146450951 502.0345226521496 578.2119485610955 505.27586999999994 570.55 L 504.51981 572.3416 C 506.5590933399049 567.5450630821286 508.96459671438873 562.9126305712905 511.71500000000003 558.48536 Q 513.7805000000001 555.1620800000001 516.09267 552.00066 Q 516.61795 551.2823400000001 517.15511 550.5728 C 517.47911 550.1449 518.3701100000001 549.07947 516.84974 550.96122 C 516.9988 550.77673 517.14226 550.58694 517.28916 550.40081 Q 518.55798 548.79325 519.8887500000001 547.23591 C 523.2465337772688 543.3051603886365 526.8837394832101 539.6219751489142 530.772 536.21508 Q 532.24608 534.92337 533.76664 533.68602 Q 534.4575400000001 533.12384 535.15772 532.57318 C 535.34436 532.4264499999999 535.53346 532.2824499999999 535.71924 532.1346 C 533.72181 533.72413 535.1642400000001 532.5672099999999 535.61767 532.22748 Q 538.7515999999999 529.87915 542.05301 527.7661400000001 C 546.9456419001363 524.6371907365414 552.0926085361505 521.9250075468201 557.43956 519.6582300000001 L 555.64796 520.4142900000002 C 563.40804 517.1559000000002 597.78882 509.46509000000015 604.04196 510.30456000000015 L 602.04817 510.0366500000002 C 611.2390108688998 511.3197244224637 620.2220936628681 513.8016362184613 628.768 517.419 L 626.9764 516.6629399999999 C 631.3071427759255 518.5018155641014 635.5158048686282 520.6158731417887 639.5766 522.9921599999999 Q 642.62004 524.7762099999999 645.5440199999999 526.7546799999999 Q 646.9275299999999 527.6912599999999 648.28211 528.6696799999999 Q 648.95911 529.1588499999998 649.62837 529.6585299999998 C 649.87626 529.8435299999998 650.1222300000001 530.0310599999998 650.36972 530.2165299999998 C 651.40896 530.9955299999998 648.9382400000001 529.0884299999998 650.02763 529.9499799999998 C 653.6737102299661 532.8144919028949 657.1364570347027 535.9049639431954 660.39546 539.2031799999996 Q 662.79646 541.6481799999998 665.03232 544.2483299999998 Q 666.17891 545.5825199999998 667.2787500000001 546.9558999999998 C 667.6431100000001 547.4108499999999 668.88381 549.0568999999998 667.36323 547.0404699999998 C 667.7348800000001 547.5333199999998 668.11067 548.0228599999998 668.4775900000001 548.5193099999998 C 671.6375741560105 552.7967772643663 674.4440487817444 557.3244245139892 676.8692000000001 562.0573799999997 C 678.6623700000001 565.5551299999997 683.8559500000001 566.8592399999998 687.1306200000001 564.7480199999998 C 690.626732588361 562.597006343939 691.8120911684933 558.0762762829972 689.82123 554.48655 Z" transform="translate(-592.3, -614.93)" style="stroke: none; stroke-width: 1; stroke-dasharray: none; stroke-linecap: butt; stroke-dashoffset: 0; stroke-linejoin: miter; stroke-miterlimit: 4; fill: rgb(63,61,86); fill-rule: nonzero; opacity: 1;"/>
</g>
		<g transform="matrix(0.68 0 0 0.74 -24.97 145.78)">
<path stroke-linecap="round" d="M 602.43116 676.88167 C 600.845255370488 676.9545604315007 599.3828154055685 676.0286736305135 598.77036987027 674.5639835693727 C 598.1579243349714 673.0992935082318 598.5260121864044 671.4079897647063 599.69177 670.3303 C 599.7870800000001 669.95148 599.85545 669.67945 599.95077 669.30062 Q 599.89962 669.17696 599.8478700000001 669.05345 C 596.368 660.75576 574.1628700000001 683.88681 573.2028700000001 691.68524 C 572.7800607191921 695.1323287837929 572.9584180778761 698.6266361574625 573.7300100000001 702.0127600000001 C 566.5373673973851 686.3229073341114 562.8024144806277 669.2699248732429 562.77838 652.01 C 562.776864225297 647.6788374035392 563.0174997273408 643.3509772848417 563.49916 639.04668 Q 564.09628 633.75368 565.15595 628.5361300000001 C 569.0110507396786 609.6627389414681 577.288134008334 591.9729996932549 589.30745 576.9196700000001 C 596.18123 577.3033100000001 602.20545 576.2561900000001 602.7871200000001 562.9343500000001 C 602.8905800000001 560.5646300000001 604.6482500000001 558.5127900000001 605.0355300000001 556.1783500000001 C 604.3793200000001 556.2644200000001 603.7123200000001 556.3182000000002 603.0561200000001 556.3612000000002 C 602.8516800000001 556.3719000000002 602.6365400000001 556.3826900000001 602.43212 556.3934800000002 L 602.35503 556.3969400000002 C 600.8818165012491 556.4630020651584 599.5069836803536 555.6583385502422 598.8431527081194 554.3415049807818 C 598.1793217358853 553.0246714113214 598.3500924662027 551.4408513409486 599.2793700000001 550.2957900000002 Q 599.70437 549.7727400000002 600.1299100000001 549.2502200000002 C 600.5602700000001 548.7122900000003 601.0013400000001 548.1851500000002 601.4316200000001 547.6473000000002 C 601.4812858482898 547.5962027246462 601.527982412887 547.5423010130162 601.5714800000001 547.4858600000002 C 602.0664200000001 546.8726400000003 602.56119 546.2702200000002 603.05613 545.6570100000002 C 602.1528028212771 544.2549909897572 600.9378440781517 543.0805692009837 599.50599 542.2253200000002 C 594.54658 539.3206900000002 587.70453 541.3323900000003 584.1221 545.8184500000002 C 580.5289700000001 550.3044500000002 579.85127 556.5979200000002 581.0991 562.2027500000003 C 582.3262951800334 566.9719693619733 584.3562823153981 571.4975252232356 587.1021000000001 575.5855500000002 C 586.8331000000001 575.9298400000002 586.5533800000001 576.2633400000002 586.2844500000001 576.6076400000003 C 581.3680342727877 582.9295045744929 577.0830238550434 589.7179837775848 573.4908600000001 596.8757400000003 C 574.5071600000001 588.9371100000003 562.0792700000001 560.2677900000003 557.2731000000001 554.1952200000003 C 551.5001000000001 546.9011300000003 539.6620200000001 550.0844500000003 538.6449500000001 559.3308400000003 Q 538.6301900000001 559.4651200000003 538.6161100000002 559.5993300000004 Q 539.6869300000002 560.2034400000003 540.7125100000002 560.8817000000004 C 542.4705227484014 562.0562798596209 543.327231534391 564.1895691388406 542.8698988426879 566.2538107621172 C 542.412566150985 568.3180523853936 540.7349907702761 569.8898710565085 538.6453800000002 570.2120100000004 L 538.5408600000002 570.2281400000004 C 528.9851300000001 583.8718100000004 559.6183100000002 619.3828400000004 567.2860400000002 611.4095300000004 C 563.6769773415331 621.6372396476422 561.4131683998195 632.2908287544818 560.5515500000001 643.1023500000005 C 560.0637444640805 649.48084944691 560.0925282662033 655.8883505383517 560.6376200000001 662.2622100000003 L 560.60531 662.0362800000004 C 558.90163 648.154 529.674 627.51374 521.139 629.233 C 516.22225 630.22341 511.37948 629.99825 512.12607 634.9578399999999 Q 512.14395 635.0765799999999 512.16242 635.1953399999999 C 513.487149754261 635.7348922730577 514.7769810328408 636.3564460019549 516.02442 637.0563899999999 Q 517.09524 637.6606199999999 518.12081 638.3387599999999 C 519.8788305418207 639.5133496662696 520.7355447365994 641.6466492571408 520.278215311455 643.7109038214977 C 519.8208858863105 645.7751583858545 518.1433101515569 647.3469936221666 516.05369 647.6691499999998 L 515.9490499999999 647.6852099999999 C 515.8737699999999 647.6959999999999 515.80918 647.7067799999999 515.73398 647.7175799999999 C 511.38430999999997 662.6838899999999 543.6413299999999 686.8375799999999 563.25168 679.1521899999999 L 563.26249 679.1521899999999 C 565.2058885446668 687.597196957292 568.0216798396211 695.8173704671846 571.66449 703.6802499999999 L 601.679 703.6802499999999 C 601.78665 703.3467499999999 601.88343 703.0024599999999 601.9802999999999 702.6689599999999 C 599.2020791352235 702.8436270718009 596.412923372057 702.6774674446582 593.67509 702.1741899999998 C 595.90202 699.4416199999998 598.1288599999999 696.6875499999999 600.35579 693.9550599999999 C 600.4054592828693 693.9039974329755 600.452156110258 693.8501254674445 600.49565 693.7937099999999 C 601.6252099999999 692.3952199999999 602.7655699999999 691.00744 603.89513 689.6089499999999 L 603.89574 689.60722 C 603.9559502949271 685.3203338674205 603.4640170255896 681.0435322279418 602.4320700000001 676.88227 Z M 568.0604999999999 609.2686699999999 L 568.0763 609.2473399999999 L 568.0604999999999 609.2901599999999 Z M 561.4121799999999 669.2010399999999 L 561.1539599999999 668.6202 C 561.1647499999999 668.2006299999999 561.1647499999999 667.7810599999999 561.1539599999999 667.35078 C 561.1539599999999 667.2323299999999 561.1324599999999 667.11406 561.1324599999999 666.9956999999999 C 561.2292399999999 667.73798 561.31531 668.48034 561.42288 669.2226199999999 Z" transform="translate(-558.54, -622.27)" style="stroke: none; stroke-width: 1; stroke-dasharray: none; stroke-linecap: butt; stroke-dashoffset: 0; stroke-linejoin: miter; stroke-miterlimit: 4; fill: rgb(63,61,86); fill-rule: nonzero; opacity: 1;"/>
</g>
		<g transform="matrix(0.68 0 0 0.74 -224.46 131.83)">
<circle r="11" cy="0" cx="0" style="stroke: none; stroke-width: 1; stroke-dasharray: none; stroke-linecap: butt; stroke-dashoffset: 0; stroke-linejoin: miter; stroke-miterlimit: 4; fill: rgb(63,61,86); fill-rule: nonzero; opacity: 1;"/>
</g>
		<g transform="matrix(0.68 0 0 0.74 -134.7 220.63)">
<circle r="11" cy="0" cx="0" style="stroke: none; stroke-width: 1; stroke-dasharray: none; stroke-linecap: butt; stroke-dashoffset: 0; stroke-linejoin: miter; stroke-miterlimit: 4; fill: rgb(63,61,86); fill-rule: nonzero; opacity: 1;"/>
</g>
		<g transform="matrix(0.68 0 0 0.74 205.98 220.63)">
<circle r="11" cy="0" cx="0" style="stroke: none; stroke-width: 1; stroke-dasharray: none; stroke-linecap: butt; stroke-dashoffset: 0; stroke-linejoin: miter; stroke-miterlimit: 4; fill: rgb(63,61,86); fill-rule: nonzero; opacity: 1;"/>
</g>
		<g transform="matrix(0.68 0 0 0.74 224.34 117.03)">
<circle r="11" cy="0" cx="0" style="stroke: none; stroke-width: 1; stroke-dasharray: none; stroke-linecap: butt; stroke-dashoffset: 0; stroke-linejoin: miter; stroke-miterlimit: 4; fill: rgb(63,61,86); fill-rule: nonzero; opacity: 1;"/>
</g>
		<g transform="matrix(0.68 0 0 0.74 202.58 41.55)">
<circle r="11" cy="0" cx="0" style="stroke: none; stroke-width: 1; stroke-dasharray: none; stroke-linecap: butt; stroke-dashoffset: 0; stroke-linejoin: miter; stroke-miterlimit: 4; fill: rgb(63,61,86); fill-rule: nonzero; opacity: 1;"/>
</g>
		<g transform="matrix(0.68 0 0 0.74 -116.97 117.01)">
<path stroke-linecap="round" d="M 434.1831 583.426 C 434.1693884957283 589.2617982444107 429.5809420564561 594.0611992687126 423.75165028871055 594.3370373395264 C 417.9223585209651 594.6128754103403 412.9012203672998 590.2681933092024 412.3365121070599 584.4597654895913 C 411.77180384682 578.6513376699802 415.8620207130773 573.4208293863499 421.63527850072364 572.5686418059452 C 427.40853628837004 571.7164542255405 432.83553202660033 575.5421317048075 433.97310000000004 581.2660000000001 C 434.1141778915799 581.9773103297398 434.1845206307826 582.7008356472529 434.1831 583.426 Z" transform="translate(-423.23, -583.4)" style="stroke: none; stroke-width: 1; stroke-dasharray: none; stroke-linecap: butt; stroke-dashoffset: 0; stroke-linejoin: miter; stroke-miterlimit: 4; fill: rgb(63,61,86); fill-rule: nonzero; opacity: 1;"/>
</g>
		<g transform="matrix(0.68 0 0 0.74 40.06 65.23)">
<circle r="11" cy="0" cx="0" style="stroke: none; stroke-width: 1; stroke-dasharray: none; stroke-linecap: butt; stroke-dashoffset: 0; stroke-linejoin: miter; stroke-miterlimit: 4; fill: rgb(63,61,86); fill-rule: nonzero; opacity: 1;"/>
</g>
		<g transform="matrix(0.68 0 0 0.74 -41.49 65.21)">
<path stroke-linecap="round" d="M 545.1831 513.426 C 545.1693884957284 519.2617982444107 540.5809420564563 524.0611992687127 534.7516502887107 524.3370373395267 C 528.9223585209653 524.6128754103406 523.9012203673 520.2681933092028 523.3365121070599 514.4597654895917 C 522.7718038468198 508.65133766998065 526.862020713077 503.4208293863503 532.6352785007233 502.56864180594545 C 538.4085362883696 501.7164542255406 543.8355320266 505.54213170480745 544.9730999999999 511.266 C 545.1141778915799 511.97731032973974 545.1845206307825 512.7008356472529 545.1831 513.426 Z" transform="translate(-534.23, -513.4)" style="stroke: none; stroke-width: 1; stroke-dasharray: none; stroke-linecap: butt; stroke-dashoffset: 0; stroke-linejoin: miter; stroke-miterlimit: 4; fill: rgb(63,61,86); fill-rule: nonzero; opacity: 1;"/>
</g>
		<g transform="matrix(0.68 0 0 0.74 -138.05 41.53)">
<path stroke-linecap="round" d="M 403.1831 481.426 C 403.1693884957283 487.2617982444106 398.580942056456 492.0611992687125 392.75165028871055 492.3370373395263 C 386.922358520965 492.61287541034017 381.9012203672998 488.2681933092023 381.3365121070599 482.4597654895912 C 380.77180384682 476.65133766998 384.8620207130773 471.4208293863498 390.6352785007237 470.56864180594505 C 396.40853628837004 469.71645422554036 401.83553202660033 473.5421317048074 402.97310000000004 479.26599999999996 C 403.1141778915799 479.9773103297397 403.1845206307826 480.7008356472528 403.1831 481.426 Z" transform="translate(-392.23, -481.4)" style="stroke: none; stroke-width: 1; stroke-dasharray: none; stroke-linecap: butt; stroke-dashoffset: 0; stroke-linejoin: miter; stroke-miterlimit: 4; fill: rgb(63,61,86); fill-rule: nonzero; opacity: 1;"/>
</g>
		<g transform="matrix(0.68 0 0 0.74 118.26 134.79)">
<circle r="11" cy="0" cx="0" style="stroke: none; stroke-width: 1; stroke-dasharray: none; stroke-linecap: butt; stroke-dashoffset: 0; stroke-linejoin: miter; stroke-miterlimit: 4; fill: rgb(63,61,86); fill-rule: nonzero; opacity: 1;"/>
</g>
		<g transform="matrix(0.68 0 0 0.74 0.62 57.09)">
<circle r="16" cy="0" cx="0" style="stroke: none; stroke-width: 1; stroke-dasharray: none; stroke-linecap: butt; stroke-dashoffset: 0; stroke-linejoin: miter; stroke-miterlimit: 4; fill: rgb(63,61,86); fill-rule: nonzero; opacity: 1;"/>
</g>
		<g transform="matrix(0.68 0 0 0.74 3.22 228.62)">
<path stroke-linecap="round" d="M 1028.875 735.26666 L 171.125 735.57399 C 170.6996109644192 735.5739900644834 170.3065352582175 735.3470477526605 170.09384072181237 734.9786500521034 C 169.88114618540723 734.6102523515464 169.88114618540723 734.1563676484536 170.09384072181237 733.7879699478966 C 170.3065352582175 733.4195722473395 170.69961096441924 733.1926299355166 171.125 733.19263 L 1028.875 732.88529 C 1029.5312500187651 732.8871918284711 1030.0622393659912 733.4197222254681 1030.0622393659912 734.075975 C 1030.0622393659912 734.7322277745319 1029.5312500187651 735.2647581715289 1028.875 735.26666 Z" transform="translate(-600, -734.23)" style="stroke: none; stroke-width: 1; stroke-dasharray: none; stroke-linecap: butt; stroke-dashoffset: 0; stroke-linejoin: miter; stroke-miterlimit: 4; fill: rgb(202,202,202); fill-rule: nonzero; opacity: 1;"/>
</g>
</g>
</g>
</svg>