<?xml version="1.0" encoding="UTF-8"?>
<!DOCTYPE svg PUBLIC "-//W3C//DTD SVG 1.1//EN" "http://www.w3.org/Graphics/SVG/1.1/DTD/svg11.dtd">
<svg xmlns="http://www.w3.org/2000/svg" version="1.1" width="756px" height="587px" style="shape-rendering:geometricPrecision; text-rendering:geometricPrecision; image-rendering:optimizeQuality; fill-rule:evenodd; clip-rule:evenodd" xmlns:xlink="http://www.w3.org/1999/xlink">
<g><path style="opacity:0.004" fill="#fefffe" d="M 262.5,94.5 C 264.966,93.3659 267.633,93.1993 270.5,94C 267.854,94.4974 265.187,94.6641 262.5,94.5 Z"/></g>
<g><path style="opacity:0.004" fill="#fefffe" d="M 368.5,153.5 C 372.646,152.353 376.98,152.186 381.5,153C 377.179,153.499 372.846,153.666 368.5,153.5 Z"/></g>
<g><path style="opacity:0.133" fill="#f0f4f6" d="M 301.5,243.5 C 304.445,251.389 303.945,259.055 300,266.5C 299.667,265.833 299.333,265.167 299,264.5C 296.296,270.868 292.129,276.035 286.5,280C 287.641,280.741 287.641,281.575 286.5,282.5C 282.439,283.727 279.939,286.393 279,290.5C 278.667,289.833 278.333,289.167 278,288.5C 277.294,292.806 275.794,296.806 273.5,300.5C 271.388,306.955 269.888,313.622 269,320.5C 268.667,318.5 268.333,316.5 268,314.5C 267.667,320.5 267.333,326.5 267,332.5C 266.667,329.833 266.333,327.167 266,324.5C 265.667,329.167 265.333,333.833 265,338.5C 264.667,338.167 264.333,337.833 264,337.5C 263.971,342.363 263.138,347.03 261.5,351.5C 259.602,361.859 257.935,373.526 256.5,386.5C 256.667,387.833 256.833,389.167 257,390.5C 261.346,384.473 264.346,377.806 266,370.5C 266.333,371.5 266.667,372.5 267,373.5C 267.379,369.172 268.712,365.172 271,361.5C 271.333,361.833 271.667,362.167 272,362.5C 273.567,350.734 280.734,346.401 293.5,349.5C 295.818,350.652 297.652,352.319 299,354.5C 299.333,354.167 299.667,353.833 300,353.5C 300.415,355.291 301.415,356.624 303,357.5C 303.333,360.167 303.667,362.833 304,365.5C 304.333,365.167 304.667,364.833 305,364.5C 305.333,370.167 305.667,375.833 306,381.5C 306.333,380.5 306.667,379.5 307,378.5C 308.263,386.847 309.596,395.181 311,403.5C 311.333,401.833 311.667,400.167 312,398.5C 312.499,402.152 312.665,405.818 312.5,409.5C 316.309,409.466 318.143,407.466 318,403.5C 318.333,404.167 318.667,404.833 319,405.5C 319.795,401.916 321.128,398.583 323,395.5C 324.139,389.564 324.805,383.564 325,377.5C 325.333,378.833 325.667,380.167 326,381.5C 326.713,374.066 328.046,366.733 330,359.5C 330.333,360.833 330.667,362.167 331,363.5C 331.333,360.167 331.667,356.833 332,353.5C 332.333,354.5 332.667,355.5 333,356.5C 334.229,345.264 340.395,340.431 351.5,342C 351.167,342.333 350.833,342.667 350.5,343C 352.329,343.273 353.829,344.107 355,345.5C 355.667,350.833 355.667,356.167 355,361.5C 353.25,364.246 352.25,367.246 352,370.5C 351.667,369.833 351.333,369.167 351,368.5C 350.71,370.92 350.21,373.254 349.5,375.5C 348.276,380.966 347.443,386.633 347,392.5C 346.667,389.833 346.333,387.167 346,384.5C 345.5,393.494 345.334,402.494 345.5,411.5C 350.589,406.957 354.756,401.624 358,395.5C 358.333,395.833 358.667,396.167 359,396.5C 360.604,394.008 361.938,391.341 363,388.5C 363.333,388.833 363.667,389.167 364,389.5C 367.667,382.833 371.333,376.167 375,369.5C 375.333,369.833 375.667,370.167 376,370.5C 376.333,368.833 376.667,367.167 377,365.5C 377.333,366.167 377.667,366.833 378,367.5C 381.721,356.824 385.388,346.824 389,337.5C 389.333,338.167 389.667,338.833 390,339.5C 390.333,336.833 390.667,334.167 391,331.5C 391.333,331.833 391.667,332.167 392,332.5C 392.019,329.692 393.019,327.359 395,325.5C 395.333,323.167 395.667,320.833 396,318.5C 396.333,319.5 396.667,320.5 397,321.5C 399.471,311.427 403.137,301.76 408,292.5C 408.333,292.833 408.667,293.167 409,293.5C 412.058,286.514 416.391,278.847 422,270.5C 422.333,270.833 422.667,271.167 423,271.5C 423.455,268.184 425.288,266.018 428.5,265C 432.028,264.911 435.362,264.244 438.5,263C 438.167,262.667 437.833,262.333 437.5,262C 439.823,257.14 440.989,251.973 441,246.5C 441.333,248.5 441.667,250.5 442,252.5C 442.333,247.5 442.667,242.5 443,237.5C 443.333,238.833 443.667,240.167 444,241.5C 444.302,237.389 445.136,233.389 446.5,229.5C 446.333,228.5 446.167,227.5 446,226.5C 445.29,227.973 444.124,228.64 442.5,228.5C 442.097,231.406 440.431,233.239 437.5,234C 437.833,234.333 438.167,234.667 438.5,235C 437.552,235.483 436.552,235.649 435.5,235.5C 431.988,240.685 428.488,246.019 425,251.5C 424.667,251.167 424.333,250.833 424,250.5C 421.995,253.663 419.828,256.663 417.5,259.5C 416.681,263.139 414.847,266.139 412,268.5C 411.667,270.167 411.333,271.833 411,273.5C 410.667,272.833 410.333,272.167 410,271.5C 404.986,281.76 397.152,284.927 386.5,281C 385.167,279.667 383.833,278.333 382.5,277C 382.833,276.667 383.167,276.333 383.5,276C 379.693,274.513 377.86,271.68 378,267.5C 377.667,268.5 377.333,269.5 377,270.5C 376.667,267.833 376.333,265.167 376,262.5C 370.616,267.975 365.116,273.308 359.5,278.5C 358.271,279.281 356.938,279.781 355.5,280C 355.833,280.333 356.167,280.667 356.5,281C 351.743,282.415 348.409,283.915 346.5,285.5C 341.889,285.152 337.222,284.985 332.5,285C 333.5,284.667 334.5,284.333 335.5,284C 322.98,283.199 315.147,277.366 312,266.5C 311.667,267.167 311.333,267.833 311,268.5C 307.973,261.065 306.806,253.231 307.5,245C 307.667,239.5 307.833,234 308,228.5C 309.734,224.403 310.734,220.069 311,215.5C 311.333,217.167 311.667,218.833 312,220.5C 312.333,217.167 312.667,213.833 313,210.5C 313.333,210.833 313.667,211.167 314,211.5C 314.526,208.117 315.859,205.117 318,202.5C 318.333,202.833 318.667,203.167 319,203.5C 319.333,201.833 319.667,200.167 320,198.5C 320.333,198.833 320.667,199.167 321,199.5C 324.637,194.96 327.637,189.627 330,183.5C 330.333,184.167 330.667,184.833 331,185.5C 331.333,183.833 331.667,182.167 332,180.5C 332.333,180.833 332.667,181.167 333,181.5C 337.156,173.078 342.989,166.911 350.5,163C 349.833,162.667 349.167,162.333 348.5,162C 349.833,161.667 351.167,161.333 352.5,161C 352.167,160.667 351.833,160.333 351.5,160C 362.159,154.764 373.492,153.097 385.5,155C 388.494,156.659 390.328,159.159 391,162.5C 391.333,162.167 391.667,161.833 392,161.5C 392.216,163.384 392.883,165.051 394,166.5C 394.288,169.53 394.455,172.364 394.5,175C 392.879,177.166 392.045,179.666 392,182.5C 391.667,182.167 391.333,181.833 391,181.5C 390.667,183.833 390.333,186.167 390,188.5C 389.667,187.833 389.333,187.167 389,186.5C 388.455,189.863 387.122,192.863 385,195.5C 384.667,195.167 384.333,194.833 384,194.5C 383.111,197.389 381.778,200.055 380,202.5C 379.667,202.167 379.333,201.833 379,201.5C 376.754,206.191 373.254,210.691 368.5,215C 364.366,217.025 359.7,219.358 354.5,222C 352.5,222.333 350.5,222.667 348.5,223C 349.833,223.333 351.167,223.667 352.5,224C 347.447,224.217 342.447,224.717 337.5,225.5C 334.919,230.822 333.419,236.489 333,242.5C 332.667,240.833 332.333,239.167 332,237.5C 331.667,242.833 331.333,248.167 331,253.5C 330.667,251.167 330.333,248.833 330,246.5C 329.333,253.167 329.333,259.833 330,266.5C 330.626,264.009 331.459,264.009 332.5,266.5C 335.373,265.225 338.373,264.392 341.5,264C 340.833,263.667 340.167,263.333 339.5,263C 347.552,258.315 355.218,253.148 362.5,247.5C 362.351,246.448 362.517,245.448 363,244.5C 363.333,244.833 363.667,245.167 364,245.5C 368.697,240.804 373.03,235.804 377,230.5C 377.333,230.833 377.667,231.167 378,231.5C 379.179,228.128 381.345,225.461 384.5,223.5C 386.49,220.335 388.823,217.502 391.5,215C 392.793,214.51 394.127,214.343 395.5,214.5C 396.051,212.135 396.884,209.801 398,207.5C 398.333,207.833 398.667,208.167 399,208.5C 400.015,205.898 401.848,204.065 404.5,203C 404.167,202.667 403.833,202.333 403.5,202C 405.726,200.773 407.226,198.939 408,196.5C 408.333,197.167 408.667,197.833 409,198.5C 409.333,196.833 409.667,195.167 410,193.5C 410.333,193.833 410.667,194.167 411,194.5C 411.761,191.569 413.594,189.903 416.5,189.5C 416.351,188.448 416.517,187.448 417,186.5C 417.333,186.833 417.667,187.167 418,187.5C 418.574,184.679 419.908,182.346 422,180.5C 422.333,180.833 422.667,181.167 423,181.5C 424.288,177.734 426.788,175.234 430.5,174C 430.167,173.667 429.833,173.333 429.5,173C 439.148,166.113 450.482,163.779 463.5,166C 466.236,167.362 468.569,169.196 470.5,171.5C 475.78,170.382 481.113,170.216 486.5,171C 486.167,171.333 485.833,171.667 485.5,172C 494.284,175.744 496.45,181.911 492,190.5C 489.092,192.488 487.425,195.155 487,198.5C 486.667,198.167 486.333,197.833 486,197.5C 483.043,203.917 480.209,210.417 477.5,217C 478.28,218.073 478.113,219.24 477,220.5C 476.667,219.833 476.333,219.167 476,218.5C 474.274,225.858 472.274,233.858 470,242.5C 469.667,241.167 469.333,239.833 469,238.5C 468.667,242.5 468.333,246.5 468,250.5C 467.667,249.167 467.333,247.833 467,246.5C 466.266,254.251 464.932,261.917 463,269.5C 462.667,268.5 462.333,267.5 462,266.5C 461.83,272.528 461.33,278.528 460.5,284.5C 453.433,288.152 447.6,286.819 443,280.5C 441.267,284.299 439.267,287.965 437,291.5C 436.667,291.167 436.333,290.833 436,290.5C 435.144,292.868 434.31,295.202 433.5,297.5C 432.5,297.5 431.5,297.5 430.5,297.5C 430.66,299.199 430.494,300.866 430,302.5C 429.667,302.167 429.333,301.833 429,301.5C 427.716,304.807 426.383,308.141 425,311.5C 424.667,310.833 424.333,310.167 424,309.5C 423.667,311.833 423.333,314.167 423,316.5C 422.667,315.833 422.333,315.167 422,314.5C 420.67,318.495 419.337,322.495 418,326.5C 417.667,326.167 417.333,325.833 417,325.5C 416.217,329.812 414.551,334.146 412,338.5C 411.667,340.5 411.333,342.5 411,344.5C 410.667,343.5 410.333,342.5 410,341.5C 409.667,344.5 409.333,347.5 409,350.5C 408.667,350.167 408.333,349.833 408,349.5C 405.62,357.336 403.62,364.669 402,371.5C 401.667,370.833 401.333,370.167 401,369.5C 400.84,373.287 400.174,376.954 399,380.5C 398.667,380.167 398.333,379.833 398,379.5C 397.667,384.167 397.333,388.833 397,393.5C 396.667,391.5 396.333,389.5 396,387.5C 395.544,394.67 395.044,401.836 394.5,409C 394.53,411.424 394.863,413.757 395.5,416C 397.947,415.712 399.28,414.212 399.5,411.5C 401.433,411.271 403.1,410.438 404.5,409C 418.64,395.54 433.307,382.706 448.5,370.5C 452.803,361.726 455.636,354.393 457,348.5C 457.333,348.833 457.667,349.167 458,349.5C 460.992,342.857 463.992,336.19 467,329.5C 467.333,329.833 467.667,330.167 468,330.5C 469.708,324.961 471.708,319.627 474,314.5C 474.333,315.5 474.667,316.5 475,317.5C 475.333,314.833 475.667,312.167 476,309.5C 476.333,309.833 476.667,310.167 477,310.5C 479.078,305.126 481.912,300.126 485.5,295.5C 483.569,293.196 481.236,291.362 478.5,290C 478.833,289.667 479.167,289.333 479.5,289C 478.333,288.5 477.5,287.667 477,286.5C 476.667,286.833 476.333,287.167 476,287.5C 475.667,285.167 475.333,282.833 475,280.5C 474.667,281.167 474.333,281.833 474,282.5C 473.981,279.692 472.981,277.359 471,275.5C 470.667,271.167 470.333,266.833 470,262.5C 469.667,264.833 469.333,267.167 469,269.5C 468.833,267.667 468.667,265.833 468.5,264C 469.29,259.821 470.123,255.654 471,251.5C 472.799,246.875 474.466,242.875 476,239.5C 476.333,239.833 476.667,240.167 477,240.5C 477.333,238.833 477.667,237.167 478,235.5C 481.589,231.727 484.256,227.394 486,222.5C 486.333,223.167 486.667,223.833 487,224.5C 488.534,221.169 490.201,217.169 492,212.5C 493.755,211.33 494.755,209.663 495,207.5C 495.333,207.833 495.667,208.167 496,208.5C 496.842,205.311 498.175,202.311 500,199.5C 500.333,199.833 500.667,200.167 501,200.5C 501.333,198.833 501.667,197.167 502,195.5C 502.333,195.833 502.667,196.167 503,196.5C 507.822,186.331 514.655,176.665 523.5,167.5C 524.912,166.194 526.579,165.36 528.5,165C 528.167,164.667 527.833,164.333 527.5,164C 531.501,163.039 535.168,163.705 538.5,166C 540,168.167 541.833,170 544,171.5C 544.827,175.541 544.66,179.541 543.5,183.5C 540.18,186.563 537.68,190.23 536,194.5C 535.667,193.833 535.333,193.167 535,192.5C 534.667,194.167 534.333,195.833 534,197.5C 533.667,197.167 533.333,196.833 533,196.5C 532.53,198.774 531.53,200.774 530,202.5C 529.333,203.5 529.333,204.5 530,205.5C 539.51,194.36 550.676,184.194 563.5,175C 566.554,174.179 569.554,174.345 572.5,175.5C 573.853,176.524 574.52,177.857 574.5,179.5C 576.993,179.976 578.993,181.31 580.5,183.5C 581.205,185.672 582.205,187.672 583.5,189.5C 583.426,194.757 583.426,199.924 583.5,205C 583,205.5 582.5,206 582,206.5C 581.667,209.5 581.333,212.5 581,215.5C 580.667,214.167 580.333,212.833 580,211.5C 579.667,216.167 579.333,220.833 579,225.5C 578.667,223.833 578.333,222.167 578,220.5C 576.254,229.233 574.254,237.899 572,246.5C 571.667,245.833 571.333,245.167 571,244.5C 570.703,247.914 570.036,251.247 569,254.5C 568.667,254.167 568.333,253.833 568,253.5C 567.667,257.833 567.333,262.167 567,266.5C 566.667,264.5 566.333,262.5 566,260.5C 565.667,264.833 565.333,269.167 565,273.5C 564.667,273.167 564.333,272.833 564,272.5C 563.519,276.531 562.853,280.531 562,284.5C 561.667,283.833 561.333,283.167 561,282.5C 560.502,285.482 560.335,288.482 560.5,291.5C 562.107,292.621 564.44,293.288 567.5,293.5C 567.864,300.025 567.197,305.025 565.5,308.5C 567.833,308.5 570.167,308.5 572.5,308.5C 572.855,310.89 573.522,313.223 574.5,315.5C 574.333,316.5 574.167,317.5 574,318.5C 573.667,316.833 573.333,315.167 573,313.5C 572.667,317.833 572.333,322.167 572,326.5C 571.667,326.167 571.333,325.833 571,325.5C 570.529,327.246 569.862,328.913 569,330.5C 568.667,330.167 568.333,329.833 568,329.5C 567.667,331.167 567.333,332.833 567,334.5C 566.667,333.833 566.333,333.167 566,332.5C 564.189,341.661 558.689,345.161 549.5,343C 550.167,342.667 550.833,342.333 551.5,342C 542.5,339.657 541.166,334.49 547.5,326.5C 549.414,324.798 550.914,322.798 552,320.5C 552.333,320.833 552.667,321.167 553,321.5C 553.333,320.5 553.667,319.5 554,318.5C 554.333,318.833 554.667,319.167 555,319.5C 556.672,316.344 558.506,313.344 560.5,310.5C 554.168,310.012 550.001,306.679 548,300.5C 547.667,300.833 547.333,301.167 547,301.5C 546.755,299.337 545.755,297.67 544,296.5C 543.667,293.833 543.333,291.167 543,288.5C 542.667,289.5 542.333,290.5 542,291.5C 541.333,283.5 541.333,275.5 542,267.5C 542.333,268.833 542.667,270.167 543,271.5C 543.207,267.911 543.707,264.411 544.5,261C 543.664,259.757 543.997,258.59 545.5,257.5C 546.325,253.878 546.825,250.211 547,246.5C 547.333,247.167 547.667,247.833 548,248.5C 548.236,246.236 548.736,244.069 549.5,242C 549.167,241.667 548.833,241.333 548.5,241C 550.573,237.831 551.74,234.331 552,230.5C 552.333,231.167 552.667,231.833 553,232.5C 553.333,228.5 553.667,224.5 554,220.5C 554.333,222.167 554.667,223.833 555,225.5C 555.573,219.75 556.24,214.083 557,208.5C 556.147,210.125 555.147,210.458 554,209.5C 553.781,210.938 553.281,212.271 552.5,213.5C 546.445,218.722 541.279,224.722 537,231.5C 536.333,232.833 535.667,232.833 535,231.5C 534.667,232.833 534.333,234.167 534,235.5C 533.667,235.167 533.333,234.833 533,234.5C 529.346,239.479 525.68,244.479 522,249.5C 521.667,249.167 521.333,248.833 521,248.5C 515.199,256.83 509.699,264.497 504.5,271.5C 507.85,271.335 511.183,271.502 514.5,272C 513.5,272.333 512.5,272.667 511.5,273C 515.12,272.852 517.62,274.352 519,277.5C 519.333,277.167 519.667,276.833 520,276.5C 520.333,278.167 520.667,279.833 521,281.5C 521.333,280.833 521.667,280.167 522,279.5C 522.667,282.5 522.667,285.5 522,288.5C 521.667,288.167 521.333,287.833 521,287.5C 519.252,290.662 517.252,293.662 515,296.5C 514.667,296.167 514.333,295.833 514,295.5C 513.667,296.5 513.333,297.5 513,298.5C 506.72,304.129 502.72,309.795 501,315.5C 500.667,315.167 500.333,314.833 500,314.5C 495.958,319.918 492.958,325.918 491,332.5C 490.667,332.167 490.333,331.833 490,331.5C 489.667,333.5 489.333,335.5 489,337.5C 488.667,336.833 488.333,336.167 488,335.5C 486.367,340.774 484.367,345.774 482,350.5C 481.667,349.833 481.333,349.167 481,348.5C 480.667,350.833 480.333,353.167 480,355.5C 477.677,359.187 476.011,363.187 475,367.5C 474.667,366.833 474.333,366.167 474,365.5C 473.667,367.5 473.333,369.5 473,371.5C 472.333,372.833 471.667,372.833 471,371.5C 470,376.5 469,381.5 468,386.5C 467.667,385.5 467.333,384.5 467,383.5C 466.971,386.367 466.138,388.867 464.5,391C 464.833,391.333 465.167,391.667 465.5,392C 464.545,395.099 463.711,398.266 463,401.5C 462.667,400.833 462.333,400.167 462,399.5C 461.791,405.581 461.291,411.581 460.5,417.5C 459.167,417.833 459.167,418.167 460.5,418.5C 460.843,420.225 461.843,420.725 463.5,420C 475.832,410.267 487.998,400.433 500,390.5C 500.333,390.833 500.667,391.167 501,391.5C 505.04,386.897 509.873,383.397 515.5,381C 517.487,379.681 518.654,377.848 519,375.5C 519.333,375.833 519.667,376.167 520,376.5C 522.454,369.306 526.954,362.806 533.5,357C 537.5,355 541.5,355 545.5,357C 546.126,357.75 546.626,358.584 547,359.5C 547.333,359.167 547.667,358.833 548,358.5C 548.49,359.793 548.657,361.127 548.5,362.5C 548.5,363.833 548.5,365.167 548.5,366.5C 548.664,369.187 548.497,371.854 548,374.5C 547.667,373.833 547.333,373.167 547,372.5C 546.667,374.167 546.333,375.833 546,377.5C 542.252,382.183 538.919,387.849 536,394.5C 535.667,394.167 535.333,393.833 535,393.5C 534.667,395.5 534.333,397.5 534,399.5C 533.667,398.833 533.333,398.167 533,397.5C 529.166,406.09 526.333,414.923 524.5,424C 526.279,423.956 527.945,423.289 529.5,422C 536.451,415.868 543.784,410.368 551.5,405.5C 551.351,404.448 551.517,403.448 552,402.5C 559.288,394.197 567.288,385.864 576,377.5C 582.891,366.718 591.391,356.385 601.5,346.5C 604.04,345.598 606.54,344.598 609,343.5C 619.124,347.908 621.79,354.908 617,364.5C 612.763,367.706 609.596,371.706 607.5,376.5C 613.981,372.183 620.314,367.683 626.5,363C 629.343,359.644 633.509,357.478 639,356.5C 640.984,356.741 642.817,357.408 644.5,358.5C 647.752,361.572 649.918,365.238 651,369.5C 651.333,369.167 651.667,368.833 652,368.5C 652.667,373.833 652.667,379.167 652,384.5C 651.667,383.5 651.333,382.5 651,381.5C 650.235,387.28 648.902,392.947 647,398.5C 646.667,397.5 646.333,396.5 646,395.5C 645.667,398.5 645.333,401.5 645,404.5C 644.667,403.5 644.333,402.5 644,401.5C 642.3,408.31 640.3,414.976 638,421.5C 637.667,421.167 637.333,420.833 637,420.5C 635.486,424.714 634.153,429.047 633,433.5C 632.667,432.833 632.333,432.167 632,431.5C 631.667,434.5 631.333,437.5 631,440.5C 630.667,440.167 630.333,439.833 630,439.5C 629.605,443.019 628.605,446.352 627,449.5C 626.333,452.5 626.333,455.5 627,458.5C 627.7,460.032 628.866,461.032 630.5,461.5C 630.827,468.542 627.494,473.209 620.5,475.5C 615.99,473.498 613.157,470.165 612,465.5C 611.667,466.167 611.333,466.833 611,467.5C 607.928,458.185 606.594,448.518 607,438.5C 606.654,441.576 605.988,444.576 605,447.5C 604.667,447.167 604.333,446.833 604,446.5C 603.866,443.691 604.032,440.857 604.5,438C 604.589,435.287 603.922,432.787 602.5,430.5C 603.026,428.77 604.026,427.436 605.5,426.5C 606.5,422.5 607.5,418.5 608.5,414.5C 609.251,415.376 609.751,416.376 610,417.5C 611.24,414.588 612.906,411.921 615,409.5C 614.667,413.167 614.333,416.833 614,420.5C 618.145,411.864 622.311,401.864 626.5,390.5C 626.167,389.5 625.833,388.5 625.5,387.5C 624.304,387.846 624.304,388.346 625.5,389C 624.552,389.483 623.552,389.649 622.5,389.5C 620.465,393.865 617.131,396.865 612.5,398.5C 612.649,399.552 612.483,400.552 612,401.5C 611.667,401.167 611.333,400.833 611,400.5C 609.043,404.284 606.543,407.617 603.5,410.5C 590.111,421.392 578.611,434.059 569,448.5C 568.667,447.833 568.333,447.167 568,446.5C 567.667,448.833 567.333,451.167 567,453.5C 565.869,452.396 565.035,452.729 564.5,454.5C 560.764,456.105 557.598,455.439 555,452.5C 554.667,452.833 554.333,453.167 554,453.5C 553.667,452.167 553.333,450.833 553,449.5C 552.667,449.833 552.333,450.167 552,450.5C 549.298,446.612 547.965,442.279 548,437.5C 547.667,437.833 547.333,438.167 547,438.5C 546.798,436.744 546.298,435.078 545.5,433.5C 538.751,441.277 531.585,446.277 524,448.5C 519.089,447.015 514.589,445.015 510.5,442.5C 509.016,441.156 508.182,438.822 508,435.5C 507.667,435.833 507.333,436.167 507,436.5C 502.925,428.604 502.425,420.438 505.5,412C 502.413,414.198 499.08,416.365 495.5,418.5C 490.327,425.36 483.661,431.36 475.5,436.5C 473.577,437.308 471.577,437.808 469.5,438C 469.833,438.333 470.167,438.667 470.5,439C 458.332,440.616 449.499,435.782 444,424.5C 443.667,424.833 443.333,425.167 443,425.5C 442.667,423.5 442.333,421.5 442,419.5C 441.667,420.167 441.333,420.833 441,421.5C 439.919,415.851 438.919,410.184 438,404.5C 430.034,411.29 422.868,418.79 416.5,427C 413.731,429.106 410.731,430.773 407.5,432C 407.833,432.333 408.167,432.667 408.5,433C 405.5,433.333 402.5,433.667 399.5,434C 400.833,434.333 402.167,434.667 403.5,435C 400.167,435.667 396.833,435.667 393.5,435C 393.833,434.667 394.167,434.333 394.5,434C 392.833,433.667 391.167,433.333 389.5,433C 389.833,432.667 390.167,432.333 390.5,432C 387.389,431.556 384.723,430.223 382.5,428C 382.833,427.667 383.167,427.333 383.5,427C 380.288,425.982 378.455,423.816 378,420.5C 377.667,421.167 377.333,421.833 377,422.5C 376.667,420.833 376.333,419.167 376,417.5C 374.984,418.634 374.317,418.301 374,416.5C 373.667,413.5 373.333,410.5 373,407.5C 369.652,411.367 366.652,416.034 364,421.5C 363.667,421.167 363.333,420.833 363,420.5C 358.469,431.969 349.635,435.969 336.5,432.5C 333.163,428.226 329.496,424.892 325.5,422.5C 323.78,423.955 321.78,424.788 319.5,425C 320.167,425.333 320.833,425.667 321.5,426C 317.789,426.825 314.122,426.659 310.5,425.5C 303.282,422.947 297.949,418.28 294.5,411.5C 289.9,400.971 287.733,389.971 288,378.5C 287.667,381.167 287.333,383.833 287,386.5C 286.667,381.167 286.333,375.833 286,370.5C 284.043,375.411 282.377,380.411 281,385.5C 280.667,384.5 280.333,383.5 280,382.5C 279.667,385.5 279.333,388.5 279,391.5C 278.667,390.5 278.333,389.5 278,388.5C 277.999,391.687 277.166,394.52 275.5,397C 275.833,397.333 276.167,397.667 276.5,398C 273.419,405.681 270.919,413.514 269,421.5C 268.667,420.5 268.333,419.5 268,418.5C 267.667,422.167 267.333,425.833 267,429.5C 266.667,428.167 266.333,426.833 266,425.5C 265.667,428.5 265.333,431.5 265,434.5C 264.667,434.167 264.333,433.833 264,433.5C 263.612,437.219 262.945,440.886 262,444.5C 261.667,444.167 261.333,443.833 261,443.5C 260.667,448.167 260.333,452.833 260,457.5C 259.667,456.833 259.333,456.167 259,455.5C 258.21,461.124 255.043,462.957 249.5,461C 250.167,460.667 250.833,460.333 251.5,460C 249.167,459.667 246.833,459.333 244.5,459C 245.167,458.667 245.833,458.333 246.5,458C 242.45,456.784 238.95,453.951 236,449.5C 235.667,449.833 235.333,450.167 235,450.5C 234.667,447.5 234.333,444.5 234,441.5C 233.667,443.167 233.333,444.833 233,446.5C 231.661,435.805 230.995,425.138 231,414.5C 218.101,432.417 203.268,448.751 186.5,463.5C 181.115,466.868 175.948,470.535 171,474.5C 170.586,474.043 170.086,473.709 169.5,473.5C 167.426,476.078 164.76,477.578 161.5,478C 162.167,478.333 162.833,478.667 163.5,479C 157.705,479.867 152.205,480.701 147,481.5C 142.297,480.07 136.13,479.237 128.5,479C 129.5,478.667 130.5,478.333 131.5,478C 120.306,475.473 113.472,468.639 111,457.5C 110.667,458.833 110.333,460.167 110,461.5C 109.333,448.167 109.333,434.833 110,421.5C 110.333,424.833 110.667,428.167 111,431.5C 111.333,424.5 111.667,417.5 112,410.5C 112.333,411.833 112.667,413.167 113,414.5C 115.201,401.06 118.201,388.393 122,376.5C 122.333,377.833 122.667,379.167 123,380.5C 123.333,376.5 123.667,372.5 124,368.5C 124.333,369.833 124.667,371.167 125,372.5C 126.147,366.451 127.481,360.451 129,354.5C 129.333,355.833 129.667,357.167 130,358.5C 130.333,354.833 130.667,351.167 131,347.5C 131.333,348.167 131.667,348.833 132,349.5C 131.954,346.367 132.954,343.7 135,341.5C 137.006,335.491 139.006,329.491 141,323.5C 141.333,324.5 141.667,325.5 142,326.5C 142.333,323.833 142.667,321.167 143,318.5C 143.333,319.5 143.667,320.5 144,321.5C 144.333,319.5 144.667,317.5 145,315.5C 148.138,308.084 151.471,301.418 155,295.5C 155.333,296.167 155.667,296.833 156,297.5C 157.017,292.807 159.851,289.807 164.5,288.5C 165.211,283.147 165.878,277.814 166.5,272.5C 166.291,271.914 165.957,271.414 165.5,271C 166.227,269.601 166.727,268.101 167,266.5C 167.333,266.833 167.667,267.167 168,267.5C 168.333,258.167 168.667,248.833 169,239.5C 169.333,242.5 169.667,245.5 170,248.5C 170.333,240.833 170.667,233.167 171,225.5C 171.419,224.328 172.085,223.328 173,222.5C 173.333,213.5 173.667,204.5 174,195.5C 174.333,199.167 174.667,202.833 175,206.5C 175.333,197.167 175.667,187.833 176,178.5C 176.333,181.833 176.667,185.167 177,188.5C 177.333,182.167 177.667,175.833 178,169.5C 179.594,167.703 181.594,166.703 184,166.5C 187.748,167.708 191.581,168.541 195.5,169C 197.585,170.041 199.252,171.541 200.5,173.5C 201.666,183.817 201.832,194.151 201,204.5C 200.667,202.167 200.333,199.833 200,197.5C 199.5,206.232 198.834,214.898 198,223.5C 208.032,216.995 218.532,210.162 229.5,203C 229.167,202.667 228.833,202.333 228.5,202C 230.218,201.654 231.885,201.154 233.5,200.5C 240.552,194.11 247.886,188.11 255.5,182.5C 258.613,180.037 261.947,178.037 265.5,176.5C 265.325,173.671 266.658,172.004 269.5,171.5C 272.866,168.632 275.7,165.299 278,161.5C 278.333,161.833 278.667,162.167 279,162.5C 282.081,158.082 284.748,153.415 287,148.5C 287.333,148.833 287.667,149.167 288,149.5C 290.752,143.337 292.919,137.004 294.5,130.5C 295.833,126.5 295.833,122.5 294.5,118.5C 292.974,116.87 290.974,116.037 288.5,116C 288.833,115.667 289.167,115.333 289.5,115C 280.167,114.333 270.833,114.333 261.5,115C 262.167,115.333 262.833,115.667 263.5,116C 256.65,117.359 249.983,118.693 243.5,120C 243.833,120.333 244.167,120.667 244.5,121C 241.042,121.597 237.709,122.597 234.5,124C 234.833,124.333 235.167,124.667 235.5,125C 218.692,130.413 203.192,139.913 189,153.5C 188.667,153.167 188.333,152.833 188,152.5C 187.5,153.667 186.667,154.5 185.5,155C 185.833,155.333 186.167,155.667 186.5,156C 185.167,156.333 183.833,156.667 182.5,157C 183.167,157.333 183.833,157.667 184.5,158C 179.938,161.486 175.271,164.819 170.5,168C 170.833,168.333 171.167,168.667 171.5,169C 170.552,169.483 169.552,169.649 168.5,169.5C 165.272,174.248 161.772,178.915 158,183.5C 157.667,183.167 157.333,182.833 157,182.5C 156.667,184.167 156.333,185.833 156,187.5C 155.667,186.833 155.333,186.167 155,185.5C 153.842,188.572 152.509,191.572 151,194.5C 150.667,194.167 150.333,193.833 150,193.5C 149.783,197.6 148.449,201.267 146,204.5C 141.384,208.494 136.884,208.161 132.5,203.5C 131.137,202.107 130.304,200.441 130,198.5C 129.667,199.167 129.333,199.833 129,200.5C 128.971,197.633 128.138,195.133 126.5,193C 127.788,186.878 129.288,182.045 131,178.5C 131.333,178.833 131.667,179.167 132,179.5C 135.422,173.65 139.089,167.984 143,162.5C 143.333,162.833 143.667,163.167 144,163.5C 144.333,162.5 144.667,161.5 145,160.5C 149.818,157.217 153.985,153.217 157.5,148.5C 165.534,140.638 174.201,133.472 183.5,127C 190.977,121.906 199.144,116.739 208,111.5C 208.414,111.957 208.914,112.291 209.5,112.5C 211.972,109.945 214.972,108.445 218.5,108C 217.833,107.667 217.167,107.333 216.5,107C 223.486,105.605 229.486,103.438 234.5,100.5C 237.826,99.9534 241.16,99.4534 244.5,99C 243.5,98.6667 242.5,98.3333 241.5,98C 250.496,97.0655 258.83,96.2322 266.5,95.5C 271.167,95.6667 275.833,95.8333 280.5,96C 279.833,96.3333 279.167,96.6667 278.5,97C 281.833,97.3333 285.167,97.6667 288.5,98C 287.833,98.3333 287.167,98.6667 286.5,99C 288.167,99.3333 289.833,99.6667 291.5,100C 296.964,104.293 302.297,108.793 307.5,113.5C 309.399,115.831 310.566,118.498 311,121.5C 311.333,120.5 311.667,119.5 312,118.5C 312.333,125.167 312.667,131.833 313,138.5C 313.333,134.5 313.667,130.5 314,126.5C 314.667,134.167 314.667,141.833 314,149.5C 313.667,147.833 313.333,146.167 313,144.5C 312.667,148.5 312.333,152.5 312,156.5C 311.667,155.833 311.333,155.167 311,154.5C 309.873,158.314 308.706,162.147 307.5,166C 298.465,179.818 287.799,191.651 275.5,201.5C 271.63,204.54 267.63,207.374 263.5,210C 263.833,210.333 264.167,210.667 264.5,211C 263.167,211.333 261.833,211.667 260.5,212C 265.888,212.716 271.222,213.716 276.5,215C 275.833,215.333 275.167,215.667 274.5,216C 278.539,216.059 281.539,217.059 283.5,219C 282.833,219.333 282.167,219.667 281.5,220C 284.333,221.833 287.167,223.667 290,225.5C 291.629,228.963 294.129,231.629 297.5,233.5C 298.298,235.078 298.798,236.744 299,238.5C 299.333,237.5 299.667,236.5 300,235.5C 300.183,238.365 300.683,241.031 301.5,243.5 Z M 419.5,229.5 C 420.917,225.118 422.417,221.451 424,218.5C 424.333,219.167 424.667,219.833 425,220.5C 432.816,206.449 442.816,194.116 455,183.5C 455.333,183.833 455.667,184.167 456,184.5C 459.183,179.12 460.183,179.786 459,186.5C 456.501,187.822 455.001,189.822 454.5,192.5C 453.325,192.281 452.325,192.614 451.5,193.5C 442.261,204.618 433.428,215.284 425,225.5C 424.667,225.167 424.333,224.833 424,224.5C 423.303,226.923 421.803,228.589 419.5,229.5 Z M 348.5,207.5 C 349.766,204.699 350.599,201.699 351,198.5C 351.333,198.833 351.667,199.167 352,199.5C 357.876,188.623 365.876,179.623 376,172.5C 376.667,174.5 376.667,176.5 376,178.5C 375.667,178.167 375.333,177.833 375,177.5C 371.715,184.103 368.048,190.436 364,196.5C 363.667,196.167 363.333,195.833 363,195.5C 359.249,201.963 354.416,205.963 348.5,207.5 Z M 504.5,271.5 C 506.292,272.309 508.292,272.809 510.5,273C 508.098,273.814 505.765,273.647 503.5,272.5C 503.624,271.893 503.957,271.56 504.5,271.5 Z M 260.5,268.5 C 255.446,270.581 250.446,273.081 245.5,276C 245.833,276.333 246.167,276.667 246.5,277C 240.763,279.381 234.763,280.714 228.5,281C 229.833,281.333 231.167,281.667 232.5,282C 228.833,282.333 225.167,282.667 221.5,283C 222.833,283.333 224.167,283.667 225.5,284C 221.833,284.333 218.167,284.667 214.5,285C 215.833,285.333 217.167,285.667 218.5,286C 212.833,286.333 207.167,286.667 201.5,287C 204.5,287.333 207.5,287.667 210.5,288C 203.508,288.5 196.508,288.666 189.5,288.5C 189.334,284.154 189.501,279.821 190,275.5C 190.333,275.833 190.667,276.167 191,276.5C 192.097,265.802 193.597,255.135 195.5,244.5C 196.59,245.727 197.924,246.56 199.5,247C 198.833,247.333 198.167,247.667 197.5,248C 200.5,248.667 203.5,248.667 206.5,248C 206.167,247.667 205.833,247.333 205.5,247C 210.263,245.44 214.763,243.273 219,240.5C 221.464,239.839 223.964,239.339 226.5,239C 225.833,238.667 225.167,238.333 224.5,238C 227.167,237.667 229.833,237.333 232.5,237C 231.5,236.667 230.5,236.333 229.5,236C 234.598,234.114 240.598,233.114 247.5,233C 245.5,232.667 243.5,232.333 241.5,232C 249.705,231.405 257.872,230.572 266,229.5C 271.359,229.284 276.526,230.117 281.5,232C 279.099,232.805 279.266,233.638 282,234.5C 283.261,245.418 279.761,253.584 271.5,259C 271.833,259.333 272.167,259.667 272.5,260C 268.612,263.065 264.612,265.899 260.5,268.5 Z M 607.5,376.5 C 607.361,378.337 606.694,378.67 605.5,377.5C 605.957,376.702 606.624,376.369 607.5,376.5 Z M 345.5,411.5 C 345.631,412.376 345.298,413.043 344.5,413.5C 343.337,407.863 343.17,402.196 344,396.5C 344.174,401.684 344.674,406.684 345.5,411.5 Z M 248.5,303.5 C 248.664,306.187 248.497,308.854 248,311.5C 247.667,311.167 247.333,310.833 247,310.5C 246.776,314.397 245.776,318.064 244,321.5C 243.667,324.5 243.333,327.5 243,330.5C 242.667,329.833 242.333,329.167 242,328.5C 241.667,335.5 241.333,342.5 241,349.5C 240.667,347.5 240.333,345.5 240,343.5C 237.93,358.153 235.93,370.153 234,379.5C 233.667,379.167 233.333,378.833 233,378.5C 229.969,383.187 226.969,387.854 224,392.5C 223.667,392.167 223.333,391.833 223,391.5C 221.727,393.714 220.727,396.047 220,398.5C 219.667,397.833 219.333,397.167 219,396.5C 212.141,406.639 205.141,415.972 198,424.5C 197.667,424.167 197.333,423.833 197,423.5C 193.953,426.545 191.287,429.878 189,433.5C 188.667,433.167 188.333,432.833 188,432.5C 187.517,433.448 187.351,434.448 187.5,435.5C 186.5,435.5 185.5,435.5 184.5,435.5C 181.809,440.347 177.475,444.513 171.5,448C 172.167,448.333 172.833,448.667 173.5,449C 170.859,449.323 168.525,450.323 166.5,452C 167.167,452.333 167.833,452.667 168.5,453C 165.379,453.726 162.713,455.226 160.5,457.5C 159.914,457.291 159.414,456.957 159,456.5C 157.027,459.5 154.194,461 150.5,461C 151.167,461.333 151.833,461.667 152.5,462C 147.96,463.564 143.293,464.564 138.5,465C 143.727,465.887 143.56,466.387 138,466.5C 136.5,466.333 135,466.167 133.5,466C 134.167,465.667 134.833,465.333 135.5,465C 133.598,464.801 132.098,463.967 131,462.5C 130.168,452.483 130.334,442.483 131.5,432.5C 133.138,428.03 133.971,423.363 134,418.5C 134.333,420.167 134.667,421.833 135,423.5C 135.333,418.833 135.667,414.167 136,409.5C 136.333,410.5 136.667,411.5 137,412.5C 137.582,404.676 138.915,397.009 141,389.5C 141.333,390.833 141.667,392.167 142,393.5C 142.333,389.5 142.667,385.5 143,381.5C 143.333,382.833 143.667,384.167 144,385.5C 146.45,371.866 150.117,358.532 155,345.5C 155.333,346.833 155.667,348.167 156,349.5C 156.333,346.5 156.667,343.5 157,340.5C 157.333,341.5 157.667,342.5 158,343.5C 159.416,338.793 160.749,334.126 162,329.5C 162.333,329.833 162.667,330.167 163,330.5C 164.159,326.432 165.493,322.432 167,318.5C 167.333,318.833 167.667,319.167 168,319.5C 168.333,317.833 168.667,316.167 169,314.5C 169.333,314.833 169.667,315.167 170,315.5C 171.161,312.733 172.327,310.067 173.5,307.5C 175.792,307.244 177.959,307.577 180,308.5C 179.649,316.817 179.649,325.151 180,333.5C 181.5,334.667 183,335.833 184.5,337C 184.167,337.333 183.833,337.667 183.5,338C 185.402,338.199 186.902,339.033 188,340.5C 189.333,340.5 190.667,340.5 192,340.5C 193.563,338.015 195.23,336.349 197,335.5C 198.862,325.26 199.862,314.927 200,304.5C 200.333,307.833 200.667,311.167 201,314.5C 201.498,311.518 201.665,308.518 201.5,305.5C 205.673,304.956 209.506,305.623 213,307.5C 217.667,307.5 222.333,307.5 227,307.5C 231.87,305.746 237.037,304.913 242.5,305C 241.167,304.667 239.833,304.333 238.5,304C 241.817,303.502 245.15,303.335 248.5,303.5 Z M 248.5,303.5 C 248.082,302.778 247.416,302.278 246.5,302C 247.833,301.333 249.167,301.333 250.5,302C 249.956,302.717 249.289,303.217 248.5,303.5 Z M 611.5,423.5 C 612.638,426.304 612.805,429.304 612,432.5C 610.48,429.512 610.314,426.512 611.5,423.5 Z M 609.5,429.5 C 610.802,432.107 610.636,434.773 609,437.5C 608.825,434.843 608.992,432.176 609.5,429.5 Z"/></g>
<g><path style="opacity:0.004" fill="#fefffe" d="M 301.5,242.5 C 302.833,243.167 302.833,243.167 301.5,242.5 Z"/></g>
<g><path style="opacity:0.004" fill="#fefffe" d="M 305.5,239.5 C 306.651,244.65 306.817,249.984 306,255.5C 305.501,250.177 305.334,244.844 305.5,239.5 Z"/></g>
<g><path style="opacity:0.004" fill="#fefffe" d="M 545.5,175.5 C 546.525,175.897 546.692,176.563 546,177.5C 545.536,176.906 545.369,176.239 545.5,175.5 Z"/></g>
<g><path style="opacity:0.004" fill="#fefffe" d="M 474.5,169.5 C 476.288,168.378 478.288,168.211 480.5,169C 478.527,169.495 476.527,169.662 474.5,169.5 Z"/></g>
<g><path style="opacity:0.991" fill="#51889d" d="M 530.5,165.5 C 531.552,165.351 532.552,165.517 533.5,166C 535.029,169.029 537.362,171.195 540.5,172.5C 541.605,175.846 541.438,179.179 540,182.5C 524.35,203.199 510.85,224.866 499.5,247.5C 517.717,222.104 539.051,199.27 563.5,179C 568.343,176.097 571.01,177.263 571.5,182.5C 574.809,182.308 577.309,183.641 579,186.5C 580.008,201.446 577.675,215.779 572,229.5C 568.023,244.137 564.023,258.803 560,273.5C 558.62,280.779 557.786,288.112 557.5,295.5C 559.92,295.292 562.253,295.626 564.5,296.5C 565.568,298.187 565.401,299.854 564,301.5C 561.252,307.271 557.586,307.937 553,303.5C 542.928,289.373 541.761,274.54 549.5,259C 548.424,257.274 548.257,255.441 549,253.5C 554.982,234.558 560.149,215.558 564.5,196.5C 558.848,201.652 553.348,206.985 548,212.5C 529.037,234.438 511.037,257.105 494,280.5C 492.451,283.312 491.618,286.312 491.5,289.5C 489.516,289.383 487.85,290.05 486.5,291.5C 482.47,289.637 479.637,286.637 478,282.5C 475.625,276.831 473.791,270.998 472.5,265C 473.412,260.517 474.246,256.017 475,251.5C 488.773,225.404 503.773,200.071 520,175.5C 523.396,171.935 526.896,168.602 530.5,165.5 Z M 504.5,271.5 C 503.957,271.56 503.624,271.893 503.5,272.5C 505.765,273.647 508.098,273.814 510.5,273C 508.292,272.809 506.292,272.309 504.5,271.5 Z"/></g>
<g><path style="opacity:0.833" fill="#e4ecf0" d="M 493.5,235.5 C 494.239,235.369 494.906,235.536 495.5,236C 489.433,244.632 484.266,253.798 480,263.5C 483.124,253.582 487.624,244.249 493.5,235.5 Z"/></g>
<g><path style="opacity:0.756" fill="#eaf1f3" d="M 503.5,205.5 C 502.654,212.368 499.654,218.534 494.5,224C 495.167,224.333 495.833,224.667 496.5,225C 490.888,233.717 485.388,242.55 480,251.5C 478.138,255.419 476.471,259.419 475,263.5C 474.884,258.961 475.884,254.628 478,250.5C 486.006,235.148 494.506,220.148 503.5,205.5 Z"/></g>
<g><path style="opacity:0.618" fill="#eaf1f3" d="M 564.5,223.5 C 565.598,224.601 565.765,225.934 565,227.5C 560.316,242.215 555.65,256.882 551,271.5C 552.998,254.849 557.498,238.849 564.5,223.5 Z"/></g>
<g><path style="opacity:0.871" fill="#d3e1e6" d="M 568.5,207.5 C 569.497,207.47 570.164,207.97 570.5,209C 569.53,213.726 568.03,218.226 566,222.5C 565.609,217.291 566.442,212.291 568.5,207.5 Z"/></g>
<g><path style="opacity:0.969" fill="#e2ebee" d="M 564.5,203.5 C 565.376,203.369 566.043,203.702 566.5,204.5C 565.633,207.984 564.466,211.317 563,214.5C 563.159,210.83 563.659,207.163 564.5,203.5 Z"/></g>
<g><path style="opacity:0.931" fill="#eaf0f3" d="M 563.5,180.5 C 564.552,180.351 565.552,180.517 566.5,181C 562.915,182.916 560.415,185.749 559,189.5C 557.167,190.667 555.333,191.833 553.5,193C 551.64,196.867 548.64,199.2 544.5,200C 543.128,201.242 542.128,202.742 541.5,204.5C 542.365,205.583 543.365,205.749 544.5,205C 551.069,197.761 558.235,191.261 566,185.5C 561.695,191.139 556.528,196.306 550.5,201C 544.773,206.391 539.439,212.058 534.5,218C 533.833,218.667 533.167,218.667 532.5,218C 535.118,215.261 537.618,212.427 540,209.5C 540.749,208.365 540.583,207.365 539.5,206.5C 537.874,209.458 535.874,212.125 533.5,214.5C 531.802,215.681 530.135,215.681 528.5,214.5C 539.526,202.474 551.192,191.141 563.5,180.5 Z"/></g>
<g><path style="opacity:0.004" fill="#fefffe" d="M 451.5,164.5 C 452.251,163.427 453.251,163.26 454.5,164C 453.552,164.483 452.552,164.649 451.5,164.5 Z"/></g>
<g><path style="opacity:0.992" fill="#50879d" d="M 366.5,156.5 C 371.844,156.334 377.177,156.501 382.5,157C 387.477,160.141 390.144,164.641 390.5,170.5C 387.296,187.07 379.296,200.904 366.5,212C 358.39,217.895 349.39,221.228 339.5,222C 337.729,219.887 336.229,220.053 335,222.5C 328.471,236.475 325.805,251.142 327,266.5C 328.299,267.98 329.966,268.646 332,268.5C 336.824,267.839 341.324,266.339 345.5,264C 352.833,258 360.167,252 367.5,246C 376.39,236.298 385.056,227.132 393.5,218.5C 394.583,219.365 394.749,220.365 394,221.5C 383.5,232.667 373,243.833 362.5,255C 363.167,255.667 363.833,255.667 364.5,255C 378.773,243.394 390.94,229.894 401,214.5C 401.281,212.095 400.615,212.095 399,214.5C 398.333,213.833 398.333,213.167 399,212.5C 409.796,199.799 420.962,187.299 432.5,175C 441.269,168.924 450.935,166.924 461.5,169C 465,171.167 467.833,174 470,177.5C 474.211,171.797 479.377,170.963 485.5,175C 488.697,176.711 490.697,179.378 491.5,183C 482.082,196.672 474.915,211.505 470,227.5C 465.363,241.989 461.363,256.655 458,271.5C 457.65,275.533 457.483,279.367 457.5,283C 454.773,283.818 452.106,283.652 449.5,282.5C 447.851,280.35 446.018,278.35 444,276.5C 442.245,273.4 441.411,270.067 441.5,266.5C 443.188,256.078 445.355,245.744 448,235.5C 451.401,225.401 454.734,215.401 458,205.5C 445.238,221.351 432.238,237.018 419,252.5C 416.247,257.008 413.247,261.341 410,265.5C 409.027,267.392 408.36,269.392 408,271.5C 405.021,274.93 401.521,277.763 397.5,280C 394.697,280.755 392.03,280.422 389.5,279C 379.598,272.027 376.765,262.86 381,251.5C 374.205,260.629 366.371,268.796 357.5,276C 348.685,282.978 339.018,284.311 328.5,280C 319.036,275.862 313.203,268.695 311,258.5C 308.348,243.056 310.015,228.056 316,213.5C 323.544,199.963 331.878,186.963 341,174.5C 348.06,166.244 356.56,160.244 366.5,156.5 Z M 419.5,229.5 C 421.803,228.589 423.303,226.923 424,224.5C 424.333,224.833 424.667,225.167 425,225.5C 433.428,215.284 442.261,204.618 451.5,193.5C 452.325,192.614 453.325,192.281 454.5,192.5C 455.001,189.822 456.501,187.822 459,186.5C 460.183,179.786 459.183,179.12 456,184.5C 455.667,184.167 455.333,183.833 455,183.5C 442.816,194.116 432.816,206.449 425,220.5C 424.667,219.833 424.333,219.167 424,218.5C 422.417,221.451 420.917,225.118 419.5,229.5 Z M 348.5,207.5 C 354.416,205.963 359.249,201.963 363,195.5C 363.333,195.833 363.667,196.167 364,196.5C 368.048,190.436 371.715,184.103 375,177.5C 375.333,177.833 375.667,178.167 376,178.5C 376.667,176.5 376.667,174.5 376,172.5C 365.876,179.623 357.876,188.623 352,199.5C 351.667,199.167 351.333,198.833 351,198.5C 350.599,201.699 349.766,204.699 348.5,207.5 Z"/></g>
<g><path style="opacity:0.298" fill="#f2f6f8" d="M 387.5,234.5 C 388.465,235.721 388.298,237.054 387,238.5C 385.667,239.833 384.333,241.167 383,242.5C 383.667,239.513 385.167,236.846 387.5,234.5 Z"/></g>
<g><path style="opacity:0.988" fill="#b9ced7" d="M 434.5,221.5 C 436.085,222.002 436.585,223.002 436,224.5C 432.688,228.734 428.855,232.401 424.5,235.5C 423.479,234.998 423.312,234.332 424,233.5C 426.72,232.777 428.887,231.277 430.5,229C 429.833,228.667 429.167,228.333 428.5,228C 430.266,226.302 432.266,224.969 434.5,224C 433.402,223.23 433.402,222.397 434.5,221.5 Z"/></g>
<g><path style="opacity:0.706" fill="#ecf2f4" d="M 461.5,190.5 C 462.613,191.946 462.78,193.613 462,195.5C 457.147,202.532 451.814,209.198 446,215.5C 444.672,213.978 444.838,212.311 446.5,210.5C 447.729,209.719 449.062,209.219 450.5,209C 450.384,207.732 450.051,206.398 449.5,205C 454.059,200.609 458.059,195.776 461.5,190.5 Z"/></g>
<g><path style="opacity:0.096" fill="#f3f6f8" d="M 456.5,175.5 C 459.325,175.162 461.492,176.162 463,178.5C 463.667,181.5 463.667,184.5 463,187.5C 442.704,210.798 422.037,233.798 401,256.5C 403.707,249.072 407.04,241.739 411,234.5C 421.019,218.461 432.019,203.128 444,188.5C 447.667,185.5 451.333,182.5 455,179.5C 455.791,178.255 456.291,176.922 456.5,175.5 Z M 419.5,229.5 C 421.803,228.589 423.303,226.923 424,224.5C 424.333,224.833 424.667,225.167 425,225.5C 433.428,215.284 442.261,204.618 451.5,193.5C 452.325,192.614 453.325,192.281 454.5,192.5C 455.001,189.822 456.501,187.822 459,186.5C 460.183,179.786 459.183,179.12 456,184.5C 455.667,184.167 455.333,183.833 455,183.5C 442.816,194.116 432.816,206.449 425,220.5C 424.667,219.833 424.333,219.167 424,218.5C 422.417,221.451 420.917,225.118 419.5,229.5 Z"/></g>
<g><path style="opacity:0.316" fill="#f4f7f8" d="M 379.5,164.5 C 380.748,165.334 381.415,166.667 381.5,168.5C 380.136,176.091 377.303,183.091 373,189.5C 365.366,201.633 354.866,210.3 341.5,215.5C 341.167,215.167 340.833,214.833 340.5,214.5C 345.237,202.948 351.403,192.282 359,182.5C 365.73,176.262 372.564,170.262 379.5,164.5 Z M 348.5,207.5 C 354.416,205.963 359.249,201.963 363,195.5C 363.333,195.833 363.667,196.167 364,196.5C 368.048,190.436 371.715,184.103 375,177.5C 375.333,177.833 375.667,178.167 376,178.5C 376.667,176.5 376.667,174.5 376,172.5C 365.876,179.623 357.876,188.623 352,199.5C 351.667,199.167 351.333,198.833 351,198.5C 350.599,201.699 349.766,204.699 348.5,207.5 Z"/></g>
<g><path style="opacity:0.99" fill="#53899e" d="M 443.5,379.5 C 445.834,376.334 448.667,373.667 452,371.5C 454.23,367.038 455.897,362.372 457,357.5C 465.193,341.78 472.859,325.78 480,309.5C 488.067,297.43 496.901,285.93 506.5,275C 511.463,274.328 515.297,276.161 518,280.5C 518.667,282.833 518.667,285.167 518,287.5C 500.253,306.55 487.087,328.05 478.5,352C 477.692,353.706 476.359,354.539 474.5,354.5C 475.027,359.345 473.36,363.178 469.5,366C 470.308,366.308 470.975,366.808 471.5,367.5C 470.509,368.665 469.509,369.832 468.5,371C 467.514,375.804 465.847,380.304 463.5,384.5C 463.709,385.086 464.043,385.586 464.5,386C 462.058,387.681 460.725,389.681 460.5,392C 460.957,392.414 461.291,392.914 461.5,393.5C 457.769,403.513 456.603,413.847 458,424.5C 458.414,424.957 458.914,425.291 459.5,425.5C 471.816,417.171 483.816,408.504 495.5,399.5C 494.71,400.794 493.71,401.961 492.5,403C 494.417,402.973 496.084,402.139 497.5,400.5C 495.736,403.822 493.07,406.989 489.5,410C 490.167,410.667 490.833,410.667 491.5,410C 499.758,403.62 507.924,397.12 516,390.5C 516.885,388 518.052,385.667 519.5,383.5C 519.376,382.893 519.043,382.56 518.5,382.5C 523.455,374.765 528.789,367.265 534.5,360C 546.824,357.79 549.99,362.29 544,373.5C 535.986,385.837 529.319,398.837 524,412.5C 522.095,418.374 520.928,424.374 520.5,430.5C 524.474,429.379 528.14,427.546 531.5,425C 555.67,404.825 577.17,381.992 596,356.5C 598.884,353.315 602.051,350.482 605.5,348C 607.167,347.333 608.833,347.333 610.5,348C 611.763,350.386 613.597,352.219 616,353.5C 616.667,355.167 616.667,356.833 616,358.5C 610.667,365.833 605.333,373.167 600,380.5C 596.354,383.816 593.021,387.482 590,391.5C 584.43,399.743 579.263,407.743 574.5,415.5C 591.745,396.088 610.745,378.588 631.5,363C 634.536,360.994 637.869,360.16 641.5,360.5C 641.351,361.552 641.517,362.552 642,363.5C 644.2,364.522 646.2,365.855 648,367.5C 648.822,374.634 648.155,381.634 646,388.5C 638.461,407.455 631.128,426.455 624,445.5C 622.11,451.015 621.276,456.681 621.5,462.5C 623.199,462.34 624.866,462.506 626.5,463C 627.207,466.071 626.207,468.738 623.5,471C 619.3,472.31 616.633,470.81 615.5,466.5C 611.789,459.246 610.623,451.579 612,443.5C 618.361,421.084 626.194,399.084 635.5,377.5C 635.167,377.167 634.833,376.833 634.5,376.5C 609.762,397.737 586.929,420.737 566,445.5C 564.872,447.345 564.372,449.345 564.5,451.5C 562.181,452.167 559.847,452.334 557.5,452C 556.696,450.229 555.529,448.729 554,447.5C 551.238,440.786 549.572,433.786 549,426.5C 543.866,430.633 539.032,435.133 534.5,440C 524.201,447.171 515.868,445.338 509.5,434.5C 508.557,431.25 507.557,428.084 506.5,425C 507.891,417.051 509.391,409.217 511,401.5C 505.443,406.691 499.61,411.524 493.5,416C 489.797,419.367 486.464,423.034 483.5,427C 464.725,441.673 451.225,437.84 443,415.5C 442.545,408.47 442.545,401.47 443,394.5C 433.849,402.987 425.349,412.154 417.5,422C 404.3,435.132 391.8,434.632 380,420.5C 376.214,413.32 374.547,405.653 375,397.5C 369,406.833 363,416.167 357,425.5C 350.779,432.046 343.613,433.213 335.5,429C 332.011,426.372 329.178,422.538 327,417.5C 320.439,424.916 313.772,425.25 307,418.5C 306.667,419.167 306.333,419.833 306,420.5C 302.962,417.797 300.295,414.797 298,411.5C 292.825,396.911 289.825,381.911 289,366.5C 289.654,367.696 290.154,367.696 290.5,366.5C 289.833,365.167 288.833,364.167 287.5,363.5C 284.51,367.471 282.01,371.804 280,376.5C 271.261,399.777 263.595,423.443 257,447.5C 257.348,450.936 257.181,454.269 256.5,457.5C 253.813,457.664 251.146,457.497 248.5,457C 244.667,453.833 240.833,450.667 237,447.5C 236.548,444.123 235.882,440.789 235,437.5C 234.66,426.768 234.493,416.102 234.5,405.5C 221.691,423.255 207.358,439.755 191.5,455C 180.79,464.688 168.79,472.355 155.5,478C 144.017,480.037 133.35,478.037 123.5,472C 114.534,464.287 110.534,454.454 111.5,442.5C 118.416,393.578 132.916,346.912 155,302.5C 157.062,300.099 158.729,297.433 160,294.5C 162.421,292.406 165.088,290.74 168,289.5C 170.899,257.444 174.232,225.444 178,193.5C 178.845,186.068 180.178,178.735 182,171.5C 182.308,170.692 182.808,170.025 183.5,169.5C 187.155,170.332 190.821,171.165 194.5,172C 197.102,172.935 198.602,174.768 199,177.5C 198,192.347 196.5,207.181 194.5,222C 194.833,223.833 195.167,225.667 195.5,227.5C 219.218,214.313 241.552,199.146 262.5,182C 279.615,169.263 291.448,152.763 298,132.5C 298.804,126.431 298.471,120.431 297,114.5C 296.333,113.833 295.667,113.167 295,112.5C 293.274,113.576 291.441,113.743 289.5,113C 288.167,112.333 288.167,111.667 289.5,111C 288.667,110.833 287.833,110.667 287,110.5C 282.99,112.135 278.823,112.802 274.5,112.5C 275.263,111.732 276.263,111.232 277.5,111C 267.694,111.134 258.028,112.467 248.5,115C 233.641,120.961 219.307,127.961 205.5,136C 190.076,148.086 175.243,160.919 161,174.5C 152.727,183.734 146.561,194.067 142.5,205.5C 129.849,200.786 127.016,192.453 134,180.5C 141.005,169.486 149.505,159.653 159.5,151C 180.371,131.395 204.037,116.062 230.5,105C 246.42,99.2687 262.753,97.2687 279.5,99C 304.604,106.694 314.77,123.527 310,149.5C 303.172,168.298 292.005,184.132 276.5,197C 268.833,202.667 261.167,208.333 253.5,214C 265.299,213.856 275.633,217.523 284.5,225C 289.746,229.575 294.246,234.742 298,240.5C 298.265,244.967 299.098,249.301 300.5,253.5C 299.782,259.164 297.615,264.164 294,268.5C 288.667,275.167 282.667,281.167 276,286.5C 271.675,295.141 268.342,304.141 266,313.5C 261.398,333.561 257.565,353.561 254.5,373.5C 252.335,390.807 251.169,408.14 251,425.5C 257.055,406.611 263.722,387.944 271,369.5C 273.614,362.557 277.447,356.391 282.5,351C 285.468,350.83 288.301,350.664 291,350.5C 293.439,353.059 296.105,355.392 299,357.5C 300.399,360.363 301.399,363.363 302,366.5C 302.836,374.521 303.836,382.521 305,390.5C 307.235,396.988 308.902,403.655 310,410.5C 311.351,412.019 312.851,413.352 314.5,414.5C 316.149,413.352 317.649,412.019 319,410.5C 320.829,406.172 323.162,402.172 326,398.5C 327.278,383.341 330.611,368.674 336,354.5C 337.333,351.833 338.667,349.167 340,346.5C 343.716,344.066 347.549,343.899 351.5,346C 352.98,347.299 353.646,348.966 353.5,351C 348.574,366.299 344.407,381.799 341,397.5C 340.169,404.856 340.335,412.189 341.5,419.5C 342.7,418.469 344.034,417.635 345.5,417C 356.987,403.338 367.487,389.504 377,375.5C 376.189,376.96 375.355,377.293 374.5,376.5C 380.608,368.285 385.108,359.285 388,349.5C 394.344,334.755 400.011,320.088 405,305.5C 411.798,292.06 419.965,279.56 429.5,268C 436.119,267.462 440.453,270.462 442.5,277C 435.633,286.559 429.133,296.393 423,306.5C 417.423,319.589 411.59,332.589 405.5,345.5C 406.476,347.123 405.976,348.457 404,349.5C 404.108,353.507 402.941,357.007 400.5,360C 402.161,362.424 401.661,364.258 399,365.5C 398.543,372.152 396.71,378.319 393.5,384C 393.645,384.772 393.978,385.439 394.5,386C 391.395,395.591 390.229,405.758 391,416.5C 391.55,420.457 393.384,421.624 396.5,420C 412.058,406.268 427.725,392.768 443.5,379.5 Z M 260.5,268.5 C 264.612,265.899 268.612,263.065 272.5,260C 272.167,259.667 271.833,259.333 271.5,259C 279.761,253.584 283.261,245.418 282,234.5C 279.266,233.638 279.099,232.805 281.5,232C 276.526,230.117 271.359,229.284 266,229.5C 257.872,230.572 249.705,231.405 241.5,232C 243.5,232.333 245.5,232.667 247.5,233C 240.598,233.114 234.598,234.114 229.5,236C 230.5,236.333 231.5,236.667 232.5,237C 229.833,237.333 227.167,237.667 224.5,238C 225.167,238.333 225.833,238.667 226.5,239C 223.964,239.339 221.464,239.839 219,240.5C 214.763,243.273 210.263,245.44 205.5,247C 205.833,247.333 206.167,247.667 206.5,248C 203.5,248.667 200.5,248.667 197.5,248C 198.167,247.667 198.833,247.333 199.5,247C 197.924,246.56 196.59,245.727 195.5,244.5C 193.597,255.135 192.097,265.802 191,276.5C 190.667,276.167 190.333,275.833 190,275.5C 189.501,279.821 189.334,284.154 189.5,288.5C 196.508,288.666 203.508,288.5 210.5,288C 207.5,287.667 204.5,287.333 201.5,287C 207.167,286.667 212.833,286.333 218.5,286C 217.167,285.667 215.833,285.333 214.5,285C 218.167,284.667 221.833,284.333 225.5,284C 224.167,283.667 222.833,283.333 221.5,283C 225.167,282.667 228.833,282.333 232.5,282C 231.167,281.667 229.833,281.333 228.5,281C 234.763,280.714 240.763,279.381 246.5,277C 246.167,276.667 245.833,276.333 245.5,276C 250.446,273.081 255.446,270.581 260.5,268.5 Z M 607.5,376.5 C 606.624,376.369 605.957,376.702 605.5,377.5C 606.694,378.67 607.361,378.337 607.5,376.5 Z M 345.5,411.5 C 344.674,406.684 344.174,401.684 344,396.5C 343.17,402.196 343.337,407.863 344.5,413.5C 345.298,413.043 345.631,412.376 345.5,411.5 Z M 248.5,303.5 C 245.15,303.335 241.817,303.502 238.5,304C 239.833,304.333 241.167,304.667 242.5,305C 237.037,304.913 231.87,305.746 227,307.5C 222.333,307.5 217.667,307.5 213,307.5C 209.506,305.623 205.673,304.956 201.5,305.5C 201.665,308.518 201.498,311.518 201,314.5C 200.667,311.167 200.333,307.833 200,304.5C 199.862,314.927 198.862,325.26 197,335.5C 195.23,336.349 193.563,338.015 192,340.5C 190.667,340.5 189.333,340.5 188,340.5C 186.902,339.033 185.402,338.199 183.5,338C 183.833,337.667 184.167,337.333 184.5,337C 183,335.833 181.5,334.667 180,333.5C 179.649,325.151 179.649,316.817 180,308.5C 177.959,307.577 175.792,307.244 173.5,307.5C 172.327,310.067 171.161,312.733 170,315.5C 169.667,315.167 169.333,314.833 169,314.5C 168.667,316.167 168.333,317.833 168,319.5C 167.667,319.167 167.333,318.833 167,318.5C 165.493,322.432 164.159,326.432 163,330.5C 162.667,330.167 162.333,329.833 162,329.5C 160.749,334.126 159.416,338.793 158,343.5C 157.667,342.5 157.333,341.5 157,340.5C 156.667,343.5 156.333,346.5 156,349.5C 155.667,348.167 155.333,346.833 155,345.5C 150.117,358.532 146.45,371.866 144,385.5C 143.667,384.167 143.333,382.833 143,381.5C 142.667,385.5 142.333,389.5 142,393.5C 141.667,392.167 141.333,390.833 141,389.5C 138.915,397.009 137.582,404.676 137,412.5C 136.667,411.5 136.333,410.5 136,409.5C 135.667,414.167 135.333,418.833 135,423.5C 134.667,421.833 134.333,420.167 134,418.5C 133.971,423.363 133.138,428.03 131.5,432.5C 130.334,442.483 130.168,452.483 131,462.5C 132.098,463.967 133.598,464.801 135.5,465C 134.833,465.333 134.167,465.667 133.5,466C 135,466.167 136.5,466.333 138,466.5C 143.56,466.387 143.727,465.887 138.5,465C 143.293,464.564 147.96,463.564 152.5,462C 151.833,461.667 151.167,461.333 150.5,461C 154.194,461 157.027,459.5 159,456.5C 159.414,456.957 159.914,457.291 160.5,457.5C 162.713,455.226 165.379,453.726 168.5,453C 167.833,452.667 167.167,452.333 166.5,452C 168.525,450.323 170.859,449.323 173.5,449C 172.833,448.667 172.167,448.333 171.5,448C 177.475,444.513 181.809,440.347 184.5,435.5C 185.5,435.5 186.5,435.5 187.5,435.5C 187.351,434.448 187.517,433.448 188,432.5C 188.333,432.833 188.667,433.167 189,433.5C 191.287,429.878 193.953,426.545 197,423.5C 197.333,423.833 197.667,424.167 198,424.5C 205.141,415.972 212.141,406.639 219,396.5C 219.333,397.167 219.667,397.833 220,398.5C 220.727,396.047 221.727,393.714 223,391.5C 223.333,391.833 223.667,392.167 224,392.5C 226.969,387.854 229.969,383.187 233,378.5C 233.333,378.833 233.667,379.167 234,379.5C 235.93,370.153 237.93,358.153 240,343.5C 240.333,345.5 240.667,347.5 241,349.5C 241.333,342.5 241.667,335.5 242,328.5C 242.333,329.167 242.667,329.833 243,330.5C 243.333,327.5 243.667,324.5 244,321.5C 245.776,318.064 246.776,314.397 247,310.5C 247.333,310.833 247.667,311.167 248,311.5C 248.497,308.854 248.664,306.187 248.5,303.5 Z M 248.5,303.5 C 249.289,303.217 249.956,302.717 250.5,302C 249.167,301.333 247.833,301.333 246.5,302C 247.416,302.278 248.082,302.778 248.5,303.5 Z M 611.5,423.5 C 610.314,426.512 610.48,429.512 612,432.5C 612.805,429.304 612.638,426.304 611.5,423.5 Z M 609.5,429.5 C 608.992,432.176 608.825,434.843 609,437.5C 610.636,434.773 610.802,432.107 609.5,429.5 Z"/></g>
<g><path style="opacity:0.5" fill="#e8eff2" d="M 281.5,256.5 C 283.646,256.696 283.812,257.696 282,259.5C 278.833,263.333 275.667,267.167 272.5,271C 269.668,273.538 266.334,275.205 262.5,276C 260.672,278.497 258.672,280.83 256.5,283C 254.35,284.59 252.017,285.257 249.5,285C 252.833,283 255.5,280.333 257.5,277C 267.734,272.726 275.734,265.892 281.5,256.5 Z"/></g>
<g><path style="opacity:0.321" fill="#f2f5f7" d="M 176.5,222.5 C 177.239,222.369 177.906,222.536 178.5,223C 178.008,243.85 176.508,264.683 174,285.5C 173.751,286.624 173.251,287.624 172.5,288.5C 171.337,282.863 171.17,277.196 172,271.5C 173.683,255.184 175.183,238.85 176.5,222.5 Z"/></g>
<g><path style="opacity:0.205" fill="#eff4f6" d="M 292.5,151.5 C 293.573,152.251 293.74,153.251 293,154.5C 273.979,183.778 248.813,206.278 217.5,222C 213.074,223.041 208.741,224.041 204.5,225C 209.377,221.586 214.71,218.919 220.5,217C 224.833,214 229.167,211 233.5,208C 232.833,207.667 232.167,207.333 231.5,207C 233.349,205.907 235.016,204.574 236.5,203C 237.5,203.333 238.5,203.667 239.5,204C 248.122,197.713 256.455,191.047 264.5,184C 263.167,183.333 263.167,182.667 264.5,182C 276.763,174.569 286.096,164.402 292.5,151.5 Z"/></g>
<g><path style="opacity:0.004" fill="#fefffe" d="M 202.5,177.5 C 203.638,180.304 203.805,183.304 203,186.5C 202.502,183.518 202.335,180.518 202.5,177.5 Z"/></g>
<g><path style="opacity:0.804" fill="#dfe9ed" d="M 223.5,114.5 C 224.773,115.077 224.773,115.743 223.5,116.5C 210.705,122.395 198.705,129.562 187.5,138C 186.241,138.982 184.908,139.315 183.5,139C 186.328,136.752 189.328,134.752 192.5,133C 193.833,132.333 193.833,131.667 192.5,131C 198.7,129.302 204.033,126.135 208.5,121.5C 213.942,119.944 218.942,117.61 223.5,114.5 Z"/></g>
<g><path style="opacity:0.004" fill="#fefffe" d="M 294.5,130.5 C 293.833,129.167 293.833,129.167 294.5,130.5 Z"/></g>
<g><path style="opacity:0.004" fill="#fefffe" d="M 294.5,118.5 C 293.833,119.167 293.833,119.167 294.5,118.5 Z"/></g>
<g><path style="opacity:0.004" fill="#fefffe" d="M 468.5,272.5 C 469.525,272.897 469.692,273.563 469,274.5C 468.536,273.906 468.369,273.239 468.5,272.5 Z"/></g>
<g><path style="opacity:0.14" fill="#ecf2f4" d="M 249.5,278.5 C 229.371,287.022 208.371,290.688 186.5,289.5C 188.058,286.895 187.725,284.562 185.5,282.5C 185.952,278.949 186.952,275.615 188.5,272.5C 188.068,265.857 188.902,259.19 191,252.5C 191.333,246.833 191.667,241.167 192,235.5C 192.333,235.167 192.667,234.833 193,234.5C 193.333,236.167 193.667,237.833 194,239.5C 196.167,240.333 197.667,241.833 198.5,244C 199.729,244.781 201.062,245.281 202.5,245.5C 224.17,233.197 247.503,227.03 272.5,227C 277.944,227.311 282.444,229.477 286,233.5C 287.154,240.885 285.487,247.552 281,253.5C 272.42,264.359 261.92,272.692 249.5,278.5 Z M 260.5,268.5 C 264.612,265.899 268.612,263.065 272.5,260C 272.167,259.667 271.833,259.333 271.5,259C 279.761,253.584 283.261,245.418 282,234.5C 279.266,233.638 279.099,232.805 281.5,232C 276.526,230.117 271.359,229.284 266,229.5C 257.872,230.572 249.705,231.405 241.5,232C 243.5,232.333 245.5,232.667 247.5,233C 240.598,233.114 234.598,234.114 229.5,236C 230.5,236.333 231.5,236.667 232.5,237C 229.833,237.333 227.167,237.667 224.5,238C 225.167,238.333 225.833,238.667 226.5,239C 223.964,239.339 221.464,239.839 219,240.5C 214.763,243.273 210.263,245.44 205.5,247C 205.833,247.333 206.167,247.667 206.5,248C 203.5,248.667 200.5,248.667 197.5,248C 198.167,247.667 198.833,247.333 199.5,247C 197.924,246.56 196.59,245.727 195.5,244.5C 193.597,255.135 192.097,265.802 191,276.5C 190.667,276.167 190.333,275.833 190,275.5C 189.501,279.821 189.334,284.154 189.5,288.5C 196.508,288.666 203.508,288.5 210.5,288C 207.5,287.667 204.5,287.333 201.5,287C 207.167,286.667 212.833,286.333 218.5,286C 217.167,285.667 215.833,285.333 214.5,285C 218.167,284.667 221.833,284.333 225.5,284C 224.167,283.667 222.833,283.333 221.5,283C 225.167,282.667 228.833,282.333 232.5,282C 231.167,281.667 229.833,281.333 228.5,281C 234.763,280.714 240.763,279.381 246.5,277C 246.167,276.667 245.833,276.333 245.5,276C 250.446,273.081 255.446,270.581 260.5,268.5 Z"/></g>
<g><path style="opacity:0.925" fill="#c2d5dc" d="M 249.5,278.5 C 250.552,278.351 251.552,278.517 252.5,279C 242.71,284.979 232.21,289.146 221,291.5C 220.5,291.167 220,290.833 219.5,290.5C 230.279,288.245 240.279,284.245 249.5,278.5 Z"/></g>
<g><path style="opacity:0.128" fill="#f3f6f7" d="M 359.5,288.5 C 363.594,287.705 366.761,289.038 369,292.5C 369.778,300.39 368.778,308.057 366,315.5C 365.667,314.5 365.333,313.5 365,312.5C 364.838,316.733 363.838,320.733 362,324.5C 360.601,325.227 359.101,325.727 357.5,326C 357.833,326.333 358.167,326.667 358.5,327C 355.5,327.667 352.5,327.667 349.5,327C 350.5,326.667 351.5,326.333 352.5,326C 350.5,325.667 348.5,325.333 346.5,325C 346.833,324.667 347.167,324.333 347.5,324C 346.151,323.228 345.318,322.061 345,320.5C 344.667,321.167 344.333,321.833 344,322.5C 343.333,319.5 343.333,316.5 344,313.5C 344.333,314.5 344.667,315.5 345,316.5C 348.485,306.533 353.318,297.199 359.5,288.5 Z"/></g>
<g><path style="opacity:0.987" fill="#51889d" d="M 361.5,291.5 C 366.193,294.095 367.693,298.095 366,303.5C 364.031,309.098 362.364,314.764 361,320.5C 356.493,325.619 351.826,325.619 347,320.5C 347.307,315.909 348.64,311.576 351,307.5C 354.36,301.993 357.86,296.66 361.5,291.5 Z"/></g>
<g><path style="opacity:0.004" fill="#fefffe" d="M 567.5,306.5 C 568.833,307.167 568.833,307.167 567.5,306.5 Z"/></g>
<g><path style="opacity:0.428" fill="#edf2f5" d="M 254.5,304.5 C 255.276,309.407 255.609,314.407 255.5,319.5C 254.975,320.192 254.308,320.692 253.5,321C 255.767,322.081 255.934,323.581 254,325.5C 253.641,322.456 252.974,322.122 252,324.5C 248.601,340.796 245.434,357.13 242.5,373.5C 242.304,375.286 241.471,376.619 240,377.5C 243.485,352.957 248.319,328.624 254.5,304.5 Z"/></g>
<g><path style="opacity:0.987" fill="#51889d" d="M 567.5,310.5 C 568.931,310.881 569.764,311.881 570,313.5C 570.667,316.167 570.667,318.833 570,321.5C 566.181,328.324 562.015,334.824 557.5,341C 553.295,341.318 549.795,339.818 547,336.5C 546.333,335.5 546.333,334.5 547,333.5C 552.614,324.72 559.448,317.054 567.5,310.5 Z"/></g>
<g><path style="opacity:0.004" fill="#fefffe" d="M 283.5,347.5 C 284.946,346.387 286.613,346.22 288.5,347C 286.866,347.494 285.199,347.66 283.5,347.5 Z"/></g>
<g><path style="opacity:0.004" fill="#fefffe" d="M 356.5,347.5 C 357.638,350.304 357.805,353.304 357,356.5C 356.502,353.518 356.335,350.518 356.5,347.5 Z"/></g>
<g><path style="opacity:0.277" fill="#eef3f5" d="M 157.5,309.5 C 158.043,309.56 158.376,309.893 158.5,310.5C 140.913,351.143 127.746,393.143 119,436.5C 118.667,444.5 118.333,452.5 118,460.5C 116.387,450.934 116.053,441.267 117,431.5C 121.073,405.874 127.573,381.208 136.5,357.5C 137.897,355.018 138.731,352.352 139,349.5C 145.649,336.384 151.816,323.05 157.5,309.5 Z"/></g>
<g><path style="opacity:0.973" fill="#d1dfe5" d="M 463.5,348.5 C 464.573,349.251 464.74,350.251 464,351.5C 461.393,356.38 459.06,361.38 457,366.5C 456.675,364.447 457.009,362.447 458,360.5C 460.121,356.593 461.955,352.593 463.5,348.5 Z"/></g>
<g><path style="opacity:0.005" fill="#494949" d="M 548.5,362.5 C 549.586,362.62 550.253,363.287 550.5,364.5C 550.253,365.713 549.586,366.38 548.5,366.5C 548.5,365.167 548.5,363.833 548.5,362.5 Z"/></g>
<g><path style="opacity:0.963" fill="#eaf0f3" d="M 622.5,376.5 C 620.545,377.323 618.545,377.49 616.5,377C 621.835,372.198 627.501,368.198 633.5,365C 630.21,369.245 626.543,373.078 622.5,376.5 Z"/></g>
<g><path style="opacity:0.004" fill="#fefffe" d="M 349.5,375.5 C 350.833,376.167 350.833,376.167 349.5,375.5 Z"/></g>
<g><path style="opacity:0.974" fill="#e9f0f2" d="M 622.5,376.5 C 627.435,373.413 632.268,370.079 637,366.5C 637.667,367.167 637.667,367.833 637,368.5C 627.122,375.11 617.789,382.443 609,390.5C 608.333,389.833 608.333,389.167 609,388.5C 612.079,387.324 613.245,385.324 612.5,382.5C 610.528,384.829 608.528,387.162 606.5,389.5C 605.109,390.645 603.776,390.645 602.5,389.5C 606.493,385.676 610.66,382.009 615,378.5C 614.737,379.951 614.904,381.284 615.5,382.5C 618.091,380.719 620.425,378.719 622.5,376.5 Z"/></g>
<g><path style="opacity:0.532" fill="#eff4f6" d="M 443.5,379.5 C 446.056,378.457 448.223,376.79 450,374.5C 450.014,376.471 449.681,378.471 449,380.5C 440.237,389.864 430.904,398.53 421,406.5C 420.833,406.167 420.667,405.833 420.5,405.5C 424.4,402.001 428.067,398.334 431.5,394.5C 430.975,393.808 430.308,393.308 429.5,393C 434.434,388.714 439.1,384.214 443.5,379.5 Z"/></g>
<g><path style="opacity:0.665" fill="#ecf2f4" d="M 445.5,386.5 C 446.573,387.251 446.74,388.251 446,389.5C 440.15,396.618 433.317,402.118 425.5,406C 431.58,398.813 438.246,392.313 445.5,386.5 Z"/></g>
<g><path style="opacity:0.986" fill="#e9eff2" d="M 637.5,386.5 C 637.913,390.178 637.079,393.844 635,397.5C 634.486,393.538 635.32,389.871 637.5,386.5 Z"/></g>
<g><path style="opacity:0.271" fill="#f1f5f6" d="M 281.5,355.5 C 282.995,355.415 283.995,356.081 284.5,357.5C 277.608,369.526 272.442,382.193 269,395.5C 264.813,405.721 260.813,416.054 257,426.5C 259.99,413.846 262.99,401.179 266,388.5C 266.894,385.867 268.394,383.7 270.5,382C 268.849,379.119 269.516,376.952 272.5,375.5C 275.124,368.613 278.124,361.946 281.5,355.5 Z"/></g>
<g><path style="opacity:0.562" fill="#ecf2f4" d="M 518.5,382.5 C 519.043,382.56 519.376,382.893 519.5,383.5C 518.052,385.667 516.885,388 516,390.5C 507.924,397.12 499.758,403.62 491.5,410C 490.833,410.667 490.167,410.667 489.5,410C 493.07,406.989 495.736,403.822 497.5,400.5C 496.084,402.139 494.417,402.973 492.5,403C 493.71,401.961 494.71,400.794 495.5,399.5C 504.017,394.983 511.683,389.317 518.5,382.5 Z"/></g>
<g><path style="opacity:0.8" fill="#79a3b4" d="M 518.5,382.5 C 511.683,389.317 504.017,394.983 495.5,399.5C 502.88,393.455 510.546,387.788 518.5,382.5 Z"/></g>
<g><path style="opacity:0.701" fill="#eaf0f3" d="M 512.5,394.5 C 514.688,395.536 514.688,397.036 512.5,399C 506.282,404.219 499.782,409.052 493,413.5C 492.735,411.837 493.235,410.337 494.5,409C 500.753,404.387 506.753,399.554 512.5,394.5 Z"/></g>
<g><path style="opacity:0.135" fill="#f0f4f6" d="M 250.5,297.5 C 251.978,297.238 253.311,297.571 254.5,298.5C 247.174,324.79 241.674,351.457 238,378.5C 222.004,400.504 204.504,421.338 185.5,441C 173.472,453.017 159.472,462.017 143.5,468C 139.5,468.667 135.5,468.667 131.5,468C 129.959,466.421 128.792,464.587 128,462.5C 127.333,453.833 127.333,445.167 128,436.5C 132.242,412.784 137.909,389.45 145,366.5C 150.333,352.5 155.667,338.5 161,324.5C 164.373,317.139 168.539,310.306 173.5,304C 176.708,304.619 180.042,305.119 183.5,305.5C 182.948,313.834 182.781,322.168 183,330.5C 184.412,335.291 187.579,337.124 192.5,336C 193.46,334.581 194.293,333.081 195,331.5C 195.5,324 196,316.5 196.5,309C 196.53,305.245 196.03,301.745 195,298.5C 197.469,300.652 200.302,302.152 203.5,303C 219.842,305.781 235.508,303.948 250.5,297.5 Z M 248.5,303.5 C 245.15,303.335 241.817,303.502 238.5,304C 239.833,304.333 241.167,304.667 242.5,305C 237.037,304.913 231.87,305.746 227,307.5C 222.333,307.5 217.667,307.5 213,307.5C 209.506,305.623 205.673,304.956 201.5,305.5C 201.665,308.518 201.498,311.518 201,314.5C 200.667,311.167 200.333,307.833 200,304.5C 199.862,314.927 198.862,325.26 197,335.5C 195.23,336.349 193.563,338.015 192,340.5C 190.667,340.5 189.333,340.5 188,340.5C 186.902,339.033 185.402,338.199 183.5,338C 183.833,337.667 184.167,337.333 184.5,337C 183,335.833 181.5,334.667 180,333.5C 179.649,325.151 179.649,316.817 180,308.5C 177.959,307.577 175.792,307.244 173.5,307.5C 172.327,310.067 171.161,312.733 170,315.5C 169.667,315.167 169.333,314.833 169,314.5C 168.667,316.167 168.333,317.833 168,319.5C 167.667,319.167 167.333,318.833 167,318.5C 165.493,322.432 164.159,326.432 163,330.5C 162.667,330.167 162.333,329.833 162,329.5C 160.749,334.126 159.416,338.793 158,343.5C 157.667,342.5 157.333,341.5 157,340.5C 156.667,343.5 156.333,346.5 156,349.5C 155.667,348.167 155.333,346.833 155,345.5C 150.117,358.532 146.45,371.866 144,385.5C 143.667,384.167 143.333,382.833 143,381.5C 142.667,385.5 142.333,389.5 142,393.5C 141.667,392.167 141.333,390.833 141,389.5C 138.915,397.009 137.582,404.676 137,412.5C 136.667,411.5 136.333,410.5 136,409.5C 135.667,414.167 135.333,418.833 135,423.5C 134.667,421.833 134.333,420.167 134,418.5C 133.971,423.363 133.138,428.03 131.5,432.5C 130.334,442.483 130.168,452.483 131,462.5C 132.098,463.967 133.598,464.801 135.5,465C 134.833,465.333 134.167,465.667 133.5,466C 135,466.167 136.5,466.333 138,466.5C 143.56,466.387 143.727,465.887 138.5,465C 143.293,464.564 147.96,463.564 152.5,462C 151.833,461.667 151.167,461.333 150.5,461C 154.194,461 157.027,459.5 159,456.5C 159.414,456.957 159.914,457.291 160.5,457.5C 162.713,455.226 165.379,453.726 168.5,453C 167.833,452.667 167.167,452.333 166.5,452C 168.525,450.323 170.859,449.323 173.5,449C 172.833,448.667 172.167,448.333 171.5,448C 177.475,444.513 181.809,440.347 184.5,435.5C 185.5,435.5 186.5,435.5 187.5,435.5C 187.351,434.448 187.517,433.448 188,432.5C 188.333,432.833 188.667,433.167 189,433.5C 191.287,429.878 193.953,426.545 197,423.5C 197.333,423.833 197.667,424.167 198,424.5C 205.141,415.972 212.141,406.639 219,396.5C 219.333,397.167 219.667,397.833 220,398.5C 220.727,396.047 221.727,393.714 223,391.5C 223.333,391.833 223.667,392.167 224,392.5C 226.969,387.854 229.969,383.187 233,378.5C 233.333,378.833 233.667,379.167 234,379.5C 235.93,370.153 237.93,358.153 240,343.5C 240.333,345.5 240.667,347.5 241,349.5C 241.333,342.5 241.667,335.5 242,328.5C 242.333,329.167 242.667,329.833 243,330.5C 243.333,327.5 243.667,324.5 244,321.5C 245.776,318.064 246.776,314.397 247,310.5C 247.333,310.833 247.667,311.167 248,311.5C 248.497,308.854 248.664,306.187 248.5,303.5 Z M 248.5,303.5 C 249.289,303.217 249.956,302.717 250.5,302C 249.167,301.333 247.833,301.333 246.5,302C 247.416,302.278 248.082,302.778 248.5,303.5 Z"/></g>
<g><path style="opacity:0.935" fill="#e4ecf0" d="M 632.5,400.5 C 633.043,400.56 633.376,400.893 633.5,401.5C 627.687,414.791 622.187,428.125 617,441.5C 619.872,427.068 625.039,413.401 632.5,400.5 Z"/></g>
<g><path style="opacity:0.706" fill="#dae6ea" d="M 569.5,404.5 C 571.028,404.517 571.528,405.184 571,406.5C 565.757,412.648 561.257,419.315 557.5,426.5C 556.998,427.521 556.332,427.688 555.5,427C 560.052,419.388 564.719,411.888 569.5,404.5 Z"/></g>
<g><path style="opacity:0.004" fill="#fefffe" d="M 460.5,417.5 C 461.833,418.167 461.833,418.167 460.5,417.5 Z"/></g>
<g><path style="opacity:0.387" fill="#f2f5f7" d="M 237.5,401.5 C 238.588,413.349 238.421,425.349 237,437.5C 236.424,425.489 236.59,413.489 237.5,401.5 Z"/></g>
<g><path style="opacity:0.004" fill="#fefffe" d="M 498.5,422.5 C 499.598,423.601 499.765,424.934 499,426.5C 498.51,425.207 498.343,423.873 498.5,422.5 Z"/></g>
<g><path style="opacity:0.004" fill="#fefffe" d="M 591.5,423.5 C 592.833,424.167 592.833,424.167 591.5,423.5 Z"/></g>
<g><path style="opacity:0.004" fill="#fefffe" d="M 595.5,423.5 C 596.833,424.167 596.833,424.167 595.5,423.5 Z"/></g>
<g><path style="opacity:0.884" fill="#d9e5e9" d="M 218.5,419.5 C 219.239,419.369 219.906,419.536 220.5,420C 214.693,428.474 207.693,435.474 199.5,441C 205.578,433.488 211.911,426.322 218.5,419.5 Z"/></g>
<g><path style="opacity:0.004" fill="#fefffe" d="M 340.5,435.5 C 343.304,434.362 346.304,434.195 349.5,435C 346.518,435.498 343.518,435.665 340.5,435.5 Z"/></g>
<g><path style="opacity:0.004" fill="#fefffe" d="M 107.5,436.5 C 108.65,441.316 108.816,446.316 108,451.5C 107.501,446.511 107.334,441.511 107.5,436.5 Z"/></g>
<g><path style="opacity:0.752" fill="#edf2f5" d="M 232.5,394.5 C 233.043,394.56 233.376,394.893 233.5,395.5C 220.876,413.636 206.209,430.136 189.5,445C 187.309,446.919 184.976,448.253 182.5,449C 200.535,431.811 217.202,413.644 232.5,394.5 Z"/></g>
</svg>
