<svg xml:space="preserve" viewBox="197.02 492.01 652.3199999999999 464.4" version="1.1" xmlns:xlink="http://www.w3.org/1999/xlink" xmlns="http://www.w3.org/2000/svg" style="max-height: 500px" width="652.3199999999999" height="464.4">
<desc>Created with Fabric.js 5.2.4</desc>
<defs>
</defs>
<g id="9056f30f-bcf4-4547-8f04-bd5112751a41" transform="matrix(1 0 0 1 540 540)">
</g>
<g id="6cfaed5a-703f-482e-9938-cad73ec97e87" transform="matrix(1 0 0 1 540 540)">
<rect height="1080" width="1080" ry="0" rx="0" y="-540" x="-540" style="stroke: none; stroke-width: 1; stroke-dasharray: none; stroke-linecap: butt; stroke-dashoffset: 0; stroke-linejoin: miter; stroke-miterlimit: 4; fill: rgb(255,255,255); fill-rule: nonzero; opacity: 1; visibility: hidden;"/>
</g>
<g transform="matrix(-4.55 1.4 -1.64 -5.31 509.96 731.09)">
<path stroke-linecap="round" d="M 36.1 -31.3 C 45.8 -26.4 52.1 -13.2 50.7 -1.4 C 49.2 10.4 40.2 20.7 30.4 28.3 C 20.7 36 10.4 40.9 -0.2 41.1 C -10.8 41.3 -21.5 36.8 -36.8 29.2 C -52.1 21.5 -71.9 10.8 -77.6 -5.7 C -83.4 -22.3 -75.1 -44.5 -59.8 -49.4 C -44.5 -54.3 -22.3 -41.8 -4.5 -37.3 C 13.2 -32.8 26.4 -36.2 36.1 -31.3 Z" transform="translate(14.28, 4.71)" style="stroke: rgb(0,0,0); stroke-width: 0; stroke-dasharray: none; stroke-linecap: butt; stroke-dashoffset: 0; stroke-linejoin: miter; stroke-miterlimit: 4; fill: rgb(238,247,255); fill-rule: nonzero; opacity: 1;"/>
</g>
<g transform="matrix(0.71 0 0 0.71 524.09 738.95)">
<g style="">
		<g transform="matrix(1 0 0 1 0 168.47)">
<ellipse ry="12.43462" rx="444.53778" cy="0" cx="0" style="stroke: none; stroke-width: 1; stroke-dasharray: none; stroke-linecap: butt; stroke-dashoffset: 0; stroke-linejoin: miter; stroke-miterlimit: 4; fill: rgb(230,230,230); fill-rule: nonzero; opacity: 1;"/>
</g>
		<g transform="matrix(1 0 0 1 235.14 -15.46)">
<path stroke-linecap="round" d="M 836.90729 483.74151 C 836.34594 483.74921 835.78464 483.75691 835.21564 483.75691 C 834.64664 483.75691 834.08534 483.74921 833.524 483.74151 C 803.76659 483.06486 782.19826 464.47226 787.68839 444.96464000000003 L 801.07539 397.37586000000005 L 804.45867 385.33452000000005 L 864.43482 386.35715000000005 L 868.0795199999999 398.13709000000006 L 882.4276799999999 444.5033000000001 C 888.50213 464.11853 866.93379 483.06486 836.90729 483.74151 Z" transform="translate(-835.14, -434.55)" style="stroke: none; stroke-width: 1; stroke-dasharray: none; stroke-linecap: butt; stroke-dashoffset: 0; stroke-linejoin: miter; stroke-miterlimit: 4; fill: rgb(63,61,86); fill-rule: nonzero; opacity: 1;"/>
</g>
		<g transform="matrix(1 0 0 1 234.58 -53.91)">
<path stroke-linecap="round" d="M 868.07949 398.13709 C 847.2560628059981 410.04029597382987 821.6229841383525 409.7490800670765 801.0753599999999 397.37586 L 804.45864 385.33452 L 864.4347899999999 386.35715 Z" transform="translate(-834.58, -396.1)" style="stroke: none; stroke-width: 1; stroke-dasharray: none; stroke-linecap: butt; stroke-dashoffset: 0; stroke-linejoin: miter; stroke-miterlimit: 4; fill: rgb(0,0,0); fill-rule: nonzero; opacity: 0.2;"/>
</g>
		<g transform="matrix(1 0 0 1 300.99 -43.01)">
<path stroke-linecap="round" d="M 865.54813 446.54371 C 868.139 436.88770999999997 876.65422 422.95840999999996 900.5347 406.16378999999995 C 942.1825600000001 376.86951999999997 917.3378200000001 354.90453999999994 916.26124 353.98418999999996 C 914.00278 352.05377999999996 914.3363300000001 349.88625999999994 917.03673 349.14566999999994 C 920.2104768846078 348.5112306899241 923.503610563459 349.2777279611134 926.07099 351.24844999999993 C 927.4194200000001 352.36385999999993 958.5302700000001 378.93137999999993 911.53393 411.98261999999994 C 869.2388500000001 441.7321299999999 878.2315600000001 461.15175999999997 878.33473 461.33806999999996 C 879.4681400000001 463.41506999999996 877.6507300000001 465.07688999999993 874.27173 465.05450999999994 C 870.89273 465.03212999999994 867.2324600000001 463.3318299999999 866.0955 461.2570099999999 C 865.8564 460.81807 863.1348 455.53283 865.54813 446.54371 Z" transform="translate(-900.98, -406.99)" style="stroke: none; stroke-width: 1; stroke-dasharray: none; stroke-linecap: butt; stroke-dashoffset: 0; stroke-linejoin: miter; stroke-miterlimit: 4; fill: rgb(63,61,86); fill-rule: nonzero; opacity: 1;"/>
</g>
		<g transform="matrix(1 0 0 1 207.53 18.76)">
<path stroke-linecap="round" d="M 807.53434 490.67723 C 805.6989464511704 490.6772644793138 803.9387159474322 489.94817250207296 802.6408967226796 488.6503532773204 C 801.3430774979271 487.3525340525679 800.6139855206862 485.5923035488297 800.6140200000001 483.75691 L 800.6140200000001 453.76883 C 800.6140200000001 449.9468400386272 803.7123550386273 446.848505 807.534345 446.848505 C 811.3563349613729 446.848505 814.4546700000001 449.9468400386272 814.4546700000001 453.76883 L 814.4546700000001 483.75691 C 814.4547044793982 485.592305281477 813.7256111294606 487.3525373007478 812.4277897418543 488.65035681297917 C 811.1299683542479 489.94817632521057 809.3697352814253 490.67726713157884 807.53434 490.67723 Z" transform="translate(-807.53, -468.76)" style="stroke: none; stroke-width: 1; stroke-dasharray: none; stroke-linecap: butt; stroke-dashoffset: 0; stroke-linejoin: miter; stroke-miterlimit: 4; fill: rgb(63,61,86); fill-rule: nonzero; opacity: 1;"/>
</g>
		<g transform="matrix(1 0 0 1 193.7 -39.67)">
<path stroke-linecap="round" d="M 813.602 419.48415 C 812.8348894724132 421.15154877888745 811.436810945656 422.44591037168624 809.7153403856285 423.08247644078534 C 807.993869825601 423.7190425098844 806.0900286019508 423.645666117067 804.42266 422.87849 L 777.1796599999999 410.34434 C 773.7118309089187 408.7443744495157 772.1956978183318 404.63759031609123 773.7919844185523 401.1680662193825 C 775.3882710187728 397.6985421226738 779.4934448005869 396.1780541457317 782.9646599999999 397.77065999999996 L 810.2076599999999 410.30481 C 811.8750587788874 411.0719205275867 813.1694203716862 412.46999905434393 813.8059864407853 414.19146961437144 C 814.4425525098843 415.91294017439895 814.369176117067 417.8167813980491 813.602 419.48415 Z" transform="translate(-793.7, -410.33)" style="stroke: none; stroke-width: 1; stroke-dasharray: none; stroke-linecap: butt; stroke-dashoffset: 0; stroke-linejoin: miter; stroke-miterlimit: 4; fill: rgb(63,61,86); fill-rule: nonzero; opacity: 1;"/>
</g>
		<g transform="matrix(1 0 0 1 276.74 -39.67)">
<path stroke-linecap="round" d="M 856.82926 419.48415 C 857.5963705275867 421.15154877888745 858.9944490543439 422.44591037168624 860.7159196143715 423.08247644078534 C 862.437390174399 423.7190425098844 864.3412313980491 423.645666117067 866.0086 422.87849 L 893.2516 410.34434 C 895.4976716012583 409.31094928119063 897.0218199634231 407.15779194436664 897.2499131495282 404.6959415195535 C 897.4780063356334 402.2340910947404 896.3753915646813 399.83756122555724 894.3574131495283 398.4091015195535 C 892.3394347343751 396.98064181354977 889.7126716012583 396.7372692811906 887.4666000000001 397.77065999999996 L 860.2236 410.30481 C 858.5562030683666 411.07192259729425 857.2618432315784 412.4700012537002 856.6252774444945 414.1914710510718 C 855.9887116574107 415.9129408484433 856.0620866323271 417.81678102809195 856.82926 419.48415 Z" transform="translate(-876.74, -410.32)" style="stroke: none; stroke-width: 1; stroke-dasharray: none; stroke-linecap: butt; stroke-dashoffset: 0; stroke-linejoin: miter; stroke-miterlimit: 4; fill: rgb(63,61,86); fill-rule: nonzero; opacity: 1;"/>
</g>
		<g transform="matrix(1 0 0 1 262.9 18.76)">
<path stroke-linecap="round" d="M 862.89684 490.67723 C 864.7322343619078 490.67726713166564 866.4924664067255 489.94817600616983 867.7902862064477 488.65035620644767 C 869.0881060061698 487.3525364067255 869.8171971316656 485.5923043619078 869.81716 483.75691 L 869.81716 453.76883 C 869.81716 449.94684280005094 866.718827199949 446.84851 862.8968399999999 446.84851 C 859.0748528000508 446.84851 855.9765199999999 449.94684280005094 855.9765199999999 453.76883 L 855.9765199999999 483.75691 C 855.9764828683343 485.59230436190785 856.7055739938301 487.35253640672556 858.0033937935523 488.6503562064477 C 859.3012135932744 489.9481760061699 861.0614456380922 490.67726713166564 862.89684 490.67723 Z" transform="translate(-862.9, -468.76)" style="stroke: none; stroke-width: 1; stroke-dasharray: none; stroke-linecap: butt; stroke-dashoffset: 0; stroke-linejoin: miter; stroke-miterlimit: 4; fill: rgb(63,61,86); fill-rule: nonzero; opacity: 1;"/>
</g>
		<g transform="matrix(1 0 0 1 235.23 -131.05)">
<path stroke-linecap="round" d="M 891.81774 296.5349 C 893.0275788876172 295.0113017699904 893.5275045161798 293.04276316714703 893.19124 291.12651999999997 L 889.42485 268.96952 L 885.65846 246.81251999999998 C 885.2445665463785 244.37767005579863 883.5631358945082 242.34858562755423 881.247547015304 241.48960356474137 C 878.9319581360999 240.63062150192852 876.3340042755156 241.07224169198696 874.43231 242.64810999999997 L 857.127 256.9884 L 846.7011299999999 265.62791 C 839.7480733677186 264.3915202166728 832.6411420360507 264.28436159488706 825.65397 265.31056 L 815.61106 256.9884 L 798.3057399999999 242.64812 C 796.4040457086476 241.072256960778 793.8060953565453 240.6306399561757 791.4905098673427 241.4896215266078 C 789.17492437814 242.34860309703987 787.4934954872733 244.3776837991564 787.0795999999999 246.81253 L 783.3132099999999 268.96953 L 779.5468199999999 291.12653 C 779.3457011650477 292.2910452430846 779.4495516494392 293.4877959833495 779.8482599999999 294.60026 C 761.9795901831479 321.993056900926 766.8234157154384 358.33409750053266 791.2430675980887 380.09036751653565 C 815.662719480739 401.84663753253864 852.31967948762 402.48001001651653 877.476356477866 381.58033810790806 C 902.6330334681122 360.6806661992996 908.7294207107132 324.52865463372024 891.8177399999998 296.53490999999997 Z" transform="translate(-835.23, -318.95)" style="stroke: none; stroke-width: 1; stroke-dasharray: none; stroke-linecap: butt; stroke-dashoffset: 0; stroke-linejoin: miter; stroke-miterlimit: 4; fill: rgb(63,61,86); fill-rule: nonzero; opacity: 1;"/>
</g>
		<g transform="matrix(1 0 0 1 204.77 -181.41)">
<path stroke-linecap="round" d="M 796.57153 251.7278 C 796.1611317537538 251.72838940573186 795.7541365706551 251.80226230620045 795.36971 251.94594 C 794.2187373120781 252.36491842130474 793.383540509914 253.37252430157426 793.18533 254.58124 L 788.618 281.45081 C 788.4131333686244 282.6563053712521 788.8669541032453 283.87952392833074 789.8085117928025 284.6596896440587 C 790.7500694823595 285.43985535978663 792.0363185838191 285.65844206237387 793.1827400000001 285.23311 L 818.7359700000001 275.75370000000004 C 819.8822293908506 275.32845317716703 820.7145694365292 274.3240120876142 820.9194816677888 273.11870862834644 C 821.1243938990483 271.9134051690786 820.6707503497419 270.69033551276505 819.7294200000001 269.91018 L 819.7290400000002 269.90942 L 798.7435500000001 252.51963 C 798.1345942334272 252.00950407245446 797.3659187009287 251.72927629052876 796.57153 251.7278 Z" transform="translate(-804.77, -268.59)" style="stroke: none; stroke-width: 1; stroke-dasharray: none; stroke-linecap: butt; stroke-dashoffset: 0; stroke-linejoin: miter; stroke-miterlimit: 4; fill: rgb(230,230,230); fill-rule: nonzero; opacity: 1;"/>
</g>
		<g transform="matrix(1 0 0 1 267.97 -181.41)">
<path stroke-linecap="round" d="M 876.16653 251.7278 C 875.3721481754692 251.72928097181062 874.6034804932825 252.00950847217246 873.9945299999999 252.51963 L 853.00866 269.91018 C 852.0673291957214 270.6903340260326 851.6136841598311 271.9134023697781 851.8185942860493 273.11870557959367 C 852.0235044122677 274.3240087894092 852.8558420860282 275.3284509176073 854.0020999999999 275.75370000000004 L 879.5553399999999 285.23311 C 880.7017614161808 285.65844206237387 881.9880105176404 285.43985535978663 882.9295682071975 284.6596896440587 C 883.8711258967546 283.87952392833074 884.3249466313756 282.6563053712521 884.1200799999999 281.45081 L 879.5527099999999 254.58123999999998 C 879.3545073044421 253.3725239570787 878.5193125911837 252.36491598413917 877.36834 251.94593999999998 C 876.9839165775248 251.8022634775789 876.5769248854929 251.72839059609194 876.16653 251.7278 Z" transform="translate(-867.97, -268.59)" style="stroke: none; stroke-width: 1; stroke-dasharray: none; stroke-linecap: butt; stroke-dashoffset: 0; stroke-linejoin: miter; stroke-miterlimit: 4; fill: rgb(230,230,230); fill-rule: nonzero; opacity: 1;"/>
</g>
		<g transform="matrix(1 0 0 1 235.22 -110.03)">
<circle r="9.2271" cy="0" cx="0" style="stroke: none; stroke-width: 1; stroke-dasharray: none; stroke-linecap: butt; stroke-dashoffset: 0; stroke-linejoin: miter; stroke-miterlimit: 4; fill: rgb(230,230,230); fill-rule: nonzero; opacity: 1;"/>
</g>
		<g transform="matrix(1 0 0 1 235.21 -114.64)">
<ellipse ry="2.30677" rx="6.1514" cy="0" cx="0" style="stroke: none; stroke-width: 1; stroke-dasharray: none; stroke-linecap: butt; stroke-dashoffset: 0; stroke-linejoin: miter; stroke-miterlimit: 4; fill: rgb(63,61,86); fill-rule: nonzero; opacity: 1;"/>
</g>
		<g transform="matrix(1 0 0 1 234.83 -97.35)">
<path stroke-linecap="round" d="M 675.13987 125.04018 L 683.598 125.04018 L 683.598 135.42067 C 683.598 137.7563263898144 681.7045763898144 139.64974999999998 679.36892 139.64975 L 679.36892 139.64975 C 677.0332636101856 139.64974999999998 675.13984 137.7563263898144 675.13984 135.42067 L 675.13984 125.04018 Z" transform="translate(-679.37, -132.34)" style="stroke: none; stroke-width: 1; stroke-dasharray: none; stroke-linecap: butt; stroke-dashoffset: 0; stroke-linejoin: miter; stroke-miterlimit: 4; fill: rgb(255,101,132); fill-rule: nonzero; opacity: 1;"/>
</g>
		<g transform="matrix(1 0 0 1 232.42 -190.24)">
<path stroke-linecap="round" d="M 835.729 240.68976 C 835.2855000000001 241.60952 834.85486 242.53924 834.44984 243.48796000000002 C 829.6778451252646 254.61710850852808 828.0685426840749 266.8470056647269 829.79903 278.83180000000004 C 830.66477 277.57572000000005 831.5745900000001 276.26709000000005 832.50003 274.94404000000003 C 830.5180579579572 263.4416975759501 831.6325100790409 251.61911792912917 835.729 240.68976 Z" transform="translate(-832.43, -259.76)" style="stroke: none; stroke-width: 1; stroke-dasharray: none; stroke-linecap: butt; stroke-dashoffset: 0; stroke-linejoin: miter; stroke-miterlimit: 4; fill: rgb(63,61,86); fill-rule: nonzero; opacity: 1;"/>
</g>
		<g transform="matrix(1 0 0 1 239.34 -181.78)">
<path stroke-linecap="round" d="M 842.64935 249.14794 C 842.20585 250.0677 841.7752 250.99741 841.37019 251.94613 C 836.5981867113669 263.0752867436035 834.9888807217279 275.3051949507635 836.71937 287.29 C 837.5851200000001 286.03393 838.4949300000001 284.72529000000003 839.4203200000001 283.40225000000004 C 837.4383616523614 271.89989255566616 838.5528345634636 260.0773016898343 842.64935 249.14794000000006 Z" transform="translate(-839.35, -268.22)" style="stroke: none; stroke-width: 1; stroke-dasharray: none; stroke-linecap: butt; stroke-dashoffset: 0; stroke-linejoin: miter; stroke-miterlimit: 4; fill: rgb(63,61,86); fill-rule: nonzero; opacity: 1;"/>
</g>
		<g transform="matrix(1 0 0 1 234.45 -46.9)">
<path stroke-linecap="round" d="M 863.98522 415.199 L 863.0103300000001 402.80094 L 862.0354400000001 390.40285 C 861.9283188811585 389.040398454642 861.1024678404253 387.8385927880404 859.8689830535849 387.25015041347547 C 858.6354982667445 386.66170803891055 857.1817797864882 386.7760294363685 856.0554400000001 387.55005 L 845.80582 394.59336 L 838.32124 399.73661000000004 C 837.3531553718611 398.6031408547809 835.9372873722328 397.9504213747304 834.44667 397.9504213747304 C 832.9560526277671 397.9504213747304 831.5401846281388 398.6031408547809 830.5721 399.73661000000004 L 823.08751 394.59336 L 812.83794 387.55 C 811.7116002135119 386.7759794363685 810.2578817332555 386.66165803891056 809.0243969464152 387.2501004134755 C 807.7909121595748 387.8385427880404 806.9650611188416 389.040348454642 806.85794 390.4028 L 805.88305 402.80089000000004 L 804.9081600000001 415.19895 C 804.8010279699354 416.5613909563737 805.4288904738739 417.87749192275623 806.5552360957747 418.65148686556614 C 807.6815817176754 419.42548180837605 809.13529030678 419.53978148260325 810.3687600000001 418.95133000000004 L 821.59324 413.59659000000005 L 830.81587 409.19682000000006 C 831.7743874779085 410.16807153212875 833.0820825385422 410.7147982612181 834.4466649999999 410.7147982612181 C 835.8112474614578 410.7147982612181 837.1189425220915 410.16807153212875 838.07746 409.19682000000006 L 847.3000999999999 413.59659000000005 L 858.5245799999999 418.95133000000004 C 859.7580448052607 419.539795586235 861.2117565394902 419.4255106522087 862.3381109907602 418.65152562515436 C 863.4644654420302 417.87754059810004 864.0923406841847 416.56144351479975 863.98522 415.199 Z" transform="translate(-834.45, -403.1)" style="stroke: none; stroke-width: 1; stroke-dasharray: none; stroke-linecap: butt; stroke-dashoffset: 0; stroke-linejoin: miter; stroke-miterlimit: 4; fill: rgb(77,134,156); fill-rule: nonzero; opacity: 1;"/>
</g>
		<g transform="matrix(1 0 0 1 222.92 -120.02)">
<circle r="2.30677" cy="0" cx="0" style="stroke: none; stroke-width: 1; stroke-dasharray: none; stroke-linecap: butt; stroke-dashoffset: 0; stroke-linejoin: miter; stroke-miterlimit: 4; fill: rgb(230,230,230); fill-rule: nonzero; opacity: 1;"/>
</g>
		<g transform="matrix(1 0 0 1 247.52 -120.02)">
<circle r="2.30677" cy="0" cx="0" style="stroke: none; stroke-width: 1; stroke-dasharray: none; stroke-linecap: butt; stroke-dashoffset: 0; stroke-linejoin: miter; stroke-miterlimit: 4; fill: rgb(230,230,230); fill-rule: nonzero; opacity: 1;"/>
</g>
		<g transform="matrix(1 0 0 1 -209.35 -35.84)">
<path stroke-linecap="round" d="M 388.8876 463.362 C 389.44894 463.3697 390.01024 463.37739000000005 390.57924 463.37739000000005 C 391.14824000000004 463.37739000000005 391.70954 463.3697 392.27088000000003 463.362 C 422.02829 462.68534 443.59662000000003 444.09274000000005 438.10649 424.58512 L 424.71949 376.99635 L 421.33624 364.955 L 361.36008999999996 365.97764 L 357.71539999999993 377.75758 L 343.36722999999995 424.12379000000004 C 337.29275 443.739 358.86109 462.68533 388.8876 463.362 Z" transform="translate(-390.65, -414.17)" style="stroke: none; stroke-width: 1; stroke-dasharray: none; stroke-linecap: butt; stroke-dashoffset: 0; stroke-linejoin: miter; stroke-miterlimit: 4; fill: rgb(63,61,86); fill-rule: nonzero; opacity: 1;"/>
</g>
		<g transform="matrix(1 0 0 1 -208.78 -74.28)">
<path stroke-linecap="round" d="M 357.7154 377.75757 C 378.53882719400184 389.6607759738298 404.17190586164736 389.36956006707646 424.71952999999996 376.99634 L 421.33624 364.955 L 361.36008999999996 365.97764 Z" transform="translate(-391.22, -375.72)" style="stroke: none; stroke-width: 1; stroke-dasharray: none; stroke-linecap: butt; stroke-dashoffset: 0; stroke-linejoin: miter; stroke-miterlimit: 4; fill: rgb(0,0,0); fill-rule: nonzero; opacity: 0.2;"/>
</g>
		<g transform="matrix(1 0 0 1 -293.31 -51.9)">
<path stroke-linecap="round" d="M 352.962 420.52381 C 346.48850999999996 412.90511000000004 332.83188 403.95909 304.06167 398.99811 C 253.88423 390.34226 266.94077 359.85868 267.51999 358.56618 C 268.73523 355.85503 267.50628 354.03869999999995 264.74868 354.52482999999995 C 261.6086886792124 355.30944488615023 258.9602536174874 357.41135664530395 257.48307 360.29112999999995 C 256.7416 361.87625999999995 239.99107 399.20099999999996 296.61014 408.96387999999996 C 347.56735000000003 417.75424 347.74914 439.15418999999997 347.73562 439.36672999999996 C 347.59995 441.72893999999997 349.95367999999996 442.45329 352.99814 440.98718999999994 C 356.0426 439.5210899999999 358.62327 436.41808999999995 358.76308 434.05630999999994 C 358.79137 433.55727 358.98968 427.61576 352.962 420.52381 Z" transform="translate(-306.69, -398.1)" style="stroke: none; stroke-width: 1; stroke-dasharray: none; stroke-linecap: butt; stroke-dashoffset: 0; stroke-linejoin: miter; stroke-miterlimit: 4; fill: rgb(63,61,86); fill-rule: nonzero; opacity: 1;"/>
</g>
		<g transform="matrix(1 0 0 1 -181.74 -1.61)">
<path stroke-linecap="round" d="M 418.26054 470.29771 C 420.0959360945579 470.2977471317563 421.85616965491323 469.56865463356496 423.15398974211575 468.2708326709866 C 424.4518098293183 466.97301070840825 425.1808997839382 465.2127760945023 425.18086 463.37738 L 425.18086 433.38931 C 425.17626953044055 429.5705683460438 422.0792794130331 426.4772988505882 418.260535 426.4772988505882 C 414.44179058696693 426.4772988505882 411.34480046955946 429.5705683460438 411.34021 433.38931 L 411.34021 463.37738 C 411.3401728683344 465.21277701407274 412.0692650473986 466.97301160242955 413.3670867224845 468.2708332775155 C 414.66490839757046 469.56865495260143 416.42514298592727 470.29774713166563 418.26054 470.29771 Z" transform="translate(-418.26, -448.39)" style="stroke: none; stroke-width: 1; stroke-dasharray: none; stroke-linecap: butt; stroke-dashoffset: 0; stroke-linejoin: miter; stroke-miterlimit: 4; fill: rgb(63,61,86); fill-rule: nonzero; opacity: 1;"/>
</g>
		<g transform="matrix(1 0 0 1 -167.89 -60.06)">
<path stroke-linecap="round" d="M 412.19286 399.10463 C 412.95997052758673 400.77202877888743 414.358049054344 402.0663903716862 416.0795196143715 402.70295644078533 C 417.80099017439903 403.3395225098844 419.7048313980491 403.26614611706697 421.3722 402.49897 L 448.6152 389.96482 C 450.86395664067163 388.9330824714886 452.39083326732515 386.7793019413076 452.61995883443836 384.31579017328244 C 452.8490844015516 381.8522784052572 451.74559790683054 379.45385384709914 449.7256861661199 378.0250972840546 C 447.70577442540923 376.59634072101005 445.0767630187991 376.3546346409845 442.8302 377.39113999999995 L 415.5872 389.92528999999996 C 413.91980122111255 390.6924005275867 412.62543962831376 392.090479054344 411.98887355921465 393.8119496143715 C 411.3523074901156 395.533420174399 411.425683882933 397.4372613980491 412.19286 399.10463 Z" transform="translate(-432.1, -389.94)" style="stroke: none; stroke-width: 1; stroke-dasharray: none; stroke-linecap: butt; stroke-dashoffset: 0; stroke-linejoin: miter; stroke-miterlimit: 4; fill: rgb(63,61,86); fill-rule: nonzero; opacity: 1;"/>
</g>
		<g transform="matrix(1 0 0 1 -250.94 -60.06)">
<path stroke-linecap="round" d="M 368.96562 399.10463 C 368.19850947241326 400.77202877888743 366.800430945656 402.0663903716862 365.0789603856285 402.70295644078533 C 363.35748982560096 403.3395225098844 361.4536486019509 403.26614611706697 359.78628 402.49897 L 332.54328 389.96482 C 330.29452335932837 388.9330824714886 328.76764673267485 386.7793019413076 328.53852116556163 384.31579017328244 C 328.3093955984484 381.8522784052572 329.41288209316946 379.45385384709914 331.4327938338801 378.0250972840546 C 333.45270557459077 376.59634072101005 336.0817169812009 376.3546346409845 338.32828 377.39113999999995 L 365.57128 389.92528999999996 C 367.23867877888745 390.6924005275867 368.53304037168624 392.090479054344 369.16960644078534 393.8119496143715 C 369.8061725098844 395.533420174399 369.732796117067 397.4372613980491 368.96562 399.10463 Z" transform="translate(-349.05, -389.94)" style="stroke: none; stroke-width: 1; stroke-dasharray: none; stroke-linecap: butt; stroke-dashoffset: 0; stroke-linejoin: miter; stroke-miterlimit: 4; fill: rgb(63,61,86); fill-rule: nonzero; opacity: 1;"/>
</g>
		<g transform="matrix(1 0 0 1 -237.1 -1.61)">
<path stroke-linecap="round" d="M 362.898 470.29771 C 361.06260390544213 470.29774713175624 359.3023703450868 469.56865463356496 358.00455025788426 468.2708326709866 C 356.70673017068174 466.97301070840825 355.97764021606184 465.2127760945023 355.97768 463.37738 L 355.97768 433.38931 C 355.98227046955947 429.5705683460438 359.07926058696694 426.4772988505882 362.898005 426.4772988505882 C 366.7167494130331 426.4772988505882 369.81373953044056 429.5705683460438 369.81833 433.38931 L 369.81833 463.37738 C 369.81836713166564 465.21277701407274 369.08927495260144 466.97301160242955 367.79145327751553 468.2708332775155 C 366.49363160242956 469.56865495260143 364.73339701407275 470.29774713166563 362.898 470.29771 Z" transform="translate(-362.9, -448.39)" style="stroke: none; stroke-width: 1; stroke-dasharray: none; stroke-linecap: butt; stroke-dashoffset: 0; stroke-linejoin: miter; stroke-miterlimit: 4; fill: rgb(63,61,86); fill-rule: nonzero; opacity: 1;"/>
</g>
		<g transform="matrix(1 0 0 1 -209.43 -151.4)">
<path stroke-linecap="round" d="M 445.94662 274.22073 C 446.3453283505607 273.1082659833495 446.44917883495225 271.91151524308464 446.24806 270.747 L 442.48167 248.59 L 438.71528 226.433 C 438.30138743603084 223.99815204184557 436.61995969937016 221.96906845971824 434.30437371778686 221.110084643961 C 431.9887877362036 220.25110082820376 429.39083568922376 220.6927167002733 427.48914 222.26858 L 410.18382 236.60887 L 400.14091 244.931 C 393.1537379639492 243.90480159488703 386.0468066322813 244.01196021667283 379.09375 245.24835000000002 L 368.66788 236.60884000000001 L 351.36257 222.26855 C 349.4608743266133 220.6926814314768 346.8629187711472 220.25106237394863 344.5473293995602 221.1100466820885 C 342.2317400279732 221.96903099022833 340.550310530311 223.99811829848798 340.13642 226.43297 L 336.37 248.59 L 332.60361 270.747 C 332.2673520496826 272.6632429208469 332.7672770001535 274.6317788535939 333.97711 276.15538000000004 C 317.0435580622083 304.1560522539188 323.1322766591716 340.3306255563027 348.2989914554506 361.24519689458305 C 373.46570625172967 382.1597682328633 410.1436373265328 381.5260334030341 434.5728063015672 359.75452608060726 C 459.0019752766015 337.98301875818044 463.8373573133751 301.6196948132906 445.94659 274.22073000000006 Z" transform="translate(-390.57, -298.6)" style="stroke: none; stroke-width: 1; stroke-dasharray: none; stroke-linecap: butt; stroke-dashoffset: 0; stroke-linejoin: miter; stroke-miterlimit: 4; fill: rgb(63,61,86); fill-rule: nonzero; opacity: 1;"/>
</g>
		<g transform="matrix(1 0 0 1 -178.97 -201.79)">
<path stroke-linecap="round" d="M 427.05136 232.14011 L 406.06587 249.5299 L 406.06549 249.53065 C 405.1241544708354 250.31080478241097 404.67050735432355 251.53387759298482 404.87541983503786 252.7391845821929 C 405.08033231575223 253.944491571401 405.91267620256167 254.94893492987148 407.05894 255.37418 L 432.61218 264.85358 C 433.7586014161809 265.2789120623739 435.0448505176405 265.0603253597866 435.9864082071976 264.2801596440587 C 436.9279658967547 263.49999392833075 437.38178663137563 262.2767753712521 437.17692 261.07128 L 432.60955 234.20171 C 432.4113341663062 232.99299899101803 431.5761386546295 231.98539849112038 430.42517000000004 231.56642 C 430.0407447429785 231.42273753399223 429.6337486935428 231.34886447627653 429.22335000000004 231.34828 C 428.4289719149923 231.3497650094328 427.66030871818367 231.6299921647737 427.05136 232.14011 Z" transform="translate(-421.03, -248.21)" style="stroke: none; stroke-width: 1; stroke-dasharray: none; stroke-linecap: butt; stroke-dashoffset: 0; stroke-linejoin: miter; stroke-miterlimit: 4; fill: rgb(230,230,230); fill-rule: nonzero; opacity: 1;"/>
</g>
		<g transform="matrix(1 0 0 1 -242.17 -201.79)">
<path stroke-linecap="round" d="M 348.42654 231.56642 C 347.2755662929702 231.98539132188412 346.4403678517059 232.99299535610868 346.24216 234.20171 L 341.67479000000003 261.07128 C 341.4699233686244 262.2767753712521 341.9237441032453 263.49999392833075 342.8653017928024 264.2801596440587 C 343.8068594823595 265.0603253597866 345.0931085838191 265.2789120623739 346.23953 264.85358 L 371.79277 255.37418000000002 C 372.9390277170079 254.94892777907188 373.7713644167708 253.94448401960878 373.9762743541924 252.73917985768517 C 374.18118429161404 251.5338756957616 373.7275400224043 250.31080639081208 372.78621000000004 249.53065000000004 L 351.80034000000006 232.14011000000005 C 351.1913895067174 231.6299884721725 350.42272182453075 231.34976097181067 349.62834000000004 231.34828000000005 C 349.2179479307144 231.34886578547713 348.81095867510464 231.4227388394118 348.42654 231.56642 Z" transform="translate(-357.83, -248.21)" style="stroke: none; stroke-width: 1; stroke-dasharray: none; stroke-linecap: butt; stroke-dashoffset: 0; stroke-linejoin: miter; stroke-miterlimit: 4; fill: rgb(230,230,230); fill-rule: nonzero; opacity: 1;"/>
</g>
		<g transform="matrix(1 0 0 1 -209.42 -130.41)">
<circle r="9.2271" cy="0" cx="0" style="stroke: none; stroke-width: 1; stroke-dasharray: none; stroke-linecap: butt; stroke-dashoffset: 0; stroke-linejoin: miter; stroke-miterlimit: 4; fill: rgb(230,230,230); fill-rule: nonzero; opacity: 1;"/>
</g>
		<g transform="matrix(1 0 0 1 -209.42 -135.02)">
<ellipse ry="2.30677" rx="6.1514" cy="0" cx="0" style="stroke: none; stroke-width: 1; stroke-dasharray: none; stroke-linecap: butt; stroke-dashoffset: 0; stroke-linejoin: miter; stroke-miterlimit: 4; fill: rgb(63,61,86); fill-rule: nonzero; opacity: 1;"/>
</g>
		<g transform="matrix(-1 0 0 -1 -209.04 -117.72)">
<path stroke-linecap="round" d="M 390.9637 324.9709 L 390.9637 324.9709 C 392.0853269506893 324.97089734781025 393.16101559663423 325.41646142885264 393.954124681747 326.2095723893312 C 394.7472337668597 327.0026833498098 395.1927953043575 328.0783730493201 395.19279 329.2 L 395.19279 339.58049 L 386.73462 339.58049 L 386.73462 329.2 C 386.7346146956538 328.0783747819329 387.18017486044295 327.0026865978959 387.9732817827296 326.209575924879 C 388.7663887050162 325.4164652518621 389.84207478192036 324.9708999999874 390.9637 324.9709 Z" transform="translate(-390.96, -332.28)" style="stroke: none; stroke-width: 1; stroke-dasharray: none; stroke-linecap: butt; stroke-dashoffset: 0; stroke-linejoin: miter; stroke-miterlimit: 4; fill: rgb(255,101,132); fill-rule: nonzero; opacity: 1;"/>
</g>
		<g transform="matrix(1 0 0 1 -206.63 -210.62)">
<path stroke-linecap="round" d="M 390.06586 220.31024 C 390.50935999999996 221.23 390.94 222.15971 391.34502 223.10843 C 396.11701570923935 234.23758180183964 397.7263181472711 246.467482394302 395.99582999999996 258.45228 C 395.13008999999994 257.1962 394.22027999999995 255.88756999999998 393.29482999999993 254.56451999999996 C 395.27680204204273 243.06217757595007 394.162349920959 231.23959792912913 390.06586 220.31023999999996 Z" transform="translate(-393.37, -239.38)" style="stroke: none; stroke-width: 1; stroke-dasharray: none; stroke-linecap: butt; stroke-dashoffset: 0; stroke-linejoin: miter; stroke-miterlimit: 4; fill: rgb(63,61,86); fill-rule: nonzero; opacity: 1;"/>
</g>
		<g transform="matrix(1 0 0 1 -213.55 -202.16)">
<path stroke-linecap="round" d="M 383.14553 228.76841 C 383.58904 229.68818 384.01968 230.61789 384.42470000000003 231.56661 C 389.1966898364334 242.69575989182354 390.8059920912801 254.92565563190757 389.07551 266.91044999999997 C 388.20977 265.65437999999995 387.29995 264.34574 386.37451 263.02268999999995 C 388.3564822478643 251.5203468221302 387.2420265891256 239.6977662604608 383.14553 228.76841000000002 Z" transform="translate(-386.45, -247.84)" style="stroke: none; stroke-width: 1; stroke-dasharray: none; stroke-linecap: butt; stroke-dashoffset: 0; stroke-linejoin: miter; stroke-miterlimit: 4; fill: rgb(63,61,86); fill-rule: nonzero; opacity: 1;"/>
</g>
		<g transform="matrix(1 0 0 1 -208.65 -201.84)">
<path stroke-linecap="round" d="M 361.80966 260.25756 L 362.78455 247.85950000000003 L 363.75944000000004 235.46142000000003 C 363.8665578498542 234.0989666545611 364.6924076155596 232.89715788692908 365.9258929892283 232.30871316972912 C 367.159378362897 231.72026845252918 368.6130987625602 231.83458883162186 369.73944000000006 232.60861000000003 L 379.98906000000005 239.65193000000002 L 387.4736500000001 244.79518000000002 C 388.4417290505846 243.66170503110268 389.85759682176075 243.00898103602 391.3482150000001 243.00898103602 C 392.8388331782394 243.00898103602 394.2547009494155 243.66170503110268 395.22278000000006 244.79518000000002 L 402.7073700000001 239.65193000000002 L 412.9569900000001 232.60861000000003 C 414.08333123743995 231.83458883162186 415.53705163710316 231.72026845252918 416.7705370107718 232.30871316972915 C 418.00402238444053 232.89715788692908 418.82987215014595 234.0989666545611 418.9369900000001 235.46142000000003 L 419.9118800000001 247.85950000000003 L 420.8867700000001 260.25756 C 420.99390389893614 261.61999988546694 420.3660441863271 262.9361009669938 419.2397009479591 263.71009775199684 C 418.1133577095911 264.48409453699986 416.6596504934625 264.59839766595684 415.4261800000001 264.00995 L 404.2016 258.6552 L 394.97896 254.25543 C 394.0204465429426 255.22668903462818 392.71274997709264 255.77342097050445 391.348165 255.77342097050445 C 389.9835800229073 255.77342097050445 388.67588345705735 255.22668903462818 387.71736999999996 254.25543 L 378.49472999999995 258.6552 L 367.27025 264.01 C 366.0367710717024 264.59845348167386 364.5830521211453 264.4841457467693 363.45670535864025 263.7101362266452 C 362.3303585961352 262.9361267065211 361.7025067481944 261.6200085117889 361.80966 260.25756 Z" transform="translate(-391.35, -248.16)" style="stroke: none; stroke-width: 1; stroke-dasharray: none; stroke-linecap: butt; stroke-dashoffset: 0; stroke-linejoin: miter; stroke-miterlimit: 4; fill: rgb(77,134,156); fill-rule: nonzero; opacity: 1;"/>
</g>
		<g transform="matrix(1 0 0 1 -197.11 -141.28)">
<path stroke-linecap="round" d="M 400.57526 309.5924 C 400.57526 310.8664 401.60804 309.5924 402.88204 309.5924 C 404.15604 309.5924 405.18881 310.8664 405.18881 309.5924 C 405.18616134019254 308.3202785854935 404.1541591718656 307.29042289236367 402.882035 307.29042289236367 C 401.6099108281344 307.29042289236367 400.57790865980746 308.3202785854935 400.57526 309.5924 Z" transform="translate(-402.88, -308.72)" style="stroke: none; stroke-width: 1; stroke-dasharray: none; stroke-linecap: butt; stroke-dashoffset: 0; stroke-linejoin: miter; stroke-miterlimit: 4; fill: rgb(230,230,230); fill-rule: nonzero; opacity: 1;"/>
</g>
		<g transform="matrix(1 0 0 1 -221.72 -141.28)">
<path stroke-linecap="round" d="M 380.58322 309.5924 C 380.58322 310.8664 379.55044 309.5924 378.27644 309.5924 C 377.00244 309.5924 375.96966999999995 310.8664 375.96966999999995 309.5924 C 375.9723186598074 308.3202785854935 377.0043208281343 307.29042289236367 378.27644499999997 307.29042289236367 C 379.54856917186555 307.29042289236367 380.5805713401925 308.3202785854935 380.5832199999999 309.5924 Z" transform="translate(-378.28, -308.72)" style="stroke: none; stroke-width: 1; stroke-dasharray: none; stroke-linecap: butt; stroke-dashoffset: 0; stroke-linejoin: miter; stroke-miterlimit: 4; fill: rgb(230,230,230); fill-rule: nonzero; opacity: 1;"/>
</g>
		<g transform="matrix(1 0 0 1 -0.14 92.87)">
<polygon points="36.66,-59.11 36.66,-73.77 -36.66,-73.77 -36.66,-72.86 -36.66,-59.11 -36.66,59.11 -36.66,73.77 -21.99,73.77 36.66,73.77 36.66,59.11 -21.99,59.11 -21.99,-59.11 36.66,-59.11" style="stroke: none; stroke-width: 1; stroke-dasharray: none; stroke-linecap: butt; stroke-dashoffset: 0; stroke-linejoin: miter; stroke-miterlimit: 4; fill: rgb(63,61,86); fill-rule: nonzero; opacity: 1;"/>
</g>
		<g transform="matrix(1 0 0 1 108.91 92.87)">
<path stroke-linecap="round" d="M 672.25275 469.09857 L 672.25275 616.643 L 745.56675 616.643 L 745.56675 469.09857 Z M 730.90393 601.98017 L 686.91553 601.98017 L 686.91553 483.76142 L 730.90393 483.76142 Z" transform="translate(-708.91, -542.87)" style="stroke: none; stroke-width: 1; stroke-dasharray: none; stroke-linecap: butt; stroke-dashoffset: 0; stroke-linejoin: miter; stroke-miterlimit: 4; fill: rgb(77,134,156); fill-rule: nonzero; opacity: 1;"/>
</g>
		<g transform="matrix(1 0 0 1 -109.2 93.33)">
<polygon points="-21.99,58.65 -21.99,-73.31 -36.66,-73.31 -36.66,58.65 -36.66,73.31 -21.99,73.31 36.66,73.31 36.66,58.65 -21.99,58.65" style="stroke: none; stroke-width: 1; stroke-dasharray: none; stroke-linecap: butt; stroke-dashoffset: 0; stroke-linejoin: miter; stroke-miterlimit: 4; fill: rgb(77,134,156); fill-rule: nonzero; opacity: 1;"/>
</g>
		<g transform="matrix(1 0 0 1 -215.5 92.87)">
<polygon points="36.66,-59.11 36.66,-73.77 -36.66,-73.77 -36.66,-72.86 -36.66,-59.11 -36.66,-7.79 -36.66,6.87 -36.66,59.11 -36.66,73.77 -21.99,73.77 36.66,73.77 36.66,59.11 -21.99,59.11 -21.99,6.87 36.66,6.87 36.66,-7.79 -21.99,-7.79 -21.99,-59.11 36.66,-59.11" style="stroke: none; stroke-width: 1; stroke-dasharray: none; stroke-linecap: butt; stroke-dashoffset: 0; stroke-linejoin: miter; stroke-miterlimit: 4; fill: rgb(63,61,86); fill-rule: nonzero; opacity: 1;"/>
</g>
		<g transform="matrix(1 0 0 1 358.18 92.87)">
<polygon points="36.66,-59.11 36.66,-73.77 -36.66,-73.77 -36.66,-72.86 -36.66,-59.11 -36.66,-7.79 -36.66,6.87 -36.66,59.11 -36.66,73.77 -21.99,73.77 36.66,73.77 36.66,59.11 -21.99,59.11 -21.99,6.87 36.66,6.87 36.66,-7.79 -21.99,-7.79 -21.99,-59.11 36.66,-59.11" style="stroke: none; stroke-width: 1; stroke-dasharray: none; stroke-linecap: butt; stroke-dashoffset: 0; stroke-linejoin: miter; stroke-miterlimit: 4; fill: rgb(77,134,156); fill-rule: nonzero; opacity: 1;"/>
</g>
		<g transform="matrix(1 0 0 1 -340.83 93.1)">
<polygon points="39.18,-73.09 39.18,48.1 0.52,9.44 0.43,9.53 0.35,9.45 -39.18,48.97 -39.18,-73.54 -53.84,-73.54 -53.84,73.08 -39.18,73.08 -39.18,69.71 0.44,30.09 39.18,68.84 39.18,73.54 53.84,73.54 53.84,-73.09 39.18,-73.09" style="stroke: none; stroke-width: 1; stroke-dasharray: none; stroke-linecap: butt; stroke-dashoffset: 0; stroke-linejoin: miter; stroke-miterlimit: 4; fill: rgb(63,61,86); fill-rule: nonzero; opacity: 1;"/>
</g>
		<g transform="matrix(1 0 0 1 233.77 93.1)">
<polygon points="39.18,-73.09 39.18,-69.71 -0.43,-30.1 -39.18,-68.84 -39.18,-73.54 -53.84,-73.54 -53.84,73.08 -39.18,73.08 -39.18,-48.1 -0.52,-9.44 -0.43,-9.53 -0.35,-9.45 39.18,-48.97 39.18,73.54 53.84,73.54 53.84,-73.09 39.18,-73.09" style="stroke: none; stroke-width: 1; stroke-dasharray: none; stroke-linecap: butt; stroke-dashoffset: 0; stroke-linejoin: miter; stroke-miterlimit: 4; fill: rgb(63,61,86); fill-rule: nonzero; opacity: 1;"/>
</g>
		<g transform="matrix(1 0 0 1 -109.46 -79.31)">
<circle r="9" cy="0" cx="0" style="stroke: none; stroke-width: 1; stroke-dasharray: none; stroke-linecap: butt; stroke-dashoffset: 0; stroke-linejoin: miter; stroke-miterlimit: 4; fill: rgb(77,134,156); fill-rule: nonzero; opacity: 1;"/>
</g>
		<g transform="matrix(1 0 0 1 -331.46 20.69)">
<circle r="9" cy="0" cx="0" style="stroke: none; stroke-width: 1; stroke-dasharray: none; stroke-linecap: butt; stroke-dashoffset: 0; stroke-linejoin: miter; stroke-miterlimit: 4; fill: rgb(77,134,156); fill-rule: nonzero; opacity: 1;"/>
</g>
		<g transform="matrix(1 0 0 1 -153.46 220.69)">
<circle r="9" cy="0" cx="0" style="stroke: none; stroke-width: 1; stroke-dasharray: none; stroke-linecap: butt; stroke-dashoffset: 0; stroke-linejoin: miter; stroke-miterlimit: 4; fill: rgb(77,134,156); fill-rule: nonzero; opacity: 1;"/>
</g>
		<g transform="matrix(1 0 0 1 72.54 -52.31)">
<circle r="9" cy="0" cx="0" style="stroke: none; stroke-width: 1; stroke-dasharray: none; stroke-linecap: butt; stroke-dashoffset: 0; stroke-linejoin: miter; stroke-miterlimit: 4; fill: rgb(77,134,156); fill-rule: nonzero; opacity: 1;"/>
</g>
		<g transform="matrix(1 0 0 1 337.54 212.69)">
<circle r="9" cy="0" cx="0" style="stroke: none; stroke-width: 1; stroke-dasharray: none; stroke-linecap: butt; stroke-dashoffset: 0; stroke-linejoin: miter; stroke-miterlimit: 4; fill: rgb(77,134,156); fill-rule: nonzero; opacity: 1;"/>
</g>
		<g transform="matrix(1 0 0 1 346.54 -23.31)">
<circle r="9" cy="0" cx="0" style="stroke: none; stroke-width: 1; stroke-dasharray: none; stroke-linecap: butt; stroke-dashoffset: 0; stroke-linejoin: miter; stroke-miterlimit: 4; fill: rgb(77,134,156); fill-rule: nonzero; opacity: 1;"/>
</g>
		<g transform="matrix(1 0 0 1 232.54 138.69)">
<circle r="9" cy="0" cx="0" style="stroke: none; stroke-width: 1; stroke-dasharray: none; stroke-linecap: butt; stroke-dashoffset: 0; stroke-linejoin: miter; stroke-miterlimit: 4; fill: rgb(77,134,156); fill-rule: nonzero; opacity: 1;"/>
</g>
</g>
</g>
</svg>